<svg width="17" height="18" viewBox="0 0 17 18" fill="none" xmlns="http://www.w3.org/2000/svg">
<path d="M13.852 1.86499C14.3501 1.86499 14.754 2.26889 14.754 2.76712V5.40789C14.754 5.90612 14.3501 6.31002 13.852 6.31002H10.906C10.7578 6.31002 10.6535 6.42355 10.6535 6.54473V15.2329C10.6535 15.7311 10.2496 16.135 9.75134 16.135H6.96294C6.4647 16.135 6.06082 15.7311 6.06082 15.2329V6.54551C6.06082 6.42405 5.95619 6.3108 5.80824 6.3108H2.86236C2.36411 6.3108 1.96024 5.90688 1.96024 5.40866V2.76712C1.96024 2.26889 2.36411 1.86499 2.86236 1.86499H13.852Z" stroke="white" stroke-width="0.916667"/>
<mask id="mask0_10_9" style="mask-type:alpha" maskUnits="userSpaceOnUse" x="2" y="2" width="13" height="14">
<path d="M2.20615 5.40869C2.20615 5.77103 2.49988 6.06478 2.86224 6.06478H5.80812C6.08315 6.06478 6.30673 6.27956 6.30673 6.54553V15.2329C6.30673 15.5952 6.60046 15.889 6.96282 15.889H9.75121C10.1135 15.889 10.4073 15.5952 10.4073 15.2329V6.54475C10.4073 6.27956 10.6301 6.06402 10.9059 6.06402H13.8517C14.2142 6.06402 14.5078 5.77026 14.5078 5.40791V2.76714C14.5078 2.40479 14.2142 2.11105 13.8517 2.11105H2.86224C2.49988 2.11105 2.20615 2.40479 2.20615 2.76714V5.40869Z" fill="white"/>
</mask>
<g mask="url(#mask0_10_9)">
<path d="M-2.51806 -16.6088L-3.53595 -16.0124L-3.54398 -14.8565L-3.55606 -13.7044L-4.52162 -13.1447L-5.48718 -12.585L-5.5073 -11.4248L-5.52741 -10.2648L-6.50102 -9.69692L-7.47865 -9.12903V-7.98111V-6.83726L-8.45226 -6.26938L-9.42989 -5.70151L-9.44197 -4.54548L-9.45001 -3.39351L-10.4276 -2.82563L-11.4013 -2.25776L-11.4133 -1.10577L-11.4254 0.0502348L-12.4071 0.618099L-13.3887 1.18599L-13.4007 2.342L-13.4128 3.49804L-14.3905 4.06591L-15.3641 4.6338V5.85066V7.06752L-14.3864 7.6354L-13.4128 8.20328L-13.4007 9.35931L-13.3887 10.5153L-12.4071 11.0832L-11.4254 11.6511L-11.4133 12.8071L-11.4013 13.959L-10.4276 14.527L-9.45001 15.0948L-9.44197 16.2468L-9.42989 17.4028L-8.45628 17.9707L-7.47865 18.5385V19.6824V20.8304L-6.50102 21.3982L-5.52741 21.9661L-5.5073 23.1262L-5.48718 24.2862L-4.52162 24.8461L-3.55606 25.4058L-3.54398 26.5577L-3.53595 27.7139L-2.52209 28.3018C-1.9669 28.6263 -1.49216 28.8942 -1.46401 28.9021C-1.43987 28.9104 -0.977219 28.659 -0.446148 28.3465L0.527467 27.7826L1.49704 28.3465C2.02812 28.6547 2.47872 28.9103 2.49883 28.9103C2.51894 28.9103 2.96953 28.6547 3.50058 28.3465L4.47019 27.7826L5.43976 28.3465C5.97081 28.6547 6.42141 28.9103 6.44152 28.9103C6.46163 28.9103 6.91223 28.6547 7.44331 28.3465L8.41288 27.7826L9.38248 28.3465C9.91353 28.6547 10.3641 28.9103 10.3842 28.9103C10.4044 28.9103 10.855 28.6547 11.386 28.3465L12.3556 27.7826L13.3252 28.3465C13.8563 28.6547 14.3068 28.9103 14.327 28.9103C14.3471 28.9103 14.7977 28.6547 15.3287 28.3465L16.2983 27.7826L17.2679 28.3465C17.799 28.6547 18.2495 28.9103 18.2697 28.9103C18.2898 28.9103 18.7404 28.6547 19.2714 28.3465L20.241 27.7826L21.2146 28.3465C21.7456 28.659 22.2083 28.9104 22.2325 28.9021C22.2605 28.8942 22.7353 28.6263 23.2907 28.3018L24.3045 27.7139L24.3124 26.5577L24.3246 25.4058L25.2902 24.8461L26.2558 24.2862L26.2757 23.1262L26.2958 21.9661L27.2736 21.3982L28.2471 20.8304V19.6824V18.5385L29.2207 17.9707L30.1984 17.4028L30.2104 16.2468L30.2186 15.0948L31.1961 14.527L32.1697 13.959L32.1819 12.8071L32.1938 11.6511L33.1755 11.0832L34.1573 10.5153L34.1692 9.35931L34.1814 8.20328L35.1589 7.6354L36.1325 7.06752V5.85066V4.6338L35.1589 4.06591L34.1814 3.49804L34.1692 2.342L34.1573 1.18599L33.1755 0.618099L32.1938 0.0502348L32.1819 -1.10577L32.1697 -2.25776L31.1961 -2.82563L30.2186 -3.39351L30.2104 -4.54548L30.1984 -5.70151L29.2247 -6.26938L28.2471 -6.83726V-7.98111V-9.12903L27.2736 -9.69692L26.2958 -10.2648L26.2757 -11.4248L26.2558 -12.585L25.2902 -13.1447L24.3246 -13.7044L24.3124 -14.8565L24.3045 -16.0124L23.2907 -16.6006C22.7353 -16.9251 22.2605 -17.1928 22.2325 -17.2009C22.2083 -17.209 21.7456 -16.9576 21.2146 -16.6453L20.241 -16.0814L19.2714 -16.6453C18.7404 -16.9535 18.2898 -17.209 18.2697 -17.209C18.2495 -17.209 17.799 -16.9535 17.2679 -16.6453L16.2983 -16.0814L15.3287 -16.6453C14.7977 -16.9535 14.3471 -17.209 14.327 -17.209C14.3068 -17.209 13.8563 -16.9535 13.3252 -16.6453L12.3556 -16.0814L11.386 -16.6453C10.855 -16.9535 10.4044 -17.209 10.3842 -17.209C10.3641 -17.209 9.91353 -16.9535 9.38248 -16.6453L8.41288 -16.0814L7.44331 -16.6453C6.91223 -16.9535 6.46163 -17.209 6.44152 -17.209C6.42141 -17.209 5.97081 -16.9535 5.43976 -16.6453L4.47019 -16.0814L3.50058 -16.6453C2.96953 -16.9535 2.51894 -17.209 2.49883 -17.209C2.47872 -17.209 2.02812 -16.9535 1.49704 -16.6453L0.527467 -16.0814L-0.442111 -16.6453C-0.973182 -16.9535 -1.43182 -17.209 -1.45596 -17.2049C-1.48412 -17.2049 -1.96286 -16.9333 -2.51806 -16.6088ZM-0.510512 -16.4018L0.386651 -15.8786V-14.7956V-13.7126L-0.510512 -13.1893C-1.00536 -12.9013 -1.42378 -12.666 -1.44389 -12.666C-1.45998 -12.666 -1.88242 -12.9013 -2.37728 -13.1893L-3.27444 -13.7126V-14.7956V-15.8745L-2.38935 -16.3978C-1.90254 -16.6857 -1.48412 -16.921 -1.45596 -16.921C-1.43182 -16.9251 -1.00536 -16.6898 -0.510512 -16.4018ZM3.43218 -16.4018L4.32938 -15.8786V-14.7956V-13.7126L3.43218 -13.1893C2.93735 -12.9013 2.51894 -12.666 2.49883 -12.666C2.48272 -12.666 2.0603 -12.9013 1.56544 -13.1893L0.668283 -13.7126V-14.7956V-15.8745L1.55337 -16.3978C2.04019 -16.6857 2.45857 -16.921 2.48675 -16.921C2.5109 -16.9251 2.93735 -16.6898 3.43218 -16.4018ZM7.3749 -16.4018L8.27207 -15.8745V-14.7956V-13.7126L7.3749 -13.1893C6.88004 -12.9013 6.46163 -12.666 6.44152 -12.666C6.42141 -12.666 6.00299 -12.9013 5.50814 -13.1893L4.61097 -13.7126V-14.7956V-15.8745L5.49609 -16.3978C5.98288 -16.6857 6.4013 -16.921 6.42945 -16.921C6.45359 -16.9251 6.88004 -16.6898 7.3749 -16.4018ZM11.3176 -16.4018L12.2148 -15.8745V-14.7956V-13.7126L11.3176 -13.1893C10.8228 -12.9013 10.4044 -12.666 10.3842 -12.666C10.3641 -12.666 9.94571 -12.9013 9.45086 -13.1893L8.5537 -13.7126V-14.7956V-15.8745L9.43878 -16.3978C9.9256 -16.6857 10.344 -16.921 10.3722 -16.921C10.3963 -16.9251 10.8228 -16.6898 11.3176 -16.4018ZM15.2603 -16.4018L16.1575 -15.8745V-14.7956V-13.7126L15.2603 -13.1893C14.7654 -12.9013 14.3471 -12.666 14.327 -12.666C14.3068 -12.666 13.8884 -12.9013 13.3936 -13.1893L12.4964 -13.7126V-14.7956V-15.8745L13.3815 -16.3978C13.8682 -16.6857 14.2867 -16.921 14.3149 -16.921C14.3391 -16.9251 14.7654 -16.6898 15.2603 -16.4018ZM19.203 -16.4018L20.1002 -15.8745V-14.7956V-13.7126L19.203 -13.1893C18.7081 -12.9013 18.2857 -12.666 18.2697 -12.666C18.2495 -12.666 17.8311 -12.9013 17.3363 -13.1893L16.4391 -13.7126V-14.7956V-15.8786L17.3242 -16.3978C17.8111 -16.6857 18.2294 -16.921 18.2576 -16.921C18.2818 -16.9251 18.7081 -16.6898 19.203 -16.4018ZM23.1457 -16.4018L24.0428 -15.8745V-14.7956V-13.7126L23.1457 -13.1893C22.6508 -12.9013 22.2284 -12.666 22.2124 -12.666C22.1922 -12.666 21.7739 -12.9013 21.279 -13.1893L20.3818 -13.7126V-14.7956V-15.8786L21.2669 -16.3978C21.7538 -16.6857 22.1721 -16.921 22.2003 -16.921C22.2245 -16.9251 22.6508 -16.6898 23.1457 -16.4018ZM-2.47784 -12.954L-1.58471 -12.4308V-11.3478V-10.2688L-2.49795 -9.73745L-3.41524 -9.20609L-4.3285 -9.73745L-5.24579 -10.2688V-11.3519V-12.4389L-4.36069 -12.954C-3.87389 -13.242 -3.45145 -13.4732 -3.42329 -13.4732C-3.39916 -13.4773 -2.97269 -13.242 -2.47784 -12.954ZM1.46485 -12.954L2.35801 -12.4308V-11.3478V-10.2688L1.44474 -9.73745L0.527467 -9.20609L-0.385807 -9.73745L-1.30308 -10.2688V-11.3519V-12.4308L-0.41799 -12.9501C0.0688278 -13.238 0.491248 -13.4732 0.519428 -13.4732C0.543545 -13.4773 0.970024 -13.242 1.46485 -12.954ZM5.40354 -12.954L6.30071 -12.4308V-11.3519V-10.2688L5.38746 -9.73745L4.47019 -9.20609L3.55692 -9.73745L2.63964 -10.2688V-11.3519V-12.4308L3.52473 -12.9501C4.01152 -13.238 4.42993 -13.4732 4.45812 -13.4732C4.48223 -13.4773 4.90871 -13.242 5.40354 -12.954ZM9.34626 -12.954L10.2434 -12.4308V-11.3519V-10.2688L9.33015 -9.73745L8.41288 -9.20609L7.49961 -9.73745L6.58233 -10.2688V-11.3519V-12.4308L7.46742 -12.9501C7.95425 -13.238 8.37265 -13.4732 8.40081 -13.4732C8.42495 -13.4773 8.85141 -13.242 9.34626 -12.954ZM13.293 -12.954L14.1861 -12.4308V-11.3478V-10.2688L13.2729 -9.73745L12.3556 -9.20609L11.4423 -9.73745L10.5251 -10.2688V-11.3519V-12.4308L11.4101 -12.9501C11.897 -13.238 12.3194 -13.4732 12.3475 -13.4732C12.3717 -13.4773 12.7981 -13.242 13.293 -12.954ZM17.2316 -12.954L18.1288 -12.4308V-11.3519V-10.2688L17.2156 -9.73745L16.2983 -9.20609L15.385 -9.73745L14.4677 -10.2688V-11.3519V-12.4308L15.3529 -12.9501C15.8397 -13.238 16.258 -13.4732 16.2863 -13.4732C16.3104 -13.4773 16.7369 -13.242 17.2316 -12.954ZM21.1744 -12.954L22.0715 -12.4308V-11.3519V-10.2688L21.1583 -9.73745L20.241 -9.20609L19.3277 -9.73745L18.4105 -10.2688V-11.3478V-12.4308L19.2956 -12.9501C19.7824 -13.238 20.2008 -13.4732 20.229 -13.4732C20.2531 -13.4773 20.6796 -13.242 21.1744 -12.954ZM25.1291 -12.954L26.0143 -12.4389V-11.3519V-10.2688L25.101 -9.73745L24.1838 -9.20609L23.2704 -9.73745L22.3531 -10.2688V-11.3478V-12.4308L23.2383 -12.9501C23.725 -13.238 24.1517 -13.4732 24.1838 -13.4732C24.2159 -13.4732 24.6423 -13.242 25.1291 -12.954ZM-4.24 -9.39267L-3.55606 -8.99111L-3.54398 -7.91622L-3.53595 -6.84131L-4.46128 -6.30183L-5.38661 -5.76641L-6.31194 -6.30183L-7.23727 -6.84131V-7.92025L-7.23323 -8.99517L-6.31997 -9.52653L-5.40672 -10.0579L-5.16533 -9.92406C-5.03257 -9.85103 -4.61415 -9.61172 -4.24 -9.39267ZM28.0056 -7.92025V-6.84131L27.0804 -6.30183L26.1552 -5.76641L25.2297 -6.30183L24.3045 -6.84131L24.3124 -7.91622L24.3246 -8.99111L25.2419 -9.52653L26.1591 -10.062L27.0804 -9.52653L28.0017 -8.99517L28.0056 -7.92025ZM-0.498439 -9.5103L0.386651 -8.99111L0.398723 -7.91622L0.406764 -6.84131L-0.518549 -6.30183L-1.44389 -5.76641L-2.36921 -6.30588L-3.29455 -6.84536L-3.28651 -7.91622L-3.27444 -8.99111L-2.38935 -9.5103C-1.90254 -9.79423 -1.47608 -10.0254 -1.44389 -10.0295C-1.41171 -10.0295 -0.985256 -9.79423 -0.498439 -9.5103ZM3.44425 -9.5103L4.32938 -8.99111L4.34145 -7.91622L4.34949 -6.84131L3.42414 -6.30183L2.49883 -5.76641L1.57348 -6.30588L0.64817 -6.84536L0.656209 -7.91622L0.668283 -8.99111L1.55337 -9.5103C2.04019 -9.79423 2.46664 -10.0254 2.49883 -10.0254C2.53101 -10.0254 2.95746 -9.79423 3.44425 -9.5103ZM7.38697 -9.5103L8.27207 -8.99111L8.28414 -7.91622L8.29218 -6.84131L7.36686 -6.30183L6.44152 -5.76641L5.5162 -6.30183L4.59086 -6.84131L4.59891 -7.91622L4.61097 -8.99111L5.49609 -9.5103C5.98288 -9.79423 6.40934 -10.0254 6.44152 -10.0254C6.4737 -10.0254 6.90015 -9.79423 7.38697 -9.5103ZM11.3297 -9.5103L12.2148 -8.99111L12.2269 -7.91622L12.2349 -6.84131L11.3096 -6.30183L10.3842 -5.76641L9.45889 -6.30183L8.53359 -6.84131L8.54162 -7.91622L8.5537 -8.99111L9.43878 -9.5103C9.9256 -9.79423 10.3521 -10.0254 10.3842 -10.0254C10.4164 -10.0254 10.8429 -9.79423 11.3297 -9.5103ZM15.2724 -9.5103L16.1575 -8.99111L16.1695 -7.91622L16.1776 -6.84131L15.2523 -6.30183L14.327 -5.76641L13.4016 -6.30183L12.4763 -6.84131L12.4843 -7.91622L12.4964 -8.99111L13.3815 -9.5103C13.8682 -9.79423 14.2947 -10.0254 14.327 -10.0254C14.3591 -10.0254 14.7856 -9.79423 15.2724 -9.5103ZM19.2151 -9.5103L20.1002 -8.99111L20.1123 -7.91622L20.1203 -6.84536L19.195 -6.30588L18.2697 -5.76641L17.3443 -6.30183L16.419 -6.84131L16.427 -7.91622L16.4391 -8.99111L17.3242 -9.5103C17.8111 -9.79423 18.2374 -10.0295 18.2697 -10.0295C18.3019 -10.0254 18.7283 -9.79423 19.2151 -9.5103ZM23.1579 -9.5103L24.0428 -8.99111L24.055 -7.91622L24.0631 -6.84536L23.1378 -6.30588L22.2124 -5.76641L21.287 -6.30183L20.3617 -6.84131L20.3697 -7.91622L20.3818 -8.99111L21.2669 -9.5103C21.7538 -9.79423 22.1802 -10.0295 22.2124 -10.0295C22.2446 -10.0254 22.6711 -9.79423 23.1579 -9.5103ZM-6.42056 -6.07468L-5.5073 -5.54736V-4.47246V-3.39756L-6.43263 -2.86214L-7.35393 -2.32672L-8.28329 -2.86214L-9.20861 -3.39756V-4.47246V-5.54736L-8.29134 -6.0828C-7.78844 -6.37484 -7.366 -6.61416 -7.35393 -6.6101C-7.34186 -6.60605 -6.91943 -6.36674 -6.42056 -6.07468ZM-2.47784 -6.07468L-1.56459 -5.54736V-4.47246V-3.39756L-2.48991 -2.86214L-3.41122 -2.32672L-4.34057 -2.86214L-5.2659 -3.39756V-4.47246L-5.26188 -5.54736L-4.34862 -6.0828C-3.84572 -6.37484 -3.42329 -6.6101 -3.41122 -6.6101C-3.39916 -6.60605 -2.97673 -6.36674 -2.47784 -6.07468ZM1.46485 -6.07468L2.37812 -5.54736V-4.47246V-3.39756L1.45278 -2.86214L0.5315 -2.32672L-0.39788 -2.86214L-1.32319 -3.39756V-4.47246L-1.31919 -5.54736L-0.405916 -6.0828C0.0969809 -6.37484 0.519427 -6.6101 0.5315 -6.6101C0.543545 -6.60605 0.965989 -6.36674 1.46485 -6.07468ZM5.40757 -6.07468L6.32085 -5.54736V-4.47246V-3.39756L5.39551 -2.86214L4.47019 -2.32266L3.54485 -2.86214L2.61949 -3.39756V-4.47246L2.62353 -5.54736L3.5368 -6.0828C4.0397 -6.37484 4.46212 -6.6101 4.47419 -6.6101C4.48626 -6.60605 4.90468 -6.36674 5.40757 -6.07468ZM9.3503 -6.07468L10.2635 -5.54736V-4.47246V-3.39756L9.33822 -2.86214L8.41288 -2.32266L7.48756 -2.86214L6.56222 -3.39756V-4.47246V-5.54736L7.47949 -6.07874C7.98239 -6.37484 8.40485 -6.6101 8.41692 -6.60605C8.42899 -6.60605 8.8474 -6.36674 9.3503 -6.07468ZM13.293 -6.07468L14.2062 -5.54736V-4.47246V-3.39756L13.2809 -2.86214L12.3556 -2.32266L11.4303 -2.86214L10.5049 -3.39756V-4.47246V-5.54736L11.4222 -6.07874C11.9251 -6.37484 12.3475 -6.6101 12.3596 -6.60605C12.3717 -6.60605 12.7901 -6.36674 13.293 -6.07468ZM17.2357 -6.07468L18.145 -5.54736L18.1489 -4.47246V-3.39756L17.2236 -2.86214L16.2983 -2.32266L15.373 -2.86214L14.4477 -3.39756V-4.47246V-5.54736L15.3649 -6.07874C15.8678 -6.37484 16.2902 -6.6101 16.3023 -6.60605C16.3144 -6.60605 16.7368 -6.36674 17.2357 -6.07468ZM21.1784 -6.07468L22.0877 -5.54736L22.0916 -4.47246V-3.39756L21.1663 -2.86214L20.237 -2.32672L19.3156 -2.86214L18.3904 -3.39756V-4.47246V-5.54736L19.3076 -6.0828C19.8105 -6.37484 20.2329 -6.6101 20.245 -6.6101C20.2571 -6.60605 20.6796 -6.36674 21.1784 -6.07468ZM25.1212 -6.07468L26.0302 -5.54736L26.0345 -4.47246V-3.39756L25.109 -2.86214L24.1797 -2.32672L23.2586 -2.86214L22.333 -3.39756V-4.47246V-5.54736L23.2503 -6.0828C23.7533 -6.37484 24.1758 -6.6101 24.1877 -6.6101C24.1999 -6.60605 24.6224 -6.36674 25.1212 -6.07468ZM29.0678 -6.07468L29.9772 -5.54736V-4.47246V-3.39756L29.0516 -2.86214L28.1224 -2.32672L27.2011 -2.86214L26.2757 -3.39756V-4.47246V-5.54736L27.1929 -6.0828C27.696 -6.37484 28.1185 -6.6101 28.1344 -6.6101C28.1506 -6.60605 28.573 -6.36674 29.0678 -6.07468ZM-8.39996 -2.63905L-7.47865 -2.10362V-1.02467L-7.48267 0.0502348L-8.40398 0.585658L-9.32931 1.11702L-10.2466 0.581595L-11.1598 0.0502348L-11.1719 -1.02874L-11.1799 -2.10362L-10.2667 -2.63905C-9.7598 -2.9311 -9.34542 -3.17447 -9.33735 -3.17447C-9.32931 -3.17447 -8.91091 -2.9311 -8.39996 -2.63905ZM-4.46128 -2.63905L-3.53595 -2.09958V-1.02467L-3.53996 0.0502348L-4.4653 0.585658L-5.38661 1.11702L-6.30389 0.581595L-7.21715 0.0502348L-7.22922 -1.02467L-7.23727 -2.09958L-6.324 -2.63499C-5.81708 -2.9311 -5.40269 -3.17041 -5.39464 -3.17041C-5.39062 -3.17447 -4.96819 -2.9311 -4.46128 -2.63905ZM-0.518549 -2.63905L0.406764 -2.09958V-1.02467L0.402758 0.0502348L-0.522584 0.585658L-1.44389 1.11702L-2.36117 0.581595L-3.27444 0.0502348L-3.28651 -1.02467L-3.29455 -2.09958L-2.38128 -2.63499C-1.87438 -2.9311 -1.45998 -3.17041 -1.45194 -3.17041C-1.44793 -3.17447 -1.02549 -2.9311 -0.518549 -2.63905ZM3.42414 -2.63905L4.34949 -2.09958V-1.02467L4.34545 0.0502348L3.42013 0.585658L2.49883 1.11702L1.58152 0.581595L0.668283 0.0502348L0.656209 -1.02467L0.64817 -2.09958L1.56141 -2.63499C2.06834 -2.9311 2.48272 -3.17041 2.49075 -3.17041C2.49479 -3.17447 2.91724 -2.9311 3.42414 -2.63905ZM7.36686 -2.63905L8.29218 -2.09958L8.28414 -1.02467L8.27207 0.0502348L7.35882 0.581595L6.44152 1.11702L5.52827 0.581595L4.61097 0.0502348L4.59891 -1.02467L4.59086 -2.09958L5.50413 -2.63499C6.01106 -2.9311 6.42544 -3.17041 6.43348 -3.17041C6.43752 -3.17447 6.85993 -2.9311 7.36686 -2.63905ZM11.3096 -2.63905L12.2349 -2.09958L12.2269 -1.02467L12.2148 0.0502348L11.3015 0.581595L10.3842 1.11702L9.47097 0.581595L8.5537 0.0502348L8.54162 -1.02467L8.53359 -2.09958L9.44685 -2.63499C9.95376 -2.9311 10.3681 -3.17041 10.3762 -3.17041C10.3802 -3.17447 10.8026 -2.9311 11.3096 -2.63905ZM15.2523 -2.63905L16.1776 -2.09958L16.1695 -1.02467L16.1575 0.0502348L15.2443 0.581595L14.327 1.11702L13.4137 0.581595L12.4964 0.0502348L12.4843 -1.02467L12.4763 -2.09958L13.3895 -2.63499C13.8965 -2.9311 14.3108 -3.17041 14.3189 -3.17041C14.3229 -3.17447 14.7453 -2.9311 15.2523 -2.63905ZM19.195 -2.63905L20.1203 -2.09958L20.1123 -1.02467L20.1002 0.0502348L19.187 0.581595L18.2697 1.11702L17.3484 0.585658L16.4231 0.0502348L16.419 -1.02467V-2.09958L17.3363 -2.63499C17.8392 -2.9311 18.2536 -3.17041 18.2616 -3.17041C18.2656 -3.17447 18.688 -2.9311 19.195 -2.63905ZM23.1378 -2.63905L24.0631 -2.09958L24.055 -1.02467L24.0428 0.0502348L23.1296 0.581595L22.2124 1.11702L21.2911 0.585658L20.3658 0.0502348L20.3617 -1.02467V-2.09958L21.279 -2.63499C21.7819 -2.9311 22.1963 -3.17041 22.2043 -3.17041C22.2083 -3.17447 22.6307 -2.9311 23.1378 -2.63905ZM27.0804 -2.63905L28.0056 -2.09958L27.9977 -1.02467L27.9855 0.0502348L27.0725 0.581595L26.1552 1.11702L25.2337 0.585658L24.3085 0.0502348L24.3045 -1.02467V-2.09958L25.2217 -2.63499C25.7245 -2.9311 26.139 -3.17041 26.1469 -3.17041C26.151 -3.17447 26.5733 -2.9311 27.0804 -2.63905ZM31.031 -2.63905L31.9483 -2.10362L31.9403 -1.02874L31.9285 0.0502348L31.0151 0.581595L30.0979 1.11702L29.1723 0.585658L28.2511 0.0502348L28.2471 -1.02467V-2.10362L29.1644 -2.63499C29.6672 -2.9311 30.0857 -3.17041 30.0939 -3.17447C30.1018 -3.17447 30.5243 -2.93515 31.031 -2.63905ZM-10.3271 0.829024L-9.45001 1.34013L-9.45805 2.41504L-9.47012 3.49398L-10.3552 4.00911C-10.8421 4.29711 -11.2685 4.52832 -11.3007 4.52832C-11.3329 4.52832 -11.7593 4.29305 -12.2461 4.00911L-13.1312 3.48992L-13.1433 2.41098L-13.1514 1.33607L-12.2381 0.804707C-11.7311 0.512651 -11.2966 0.281442 -11.2645 0.293601C-11.2323 0.305787 -10.8138 0.545092 -10.3271 0.829024ZM-6.42458 0.804707L-5.5073 1.34013L-5.51533 2.41504L-5.52741 3.49398L-6.41251 4.00911C-6.89931 4.29711 -7.32576 4.52832 -7.35796 4.52832C-7.39014 4.52832 -7.81659 4.29305 -8.3034 4.00911L-9.1885 3.48992L-9.20057 2.41504L-9.20861 1.34013L-8.29535 0.808741C-7.78843 0.512651 -7.37003 0.273318 -7.36198 0.273318C-7.35393 0.273318 -6.93149 0.512651 -6.42458 0.804707ZM-2.48188 0.804707L-1.56459 1.34013L-1.57263 2.41504L-1.58471 3.49398L-2.4698 4.00911C-2.95662 4.29711 -3.38306 4.52832 -3.41524 4.52832C-3.44744 4.52832 -3.87389 4.29305 -4.36069 4.00911L-5.24579 3.48992L-5.25785 2.41504L-5.2659 1.34013L-4.35264 0.808741C-3.84573 0.512651 -3.42732 0.273318 -3.41927 0.273318C-3.41123 0.273318 -2.9888 0.512651 -2.48188 0.804707ZM1.46085 0.804707L2.37812 1.34013L2.37009 2.41504L2.35801 3.49398L1.47292 4.00911C0.986104 4.29711 0.559652 4.52832 0.527467 4.52832C0.495281 4.52832 0.0688278 4.29305 -0.41799 4.00911L-1.30308 3.48992L-1.31515 2.41504L-1.32319 1.34013L-0.409952 0.808741C0.0969804 0.512651 0.515393 0.273318 0.523433 0.273318C0.5315 0.273318 0.953917 0.512651 1.46085 0.804707ZM5.40354 0.804707L6.32085 1.34013L6.31278 2.41504L6.30071 3.48992L5.41562 4.00911C4.92883 4.29305 4.50237 4.52832 4.47019 4.52832C4.43801 4.52832 4.01152 4.29305 3.52473 4.00911L2.63964 3.48992L2.62757 2.41504L2.61949 1.34013L3.53278 0.808741C4.0397 0.512651 4.45812 0.273318 4.46615 0.273318C4.47419 0.273318 4.89664 0.512651 5.40354 0.804707ZM9.34626 0.804707L10.2635 1.34013L10.2555 2.41504L10.2434 3.48992L9.35833 4.00911C8.87152 4.29305 8.44506 4.52832 8.41288 4.52832C8.3807 4.52832 7.95425 4.29305 7.46742 4.00911L6.58233 3.48992L6.57026 2.41504L6.56222 1.34013L7.47549 0.808741C7.98239 0.512651 8.40081 0.273318 8.40885 0.273318C8.41691 0.273318 8.83933 0.512651 9.34626 0.804707ZM13.289 0.804707L14.2062 1.34013L14.1982 2.41504L14.1861 3.48992L13.301 4.00911C12.8143 4.29305 12.3878 4.52832 12.3556 4.52832C12.3234 4.52832 11.897 4.29305 11.4101 4.00911L10.5251 3.48992L10.513 2.41504L10.5049 1.34013L11.4182 0.808741C11.9251 0.512651 12.3435 0.273318 12.3516 0.273318C12.3596 0.273318 12.7821 0.512651 13.289 0.804707ZM17.2316 0.804707L18.1489 1.34013L18.1409 2.41504L18.1288 3.48992L17.2437 4.00911C16.757 4.29305 16.3305 4.52832 16.2983 4.52832C16.2662 4.52832 15.8397 4.29305 15.3529 4.00911L14.4677 3.48992L14.4557 2.41504L14.4477 1.34013L15.3609 0.808741C15.8678 0.512651 16.2862 0.273318 16.2943 0.273318C16.3023 0.273318 16.7248 0.512651 17.2316 0.804707ZM21.1744 0.804707L22.0916 1.34013L22.0836 2.41504L22.0715 3.48992L21.1864 4.00911C20.6997 4.29305 20.2732 4.52832 20.241 4.52832C20.2089 4.52832 19.7824 4.29711 19.2956 4.00911L18.4105 3.49398L18.3984 2.41504L18.3904 1.34013L19.3036 0.808741C19.8105 0.512651 20.229 0.273318 20.237 0.273318C20.245 0.273318 20.6675 0.512651 21.1744 0.804707ZM25.1171 0.804707L26.0345 1.34013L26.0262 2.41504L26.0143 3.48992L25.1291 4.00911C24.6423 4.29305 24.2159 4.52832 24.1838 4.52832C24.1517 4.52832 23.725 4.29711 23.2383 4.00911L22.3531 3.49398L22.3412 2.41504L22.333 1.34013L23.2463 0.808741C23.7533 0.512651 24.1716 0.273318 24.1797 0.273318C24.1877 0.273318 24.6102 0.512651 25.1171 0.804707ZM29.0598 0.804707L29.9772 1.34013L29.9689 2.41504L29.9569 3.48992L29.0718 4.00911C28.5852 4.29305 28.1585 4.52832 28.1264 4.52832C28.0943 4.52832 27.6679 4.29711 27.181 4.00911L26.2958 3.49398L26.2839 2.41504L26.2757 1.34013L27.1889 0.808741C27.696 0.512651 28.1145 0.273318 28.1224 0.273318C28.1303 0.273318 28.5527 0.512651 29.0598 0.804707ZM33.0429 0.829024L33.9198 1.33607L33.9118 2.41098L33.8996 3.48992L33.0144 4.00911C32.5278 4.29305 32.1014 4.52832 32.0691 4.52832C32.037 4.52832 31.6106 4.29711 31.1236 4.00911L30.2385 3.49398L30.2265 2.41504L30.2186 1.34013L31.1316 0.804707C31.6506 0.504527 32.073 0.281444 32.1094 0.297664C32.1415 0.30985 32.564 0.549155 33.0429 0.829024ZM-12.3386 4.24439L-11.4415 4.77168V5.85066V6.92963L-12.3467 7.45693C-12.8415 7.74898 -13.276 7.97613 -13.3122 7.96801C-13.3444 7.95584 -13.7629 7.72058 -14.2376 7.44071L-15.1025 6.93366V5.85066V4.76765L-14.2174 4.24845C-13.7307 3.96045 -13.3122 3.72518 -13.2841 3.72518C-13.26 3.72112 -12.8335 3.95639 -12.3386 4.24439ZM-8.39593 4.24439L-7.49876 4.77168V5.85066V6.92963L-8.39593 7.45693C-8.89078 7.74492 -9.30919 7.98019 -9.32527 7.98019C-9.34542 7.98019 -9.76784 7.74086 -10.2667 7.44884L-11.1799 6.91744V5.85066V4.78387L-10.2828 4.25655C-9.79198 3.96452 -9.36953 3.72924 -9.34138 3.72518C-9.31724 3.72112 -8.89078 3.95639 -8.39593 4.24439ZM-4.45323 4.24439L-3.55606 4.77168V5.85066V6.92963L-4.45323 7.45693C-4.94808 7.74492 -5.36649 7.98019 -5.38258 7.98019C-5.40269 7.98019 -5.82513 7.74086 -6.324 7.44884L-7.23727 6.91744V5.85066V4.78387L-6.34009 4.25655C-5.84927 3.96452 -5.42684 3.72924 -5.39867 3.72518C-5.37453 3.72112 -4.94808 3.95639 -4.45323 4.24439ZM-0.510512 4.24439L0.386651 4.77168V5.85066V6.92963L-0.510512 7.45693C-1.00536 7.74492 -1.42378 7.98019 -1.43985 7.98019C-1.45998 7.98019 -1.88242 7.74086 -2.38128 7.44884L-3.29455 6.91744V5.85066V4.78387L-2.39739 4.25655C-1.90656 3.96452 -1.48412 3.72924 -1.45596 3.72518C-1.43182 3.72112 -1.00536 3.95639 -0.510512 4.24439ZM3.43218 4.24439L4.32938 4.77168V5.85066V6.92963L3.43218 7.45693C2.93735 7.74492 2.51893 7.98019 2.50284 7.98019C2.48272 7.98019 2.0603 7.74086 1.56141 7.44884L0.64817 6.91744V5.85066V4.78387L1.54533 4.25655C2.03616 3.96452 2.45857 3.72924 2.48675 3.72518C2.5109 3.72112 2.93735 3.95639 3.43218 4.24439ZM7.3749 4.24439L8.27207 4.77168V5.85066V6.92963L7.3749 7.45693C6.88004 7.74492 6.45763 7.98019 6.44152 7.98019C6.42544 7.98019 6.00299 7.74492 5.50814 7.45693L4.61097 6.92963V5.85066V4.77168L5.49609 4.24845C5.98288 3.96452 6.4013 3.72518 6.42945 3.72518C6.45359 3.72112 6.88004 3.95639 7.3749 4.24439ZM11.3176 4.24439L12.2148 4.77168V5.85066V6.92963L11.3176 7.45693C10.8228 7.74492 10.4003 7.98019 10.3842 7.98019C10.3681 7.98019 9.94571 7.74492 9.45086 7.45693L8.5537 6.92963V5.85066V4.77168L9.43878 4.24845C9.9256 3.96452 10.344 3.72518 10.3722 3.72518C10.3963 3.72112 10.8228 3.95639 11.3176 4.24439ZM15.2603 4.24439L16.1575 4.77168V5.85066V6.92963L15.2603 7.45693C14.7654 7.74492 14.343 7.98019 14.327 7.98019C14.3109 7.98019 13.8884 7.74492 13.3936 7.45693L12.4964 6.92963V5.85066V4.77168L13.3815 4.24845C13.8682 3.96452 14.2867 3.72518 14.3149 3.72518C14.3391 3.72112 14.7654 3.95639 15.2603 4.24439ZM19.2071 4.25251L20.1203 4.78387V5.85066V6.91744L19.2071 7.44884C18.7081 7.74086 18.2857 7.98019 18.2656 7.98019C18.2495 7.98019 17.8311 7.74492 17.3363 7.45693L16.4391 6.92963V5.85066V4.77168L17.3242 4.24845C17.8111 3.96452 18.2294 3.72518 18.2536 3.72518C18.2777 3.72112 18.7081 3.96045 19.2071 4.25251ZM23.1497 4.25251L24.0631 4.78387V5.85066V6.91744L23.1497 7.44884C22.6508 7.74086 22.2284 7.98019 22.2083 7.98019C22.1922 7.98019 21.7739 7.74492 21.279 7.45693L20.3818 6.92963V5.85066V4.77168L21.2669 4.24845C21.7538 3.96452 22.1721 3.72518 22.1963 3.72518C22.2204 3.72112 22.6508 3.96045 23.1497 4.25251ZM27.0924 4.25251L28.0056 4.78387V5.85066V6.91744L27.0924 7.44884C26.5936 7.74086 26.1711 7.98019 26.1509 7.98019C26.1351 7.98019 25.7166 7.74492 25.2217 7.45693L24.3246 6.92963V5.85066V4.77168L25.2095 4.24845C25.6965 3.96452 26.1148 3.72518 26.139 3.72518C26.1632 3.72112 26.5936 3.96045 27.0924 4.25251ZM31.0353 4.25251L31.9483 4.78387V5.85066V6.91744L31.0353 7.44884C30.5361 7.74086 30.1138 7.98019 30.0939 7.98019C30.0777 7.98019 29.6593 7.74492 29.1644 7.45693L28.2673 6.92963V5.85066V4.77168L29.1524 4.24845C29.6391 3.96452 30.0575 3.72518 30.0817 3.72518C30.1058 3.72112 30.5361 3.96045 31.0353 4.25251ZM34.978 4.24439L35.8712 4.76765V5.85066V6.93366L35.0061 7.44071C34.5314 7.72058 34.1129 7.95584 34.0806 7.96801C34.0446 7.97613 33.6099 7.74898 33.115 7.45693L32.2099 6.92963V5.85066V4.77168L33.0951 4.24845C33.5818 3.96452 34.0042 3.72518 34.0326 3.72518C34.0568 3.72112 34.4831 3.95639 34.978 4.24439ZM-10.3552 7.6922L-9.47012 8.20733L-9.45805 9.28628L-9.45001 10.3612L-10.3431 10.8844C-10.838 11.1684 -11.2685 11.4036 -11.3007 11.4036C-11.3329 11.4036 -11.7633 11.1724 -12.2581 10.8844L-13.1514 10.3652L-13.1433 9.29034L-13.1312 8.21139L-12.2461 7.6922C-11.7593 7.40827 -11.3329 7.17299 -11.3007 7.17299C-11.2685 7.17299 -10.8421 7.4042 -10.3552 7.6922ZM-6.41251 7.6922L-5.52741 8.20733L-5.51533 9.28628L-5.5073 10.3612L-6.43263 10.8966L-7.35796 11.4361L-8.28329 10.8966L-9.20861 10.3612L-9.20057 9.28628L-9.1885 8.21139L-8.3034 7.6922C-7.81659 7.40827 -7.39014 7.17299 -7.35796 7.17299C-7.32576 7.17299 -6.89931 7.4042 -6.41251 7.6922ZM-2.4698 7.6922L-1.58471 8.20733L-1.57263 9.28628L-1.56459 10.3612L-2.48991 10.8966L-3.41524 11.4361L-4.34057 10.8966L-5.2659 10.3612L-5.25785 9.28628L-5.24579 8.21139L-4.36069 7.6922C-3.87389 7.40827 -3.44744 7.17299 -3.41524 7.17299C-3.38306 7.17299 -2.95662 7.4042 -2.4698 7.6922ZM1.47292 7.6922L2.35801 8.20733L2.37009 9.28628L2.37812 10.3612L1.45278 10.8966L0.527467 11.4361L-0.39788 10.8966L-1.32319 10.3612L-1.31515 9.28628L-1.30308 8.21139L-0.41799 7.6922C0.0688278 7.40827 0.495281 7.17299 0.527467 7.17299C0.559652 7.17299 0.986104 7.4042 1.47292 7.6922ZM5.41562 7.6922L6.30071 8.21139L6.31278 9.28628L6.32085 10.3612L5.39551 10.8966L4.47019 11.4361L3.54485 10.8966L2.61949 10.3612L2.62757 9.28628L2.63964 8.21139L3.52473 7.6922C4.01152 7.40827 4.43801 7.17299 4.47019 7.17299C4.50237 7.17299 4.92883 7.40827 5.41562 7.6922ZM9.35833 7.6922L10.2434 8.21139L10.2555 9.28628L10.2635 10.3612L9.33822 10.8966L8.41288 11.4361L7.48756 10.8966L6.56222 10.3612L6.57026 9.28628L6.58233 8.21139L7.46742 7.6922C7.95425 7.40827 8.3807 7.17299 8.41288 7.17299C8.44506 7.17299 8.87152 7.40827 9.35833 7.6922ZM13.301 7.6922L14.1861 8.21139L14.1982 9.28628L14.2062 10.3612L13.2809 10.8966L12.3556 11.4361L11.4303 10.8966L10.5049 10.3612L10.513 9.28628L10.5251 8.21139L11.4101 7.6922C11.897 7.40827 12.3234 7.17299 12.3556 7.17299C12.3878 7.17299 12.8143 7.40827 13.301 7.6922ZM17.2437 7.6922L18.1288 8.21139L18.1409 9.28628L18.1489 10.3612L17.2236 10.8966L16.2983 11.4361L15.373 10.8966L14.4477 10.3612L14.4557 9.28628L14.4677 8.21139L15.3529 7.6922C15.8397 7.40827 16.2662 7.17299 16.2983 7.17299C16.3305 7.17299 16.757 7.40827 17.2437 7.6922ZM21.1864 7.6922L22.0715 8.21139L22.0836 9.28628L22.0916 10.3612L21.1663 10.8966L20.241 11.4361L19.3156 10.8966L18.3904 10.3612L18.3984 9.28628L18.4105 8.20733L19.2956 7.6922C19.7824 7.4042 20.2089 7.17299 20.241 7.17299C20.2732 7.17299 20.6997 7.40827 21.1864 7.6922ZM25.1291 7.6922L26.0143 8.21139L26.0262 9.28628L26.0345 10.3612L25.109 10.8966L24.1838 11.4361L23.2586 10.8966L22.333 10.3612L22.3412 9.28628L22.3531 8.20733L23.2383 7.6922C23.725 7.4042 24.1517 7.17299 24.1838 7.17299C24.2159 7.17299 24.6423 7.40827 25.1291 7.6922ZM29.0718 7.6922L29.9569 8.21139L29.9689 9.28628L29.9772 10.3612L29.0516 10.8966L28.1264 11.4361L27.2011 10.8966L26.2757 10.3612L26.2839 9.28628L26.2958 8.20733L27.181 7.6922C27.6679 7.4042 28.0943 7.17299 28.1264 7.17299C28.1585 7.17299 28.5852 7.40827 29.0718 7.6922ZM33.0144 7.6922L33.8996 8.21139L33.9118 9.29034L33.9198 10.3652L33.0266 10.8844C32.5319 11.1724 32.1014 11.4036 32.0691 11.4036C32.037 11.4036 31.6066 11.1684 31.1117 10.8844L30.2186 10.3612L30.2265 9.28628L30.2385 8.20733L31.1236 7.6922C31.6106 7.4042 32.037 7.17299 32.0691 7.17299C32.1014 7.17299 32.5278 7.40827 33.0144 7.6922ZM-8.39191 11.1238L-7.48267 11.6511L-7.47865 12.7259V13.8049L-8.40398 14.3404L-9.33335 14.8798L-10.2587 14.3444L-11.1799 13.8049L-11.1719 12.73L-11.1598 11.6511L-10.2547 11.1197C-9.75576 10.8236 -9.34138 10.5883 -9.32931 10.5924C-9.31323 10.5924 -8.89481 10.8317 -8.39191 11.1238ZM-4.4492 11.1238L-3.53996 11.6511L-3.53595 12.7259V13.8009L-4.46128 14.3404L-5.38661 14.8758L-6.31194 14.3404L-7.23727 13.8009L-7.22922 12.7259L-7.21715 11.6511L-6.31194 11.1197C-5.81306 10.8236 -5.39867 10.5883 -5.38661 10.5924C-5.37453 10.5924 -4.95209 10.8317 -4.4492 11.1238ZM-0.506476 11.1238L0.402758 11.6511L0.406764 12.7259V13.8009L-0.518549 14.3404L-1.44389 14.8758L-2.36921 14.3404L-3.29455 13.8009L-3.28651 12.7259L-3.27444 11.6511L-2.36921 11.1197C-1.87034 10.8236 -1.45596 10.5883 -1.44389 10.5924C-1.43182 10.5924 -1.00938 10.8317 -0.506476 11.1238ZM3.43622 11.1238L4.34545 11.6511L4.34949 12.7259V13.8009L3.42414 14.3404L2.49883 14.8758L1.57348 14.3404L0.64817 13.8009L0.656209 12.7259L0.668283 11.6511L1.57348 11.1197C2.07237 10.8236 2.48675 10.5883 2.49883 10.5924C2.5109 10.5924 2.93332 10.8317 3.43622 11.1238ZM7.35075 11.1157L8.27207 11.6511L8.28414 12.7259L8.29218 13.8009L7.36686 14.3404L6.44152 14.8758L5.5162 14.3404L4.59086 13.8009L4.59891 12.7259L4.61097 11.6511L5.5162 11.1197C6.01507 10.8236 6.42141 10.5843 6.42544 10.5802C6.42944 10.5762 6.84385 10.8195 7.35075 11.1157ZM11.2935 11.1157L12.2148 11.6511L12.2269 12.7259L12.2349 13.8009L11.3096 14.3404L10.3842 14.8758L9.45889 14.3404L8.53359 13.8009L8.54162 12.7259L8.5537 11.6511L9.45889 11.1197C9.95778 10.8236 10.3641 10.5843 10.3681 10.5802C10.3722 10.5762 10.7865 10.8195 11.2935 11.1157ZM15.2363 11.1157L16.1575 11.6511L16.1695 12.7259L16.1776 13.8009L15.2523 14.3404L14.327 14.8758L13.4016 14.3404L12.4763 13.8009L12.4843 12.7259L12.4964 11.6511L13.4016 11.1197C13.9005 10.8236 14.3068 10.5843 14.3109 10.5802C14.3149 10.5762 14.7293 10.8195 15.2363 11.1157ZM19.1788 11.1157L20.1002 11.6511L20.1123 12.7259L20.1203 13.8009L19.195 14.3404L18.2697 14.8758L17.3443 14.3404L16.419 13.8009V12.7259L16.4231 11.6511L17.3363 11.1197C17.8392 10.8236 18.2495 10.5843 18.2536 10.5802C18.2576 10.5762 18.672 10.8195 19.1788 11.1157ZM23.1215 11.1157L24.0428 11.6511L24.055 12.7259L24.0631 13.8009L23.1378 14.3404L22.2124 14.8758L21.287 14.3404L20.3617 13.8009V12.7259L20.3658 11.6511L21.279 11.1197C21.7819 10.8236 22.1922 10.5843 22.1963 10.5802C22.2003 10.5762 22.6148 10.8195 23.1215 11.1157ZM27.0642 11.1157L27.9855 11.6511L27.9977 12.7259L28.0056 13.8009L27.0804 14.3404L26.1552 14.8758L25.2297 14.3404L24.3045 13.8009V12.7259L24.3085 11.6511L25.2217 11.1197C25.7245 10.8236 26.1351 10.5843 26.139 10.5802C26.143 10.5762 26.5575 10.8195 27.0642 11.1157ZM31.007 11.1157L31.9285 11.6511L31.9403 12.73L31.9483 13.8049L31.0271 14.3444L30.1019 14.8798L29.1723 14.3404L28.2471 13.8049V12.7259L28.2511 11.6511L29.1644 11.1197C29.6672 10.8236 30.0777 10.5843 30.0817 10.5802C30.0857 10.5762 30.5001 10.8195 31.007 11.1157ZM-6.41653 14.5715L-5.5073 15.0988V16.1738V17.2487L-6.43665 17.7842L-7.36198 18.3236L-8.2873 17.7842L-9.20861 17.2487V16.1738V15.0988L-8.29134 14.5635C-7.78844 14.2714 -7.36599 14.0321 -7.34991 14.0361C-7.33784 14.0402 -6.91541 14.2796 -6.41653 14.5715ZM-2.47384 14.5715L-1.56459 15.0988V16.1738V17.2487L-2.48991 17.7842L-3.41524 18.3195L-4.34057 17.7842L-5.26188 17.2487L-5.2659 16.1738V15.0988L-4.34862 14.5635C-3.84572 14.2714 -3.42329 14.0321 -3.40719 14.0361C-3.39513 14.0402 -2.97269 14.2796 -2.47384 14.5715ZM1.46889 14.5715L2.37812 15.0988V16.1738V17.2487L1.45278 17.7842L0.527467 18.3195L-0.39788 17.7842L-1.31919 17.2487L-1.32319 16.1738V15.0988L-0.405916 14.5635C0.0969809 14.2714 0.519426 14.0321 0.535505 14.0361C0.547578 14.0402 0.970024 14.2796 1.46889 14.5715ZM5.41161 14.5715L6.32085 15.0988V16.1738V17.2487L5.39551 17.7842L4.47019 18.3154L3.54485 17.7842L2.62353 17.2487L2.61949 16.1738V15.0988L3.5368 14.5635C4.0397 14.2714 4.46212 14.0321 4.47823 14.0361C4.4903 14.0402 4.91272 14.2796 5.41161 14.5715ZM9.3543 14.5715L10.2635 15.0988V16.1738V17.2487L9.33822 17.7842L8.41288 18.3154L7.48756 17.7842L6.56222 17.2487V16.1738V15.0988L7.47949 14.5635C7.98239 14.2714 8.40485 14.0321 8.42092 14.0361C8.43299 14.0402 8.85544 14.2796 9.3543 14.5715ZM13.2971 14.5715L14.2062 15.0988V16.1738V17.2487L13.2809 17.7842L12.3556 18.3154L11.4303 17.7842L10.5049 17.2487V16.1738V15.0988L11.4222 14.5635C11.9251 14.2714 12.3475 14.0321 12.3636 14.0361C12.3757 14.0402 12.7981 14.2796 13.2971 14.5715ZM17.2398 14.5715L18.1489 15.0988V16.1738L18.145 17.2487L17.2236 17.7842L16.2983 18.3154L15.373 17.7842L14.4477 17.2487V16.1738V15.0988L15.3649 14.5635C15.8678 14.2714 16.2902 14.0321 16.3064 14.0361C16.3184 14.0402 16.7408 14.2796 17.2398 14.5715ZM21.1825 14.5715L22.0916 15.0988V16.1738L22.0877 17.2487L21.1663 17.7842L20.241 18.3195L19.3156 17.7842L18.3904 17.2487V16.1738V15.0988L19.3076 14.5635C19.8105 14.2714 20.2329 14.0321 20.245 14.0361C20.2611 14.0402 20.6796 14.2796 21.1825 14.5715ZM25.1252 14.5715L26.0345 15.0988V16.1738L26.0302 17.2487L25.109 17.7842L24.1838 18.3195L23.2586 17.7842L22.333 17.2487V16.1738V15.0988L23.2503 14.5635C23.7533 14.2714 24.1758 14.0321 24.1877 14.0361C24.2039 14.0402 24.6224 14.2796 25.1252 14.5715ZM29.0678 14.5715L29.9772 15.0988V16.1738V17.2487L29.0559 17.7842L28.1303 18.3236L27.2051 17.7842L26.2757 17.2487V16.1738V15.0988L27.1929 14.5635C27.696 14.2714 28.1185 14.0321 28.1303 14.0361C28.1466 14.0402 28.565 14.2796 29.0678 14.5715ZM-4.45323 18.0072L-3.53595 18.5426L-3.54398 19.6175L-3.55606 20.6924L-4.47334 21.2279L-5.39062 21.7633L-6.31194 21.2279L-7.23323 20.6965L-7.23727 19.6216V18.5426L-6.31997 18.0113C-5.81708 17.7152 -5.39867 17.4718 -5.39062 17.4718C-5.38258 17.4718 -4.96014 17.7111 -4.45323 18.0072ZM-0.510512 18.0072L0.406764 18.5426L0.398723 19.6175L0.386651 20.6924L-0.498439 21.2116C-0.985256 21.4955 -1.41171 21.7308 -1.44389 21.7308C-1.47608 21.7267 -1.90254 21.4955 -2.38935 21.2116L-3.27444 20.6924L-3.28651 19.6175L-3.29455 18.5467L-2.38128 18.0113C-1.87438 17.7152 -1.45596 17.4718 -1.44793 17.4718C-1.43985 17.4718 -1.01744 17.7111 -0.510512 18.0072ZM3.43218 18.0072L4.34949 18.5426L4.34145 19.6175L4.32938 20.6924L3.44425 21.2116C2.95746 21.4955 2.53101 21.7308 2.49883 21.7308C2.46664 21.7267 2.04019 21.4955 1.55337 21.2116L0.668283 20.6924L0.656209 19.6175L0.64817 18.5467L1.56141 18.0113C2.06834 17.7152 2.48675 17.4718 2.49479 17.4718C2.50283 17.4718 2.92528 17.7111 3.43218 18.0072ZM7.3709 18.0072L8.29218 18.5426L8.28414 19.6175L8.27207 20.6924L7.38697 21.2116C6.90015 21.4955 6.4737 21.7267 6.44152 21.7267C6.40934 21.7267 5.98288 21.4955 5.49609 21.2116L4.61097 20.6924L4.59891 19.6175L4.59086 18.5426L5.50413 18.0072C6.01106 17.7152 6.42945 17.4758 6.43348 17.4718C6.44152 17.4718 6.86397 17.7111 7.3709 18.0072ZM11.3136 18.0072L12.2349 18.5426L12.2269 19.6175L12.2148 20.6924L11.3297 21.2116C10.8429 21.4955 10.4164 21.7267 10.3842 21.7267C10.3521 21.7267 9.9256 21.4955 9.43878 21.2116L8.5537 20.6924L8.54162 19.6175L8.53359 18.5426L9.44685 18.0072C9.95376 17.7152 10.3722 17.4758 10.3762 17.4718C10.3842 17.4718 10.8067 17.7111 11.3136 18.0072ZM15.2563 18.0072L16.1776 18.5426L16.1695 19.6175L16.1575 20.6924L15.2724 21.2116C14.7856 21.4955 14.3591 21.7267 14.327 21.7267C14.2947 21.7267 13.8682 21.4955 13.3815 21.2116L12.4964 20.6924L12.4843 19.6175L12.4763 18.5426L13.3895 18.0072C13.8965 17.7152 14.3149 17.4758 14.3189 17.4718C14.327 17.4718 14.7494 17.7111 15.2563 18.0072ZM19.199 18.0072L20.1203 18.5467L20.1123 19.6175L20.1002 20.6924L19.2151 21.2116C18.7283 21.4955 18.3019 21.7267 18.2697 21.7267C18.2374 21.7267 17.8111 21.4955 17.3242 21.2116L16.4391 20.6924L16.427 19.6175L16.419 18.5426L17.3322 18.0072C17.8392 17.7152 18.2576 17.4718 18.2656 17.4718C18.2737 17.4718 18.6921 17.7152 19.199 18.0072ZM23.1418 18.0072L24.0631 18.5467L24.055 19.6175L24.0428 20.6924L23.1579 21.2116C22.6711 21.4955 22.2446 21.7267 22.2124 21.7308C22.1802 21.7308 21.7538 21.4955 21.2669 21.2116L20.3818 20.6924L20.3697 19.6175L20.3617 18.5426L21.2749 18.0072C21.7819 17.7152 22.2003 17.4718 22.2083 17.4718C22.2163 17.4718 22.6347 17.7152 23.1418 18.0072ZM27.0844 18.0072L28.0056 18.5426V19.6216L28.0017 20.6965L27.0804 21.2279L26.1591 21.7633L25.2419 21.2279L24.3246 20.6924L24.3124 19.6175L24.3045 18.5426L25.2178 18.0072C25.7245 17.7152 26.143 17.4718 26.1509 17.4718C26.1591 17.4718 26.5776 17.7111 27.0844 18.0072ZM-2.44164 21.4753L-1.56459 21.9823L-1.57263 23.0572L-1.58471 24.1322L-2.47784 24.6555C-2.97269 24.9432 -3.39916 25.1787 -3.42329 25.1746C-3.45145 25.1746 -3.87389 24.9432 -4.36069 24.6555L-5.24579 24.1402L-5.25785 23.0613L-5.2659 21.9823L-4.35264 21.451C-3.82963 21.1467 -3.41123 20.9277 -3.37501 20.9439C-3.34283 20.9561 -2.9204 21.1954 -2.44164 21.4753ZM1.50107 21.4753L2.37812 21.9823L2.37009 23.0572L2.35801 24.1322L1.49303 24.6391C1.01829 24.9191 0.599877 25.1543 0.563686 25.1665C0.5315 25.1746 0.0969802 24.9475 -0.401881 24.6594L-1.30308 24.1322L-1.31515 23.0572L-1.32319 21.9823L-0.409952 21.451C0.113088 21.1467 0.5315 20.9277 0.56769 20.9439C0.599876 20.9561 1.02232 21.1954 1.50107 21.4753ZM5.4438 21.4753L6.32085 21.9823L6.31278 23.0572L6.30071 24.1322L5.40354 24.6555C4.90871 24.9432 4.4903 25.1787 4.47019 25.1787C4.45005 25.1787 4.03166 24.9432 3.5368 24.6555L2.63964 24.1322L2.62757 23.0572L2.61949 21.9823L3.53278 21.451C4.05577 21.1467 4.47419 20.9277 4.51041 20.9439C4.5426 20.9561 4.96502 21.1954 5.4438 21.4753ZM9.38649 21.4753L10.2635 21.9823L10.2555 23.0572L10.2434 24.1322L9.34626 24.6555C8.85141 24.9432 8.43299 25.1787 8.41288 25.1787C8.39277 25.1787 7.97436 24.9432 7.47949 24.6555L6.58233 24.1322L6.57026 23.0572L6.56222 21.9823L7.47549 21.451C7.9985 21.1467 8.41691 20.9277 8.4531 20.9439C8.48528 20.9561 8.90774 21.1954 9.38649 21.4753ZM13.3292 21.4753L14.2062 21.9823L14.1982 23.0572L14.1861 24.1322L13.3211 24.6391C12.8464 24.9191 12.428 25.1543 12.3918 25.1665C12.3596 25.1746 11.9251 24.9475 11.4263 24.6594L10.5251 24.1322L10.513 23.0572L10.5049 21.9823L11.4182 21.451C11.9412 21.1467 12.3596 20.9277 12.3958 20.9439C12.428 20.9561 12.8504 21.1954 13.3292 21.4753ZM17.2719 21.4753L18.1489 21.9823L18.1409 23.0572L18.1288 24.1322L17.2316 24.6555C16.7369 24.9432 16.3184 25.1787 16.2983 25.1787C16.2781 25.1787 15.8598 24.9432 15.3649 24.6555L14.4677 24.1322L14.4557 23.0572L14.4477 21.9823L15.3609 21.451C15.884 21.1467 16.3023 20.9277 16.3385 20.9439C16.3707 20.9561 16.7931 21.1954 17.2719 21.4753ZM21.2146 21.4753L22.0916 21.9823L22.0836 23.0572L22.0715 24.1322L21.1704 24.6594C20.6715 24.9475 20.237 25.1746 20.2048 25.1665C20.1686 25.1543 19.7501 24.9191 19.2755 24.6391L18.4105 24.1322L18.3984 23.0572L18.3904 21.9823L19.3036 21.451C19.8267 21.1467 20.245 20.9277 20.2812 20.9439C20.3134 20.9561 20.7358 21.1954 21.2146 21.4753ZM25.1573 21.4753L26.0345 21.9823L26.0262 23.0613L26.0143 24.1402L25.1291 24.6555C24.6423 24.9432 24.2198 25.1746 24.1917 25.1746C24.1675 25.1787 23.7411 24.9432 23.2463 24.6555L22.3531 24.1322L22.3412 23.0572L22.333 21.9823L23.2463 21.451C23.7693 21.1467 24.1877 20.9277 24.224 20.9439C24.2561 20.9561 24.6785 21.1954 25.1573 21.4753ZM-0.510512 24.8908L0.386651 25.414V26.4969V27.58L-0.510512 28.1033C-1.00536 28.391 -1.42779 28.6263 -1.44389 28.6263C-1.46401 28.6263 -1.88242 28.391 -2.37728 28.1033L-3.27444 27.5758V26.4969V25.414L-2.38935 24.8947C-1.90254 24.6066 -1.48412 24.3715 -1.45596 24.3715C-1.43182 24.3675 -1.00536 24.6027 -0.510512 24.8908ZM3.43218 24.8908L4.32938 25.414V26.4969V27.58L3.43218 28.1033C2.93735 28.391 2.51491 28.6263 2.49883 28.6263C2.47872 28.6263 2.0603 28.391 1.56544 28.1033L0.668283 27.5758V26.4969V25.414L1.55337 24.8947C2.04019 24.6066 2.45857 24.3715 2.48675 24.3715C2.5109 24.3675 2.93735 24.6027 3.43218 24.8908ZM7.3749 24.8908L8.27207 25.414V26.4969V27.5758L7.3749 28.1033C6.88004 28.391 6.46163 28.6263 6.44152 28.6263C6.42141 28.6263 6.00299 28.391 5.50814 28.1033L4.61097 27.5758V26.4969V25.414L5.49609 24.8947C5.98288 24.6066 6.4013 24.3715 6.42945 24.3715C6.45359 24.3675 6.88004 24.6027 7.3749 24.8908ZM11.3176 24.8908L12.2148 25.414V26.4969V27.5758L11.3176 28.1033C10.8228 28.391 10.4044 28.6263 10.3842 28.6263C10.3641 28.6263 9.94571 28.391 9.45086 28.1033L8.5537 27.5758V26.4969V25.414L9.43878 24.8947C9.9256 24.6066 10.344 24.3715 10.3722 24.3715C10.3963 24.3675 10.8228 24.6027 11.3176 24.8908ZM15.2603 24.8908L16.1575 25.414V26.4969V27.5758L15.2603 28.1033C14.7654 28.391 14.3471 28.6263 14.327 28.6263C14.3068 28.6263 13.8884 28.391 13.3936 28.1033L12.4964 27.5758V26.4969V25.414L13.3815 24.8947C13.8682 24.6066 14.2867 24.3715 14.3149 24.3715C14.3391 24.3675 14.7654 24.6027 15.2603 24.8908ZM19.203 24.8908L20.1002 25.414V26.4969V27.5758L19.203 28.1033C18.7081 28.391 18.2898 28.6263 18.2697 28.6263C18.2536 28.6263 17.8311 28.391 17.3363 28.1033L16.4391 27.58V26.4969V25.414L17.3242 24.8947C17.8111 24.6066 18.2294 24.3715 18.2576 24.3715C18.2818 24.3675 18.7081 24.6027 19.203 24.8908ZM23.1457 24.8908L24.0428 25.414V26.4969V27.5758L23.1457 28.1033C22.6508 28.391 22.2325 28.6263 22.2124 28.6263C22.1963 28.6263 21.7739 28.391 21.279 28.1033L20.3818 27.58V26.4969V25.414L21.2669 24.8947C21.7538 24.6066 22.1721 24.3715 22.2003 24.3715C22.2245 24.3675 22.6508 24.6027 23.1457 24.8908Z" stroke="white" stroke-width="0.8"/>
</g>
</svg>
