<svg width="640" height="640" viewBox="0 0 640 640" fill="none" xmlns="http://www.w3.org/2000/svg">
<g clip-path="url(#clip0_89_1047)">
<path d="M0 18C0 8.05887 8.05887 0 18 0H622C631.941 0 640 8.05887 640 18V622C640 631.941 631.941 640 622 640H18C8.05887 640 0 631.941 0 622V18Z" fill="#FAFEFA"/>
<rect x="3" y="3" width="634" height="634" rx="15" stroke="#2E6E3E" stroke-width="6"/>
<path d="M320 219L327.257 185.128L294.294 195.779L320 219ZM191 120C191 123 190.999 123 190.999 123C190.999 123 190.999 123 190.999 123C190.999 123 191 123 191.002 123C191.005 123 191.012 123 191.02 123C191.038 123 191.067 123 191.107 123.001C191.186 123.001 191.308 123.003 191.472 123.006C191.799 123.012 192.291 123.023 192.936 123.047C194.225 123.095 196.121 123.191 198.519 123.384C203.315 123.771 210.104 124.546 218.037 126.097C233.934 129.206 254.266 135.402 272.36 147.707L274.047 145.226L275.734 142.745C256.734 129.824 235.543 123.407 219.189 120.209C210.997 118.607 203.98 117.805 199.001 117.404C196.51 117.203 194.527 117.102 193.158 117.051C192.474 117.026 191.943 117.013 191.579 117.007C191.397 117.003 191.256 117.002 191.159 117.001C191.111 117 191.073 117 191.046 117C191.033 117 191.023 117 191.015 117C191.011 117 191.008 117 191.005 117C191.004 117 191.003 117 191.002 117C191.001 117 191 117 191 120ZM274.047 145.226L272.36 147.707C290.96 160.356 302.313 179.161 308.945 194.5L311.699 193.31L314.452 192.119C307.586 176.238 295.645 156.285 275.734 142.745L274.047 145.226Z" fill="url(#paint0_linear_89_1047)"/>
<path d="M421 320L454.872 327.257L444.221 294.294L421 320ZM520 191C517 191 517 190.999 517 190.999C517 190.999 517 190.999 517 190.999C517 190.999 517 191 517 191.002C517 191.005 517 191.012 517 191.02C517 191.038 517 191.067 516.999 191.107C516.999 191.186 516.997 191.308 516.994 191.472C516.988 191.799 516.977 192.291 516.953 192.936C516.905 194.225 516.809 196.121 516.616 198.519C516.229 203.315 515.454 210.104 513.903 218.037C510.794 233.934 504.598 254.266 492.293 272.36L494.774 274.047L497.255 275.734C510.176 256.734 516.593 235.543 519.791 219.189C521.393 210.997 522.195 203.98 522.596 199.001C522.797 196.51 522.898 194.527 522.949 193.158C522.974 192.474 522.987 191.943 522.993 191.579C522.997 191.397 522.998 191.256 522.999 191.159C523 191.111 523 191.073 523 191.046C523 191.033 523 191.023 523 191.015C523 191.011 523 191.008 523 191.005C523 191.004 523 191.003 523 191.002C523 191.001 523 191 520 191ZM494.774 274.047L492.293 272.36C479.644 290.96 460.839 302.313 445.5 308.945L446.69 311.699L447.881 314.452C463.762 307.586 483.715 295.645 497.255 275.734L494.774 274.047Z" fill="url(#paint1_linear_89_1047)"/>
<path d="M320 421L312.743 454.872L345.706 444.221L320 421ZM449 520C449 517 449.001 517 449.001 517C449.001 517 449.001 517 449.001 517C449.001 517 449 517 448.998 517C448.995 517 448.988 517 448.98 517C448.962 517 448.933 517 448.893 516.999C448.814 516.999 448.692 516.997 448.528 516.994C448.201 516.988 447.709 516.977 447.064 516.953C445.775 516.905 443.879 516.809 441.481 516.616C436.685 516.229 429.896 515.454 421.963 513.903C406.066 510.794 385.734 504.598 367.64 492.293L365.953 494.774L364.266 497.255C383.266 510.176 404.457 516.593 420.811 519.791C429.003 521.393 436.02 522.195 440.999 522.596C443.49 522.797 445.473 522.898 446.842 522.949C447.526 522.974 448.057 522.987 448.421 522.993C448.603 522.997 448.744 522.998 448.841 522.999C448.889 523 448.927 523 448.954 523C448.967 523 448.977 523 448.985 523C448.989 523 448.992 523 448.995 523C448.996 523 448.997 523 448.998 523C448.999 523 449 523 449 520ZM365.953 494.774L367.64 492.293C349.04 479.644 337.687 460.839 331.055 445.5L328.301 446.69L325.548 447.881C332.414 463.762 344.355 483.715 364.266 497.255L365.953 494.774Z" fill="url(#paint2_linear_89_1047)"/>
<path d="M216 320L182.128 312.743L192.779 345.706L216 320ZM117 449C120 449 120 449.001 120 449.001C120 449.001 120 449.001 120 449.001C120 449.001 120 449 120 448.998C120 448.995 120 448.988 120 448.98C120 448.962 120 448.933 120.001 448.893C120.001 448.814 120.003 448.692 120.006 448.528C120.012 448.201 120.023 447.709 120.047 447.064C120.095 445.775 120.191 443.879 120.384 441.481C120.771 436.685 121.546 429.896 123.097 421.963C126.206 406.066 132.402 385.734 144.707 367.64L142.226 365.953L139.745 364.266C126.824 383.266 120.407 404.457 117.209 420.811C115.607 429.003 114.805 436.02 114.404 440.999C114.203 443.49 114.102 445.473 114.051 446.842C114.026 447.526 114.013 448.057 114.007 448.421C114.003 448.603 114.002 448.744 114.001 448.841C114 448.889 114 448.927 114 448.954C114 448.967 114 448.977 114 448.985C114 448.989 114 448.992 114 448.995C114 448.996 114 448.997 114 448.998C114 448.999 114 449 117 449ZM142.226 365.953L144.707 367.64C157.356 349.04 176.161 337.687 191.5 331.055L190.31 328.301L189.119 325.548C173.238 332.414 153.285 344.355 139.745 364.266L142.226 365.953Z" fill="url(#paint3_linear_89_1047)"/>
<path d="M460 478C460 468.059 468.059 460 478 460H562C571.941 460 580 468.059 580 478V562C580 571.941 571.941 580 562 580H478C468.059 580 460 571.941 460 562V478Z" fill="url(#paint4_linear_89_1047)"/>
<path d="M460 478C460 468.059 468.059 460 478 460H562C571.941 460 580 468.059 580 478V562C580 571.941 571.941 580 562 580H478C468.059 580 460 571.941 460 562V478Z" fill="#2E6E3E" fill-opacity="0.5"/>
<path d="M562 455C574.703 455 585 465.297 585 478V562C585 574.703 574.703 585 562 585H478C465.297 585 455 574.703 455 562V478C455 465.297 465.297 455 478 455H562Z" stroke="url(#paint5_linear_89_1047)" stroke-opacity="0.24" stroke-width="10"/>
<path d="M501.25 511.125C501.25 512.414 501.484 513.586 501.719 514.758C501.836 515.227 501.836 515.695 501.602 516.164C501.25 516.633 500.898 516.984 500.312 517.102C494.453 518.273 490 523.547 490 529.875C490 537.141 495.859 543 503.125 543H538.75C544.961 543 550 537.961 550 531.75C550 526.828 546.836 522.727 542.5 521.086C542.031 520.969 541.562 520.617 541.328 520.031C541.211 519.562 541.211 518.977 541.445 518.508C542.148 517.102 542.5 515.578 542.5 513.938C542.5 508.195 537.93 503.625 532.188 503.625C530.547 503.625 529.141 503.977 527.734 504.68C526.914 505.031 525.859 504.797 525.391 503.977C523.047 500.344 518.945 498 514.375 498C507.109 498 501.25 503.859 501.25 511.125ZM514.375 494.25C519.766 494.25 524.453 496.711 527.617 500.695C529.023 500.109 530.547 499.875 532.188 499.875C539.922 499.875 546.25 506.203 546.25 513.938C546.25 515.461 546.016 516.984 545.547 518.391C550.469 520.852 553.75 525.891 553.75 531.75C553.75 540.07 547.07 546.75 538.75 546.75H503.125C493.867 546.75 486.25 539.25 486.25 529.875C486.25 522.492 491.055 516.164 497.734 513.938C497.617 513 497.5 512.062 497.5 511.125C497.5 501.867 505.117 494.25 514.375 494.25ZM521.289 513.586L529.727 522.023C530.547 522.727 530.547 523.898 529.727 524.602C529.023 525.422 527.852 525.422 527.148 524.602L521.875 519.445V533.625C521.875 534.68 521.055 535.5 520 535.5C518.945 535.5 518.125 534.68 518.125 533.625V519.445L512.852 524.602C512.148 525.422 510.977 525.422 510.273 524.602C509.57 523.898 509.57 522.727 510.273 522.023L518.711 513.586C519.414 512.883 520.586 512.883 521.289 513.586Z" fill="white"/>
<path d="M60 78C60 68.0589 68.0589 60 78 60H162C171.941 60 180 68.0589 180 78V162C180 171.941 171.941 180 162 180H78C68.0589 180 60 171.941 60 162V78Z" fill="url(#paint6_linear_89_1047)"/>
<path d="M60 78C60 68.0589 68.0589 60 78 60H162C171.941 60 180 68.0589 180 78V162C180 171.941 171.941 180 162 180H78C68.0589 180 60 171.941 60 162V78Z" fill="#2E6E3E" fill-opacity="0.5"/>
<path d="M162 55C174.703 55 185 65.2975 185 78V162C185 174.703 174.703 185 162 185H78C65.2975 185 55 174.703 55 162V78C55 65.2975 65.2975 55 78 55H162Z" stroke="url(#paint7_linear_89_1047)" stroke-opacity="0.24" stroke-width="10"/>
<path d="M138.75 109.25H93.75V139.25C93.75 141.359 95.3906 143 97.5 143H115.078C115.43 144.289 115.898 145.578 116.367 146.75H97.5C93.3984 146.75 90 143.352 90 139.25V107.961C90 106.32 90.4688 104.797 91.4062 103.508L97.1484 95.5391C98.5547 93.5469 100.781 92.375 103.242 92.375H129.258C131.719 92.375 133.945 93.5469 135.352 95.5391L141.094 103.508C142.031 104.797 142.5 106.32 142.5 107.961V115.578C141.328 115.227 140.039 115.109 138.75 114.992V109.25ZM94.5703 105.5H114.375V96.125H103.242C102.07 96.125 100.898 96.7109 100.195 97.6484L94.5703 105.5ZM118.125 105.5H137.93L132.305 97.6484C131.602 96.7109 130.43 96.125 129.258 96.125H118.125V105.5ZM136.875 124.25C129.609 124.25 123.75 130.109 123.75 137.375C123.75 144.641 129.609 150.5 136.875 150.5C144.141 150.5 150 144.641 150 137.375C150 130.109 144.141 124.25 136.875 124.25ZM136.875 154.25C127.5 154.25 120 146.75 120 137.375C120 128 127.5 120.5 136.875 120.5C146.25 120.5 153.75 128 153.75 137.375C153.75 146.75 146.25 154.25 136.875 154.25ZM143.555 130.227C144.492 130.812 144.609 131.984 144.023 132.805L136.523 143.117C136.172 143.586 135.703 143.938 135.117 143.938C134.648 143.938 134.062 143.82 133.711 143.352L129.023 138.664C128.203 137.961 128.203 136.789 129.023 136.086C129.727 135.383 130.898 135.383 131.602 136.086L134.766 139.25L140.977 130.695C141.562 129.875 142.734 129.641 143.555 130.227Z" fill="white"/>
<path d="M460 78C460 68.0589 468.059 60 478 60H562C571.941 60 580 68.0589 580 78V162C580 171.941 571.941 180 562 180H478C468.059 180 460 171.941 460 162V78Z" fill="url(#paint8_linear_89_1047)"/>
<path d="M460 78C460 68.0589 468.059 60 478 60H562C571.941 60 580 68.0589 580 78V162C580 171.941 571.941 180 562 180H478C468.059 180 460 171.941 460 162V78Z" fill="#2E6E3E" fill-opacity="0.5"/>
<path d="M562 55C574.703 55 585 65.2975 585 78V162C585 174.703 574.703 185 562 185H478C465.297 185 455 174.703 455 162V78C455 65.2975 465.297 55 478 55H562Z" stroke="url(#paint9_linear_89_1047)" stroke-opacity="0.24" stroke-width="10"/>
<path d="M523.516 118.156V111.242H515.781V118.156H523.516ZM523.516 94.25V101.398H515.781V94.25H523.516ZM532.656 111.242V118.156H524.922V111.242H532.656ZM514.375 102.805V109.836H506.641V102.805H514.375ZM523.516 102.805V109.836H515.781V102.805H523.516ZM555.977 114.523L557.5 115.578C557.266 116.047 556.68 117.219 556.562 117.57C553.75 122.844 548.359 122.844 545.781 122.844C539.453 138.312 525.742 146.75 507.344 146.75C498.789 146.75 492.344 144.172 487.891 139.016C483.438 133.742 481.797 126.008 482.734 120.031H533.711C536.406 120.031 538.398 119.328 539.453 118.742C537.109 115.227 537.695 109.836 539.805 106.555L540.977 104.914L542.617 106.086C545.43 108.195 546.953 110.656 547.422 113.469C550.352 113 554.219 113.352 555.977 114.523ZM496.094 111.242V118.156H488.359V111.242H496.094ZM505.234 111.242V118.156H497.5V111.242H505.234ZM514.375 111.242V118.156H506.641V111.242H514.375ZM505.234 102.805V109.836H497.5V102.805H505.234Z" fill="white"/>
<g clip-path="url(#clip1_89_1047)">
<path d="M287.236 221.391C288.641 220.161 290.576 219.704 292.395 220.192L381.616 244.101C383.556 244.621 385.073 246.137 385.593 248.078L409.499 337.297C410.018 339.237 409.463 341.308 408.043 342.728L386.321 364.45C386.311 364.46 386.301 364.471 386.291 364.481L364.482 386.291C364.472 386.301 364.461 386.31 364.451 386.32L342.728 408.043C341.308 409.463 339.237 410.018 337.297 409.499L248.077 385.593C246.137 385.073 244.621 383.556 244.101 381.616L220.192 292.395C219.672 290.454 220.226 288.383 221.647 286.962L286.962 221.647L287.236 221.391ZM275.445 353.893C275.515 354.051 275.641 354.176 275.798 354.246L343.662 384.387C343.924 384.504 344.232 384.447 344.435 384.244L347.43 381.248C347.739 380.94 347.69 380.427 347.329 380.182L289.905 341.293C289.313 340.892 288.802 340.382 288.402 339.79L249.508 282.361C249.264 282 248.75 281.951 248.442 282.26L245.446 285.255C245.243 285.458 245.186 285.766 245.303 286.028L275.445 353.893ZM367.851 359.846C368.122 360.117 368.562 360.117 368.833 359.846L372.151 356.527C372.387 356.292 372.422 355.922 372.235 355.647L332.662 297.216C332.613 297.143 332.55 297.08 332.477 297.031L274.043 257.455C273.767 257.269 273.398 257.304 273.162 257.539L269.844 260.857C269.573 261.128 269.573 261.568 269.844 261.839L367.851 359.846ZM339.789 288.402C340.381 288.803 340.891 289.313 341.292 289.905L380.182 347.329C380.427 347.69 380.94 347.739 381.248 347.431L384.243 344.436C384.446 344.233 384.503 343.925 384.387 343.663L354.245 275.799C354.175 275.642 354.049 275.516 353.892 275.447L286.027 245.303C285.765 245.187 285.458 245.244 285.254 245.447L282.26 248.442C281.951 248.75 282 249.264 282.361 249.508L339.789 288.402ZM297.031 332.477C297.08 332.55 297.143 332.613 297.216 332.662L355.647 372.235C355.923 372.422 356.292 372.386 356.528 372.151L359.844 368.834C360.116 368.563 360.116 368.123 359.844 367.852L261.838 269.846C261.567 269.575 261.127 269.575 260.856 269.846L257.54 273.161C257.305 273.397 257.269 273.766 257.456 274.042L297.031 332.477ZM257.59 371.61C257.655 371.85 257.842 372.037 258.082 372.101L325.669 390.212C326.496 390.433 326.913 389.254 326.13 388.906L269.012 363.538C267.739 362.973 266.721 361.955 266.156 360.682L240.785 303.562C240.438 302.78 239.258 303.197 239.479 304.024L257.59 371.61ZM360.681 266.157C361.954 266.722 362.972 267.74 363.538 269.013L388.904 326.131C389.252 326.914 390.432 326.497 390.21 325.669L372.1 258.083C372.036 257.843 371.848 257.656 371.609 257.592L304.023 239.481C303.196 239.259 302.779 240.439 303.562 240.787L360.681 266.157Z" fill="#2E6E3E"/>
</g>
<path d="M60 478C60 468.059 68.0589 460 78 460H162C171.941 460 180 468.059 180 478V562C180 571.941 171.941 580 162 580H78C68.0589 580 60 571.941 60 562V478Z" fill="url(#paint10_linear_89_1047)"/>
<path d="M60 478C60 468.059 68.0589 460 78 460H162C171.941 460 180 468.059 180 478V562C180 571.941 171.941 580 162 580H78C68.0589 580 60 571.941 60 562V478Z" fill="#2E6E3E" fill-opacity="0.5"/>
<path d="M162 455C174.703 455 185 465.297 185 478V562C185 574.703 174.703 585 162 585H78C65.2975 585 55 574.703 55 562V478C55 465.297 65.2975 455 78 455H162Z" stroke="url(#paint11_linear_89_1047)" stroke-opacity="0.24" stroke-width="10"/>
<path d="M149.241 507.234C148.382 507.469 147.679 507.547 146.975 507.781C146.429 507.938 145.804 508.094 145.179 508.328H145.1C144.788 508.406 144.788 508.406 144.475 508.016C144.085 507.625 143.85 507.391 143.304 507.156C141.741 506.375 140.257 506.609 138.929 507.469C137.288 508.562 136.429 510.125 136.429 512.078C136.429 514.031 137.757 515.672 139.632 515.906C141.35 516.141 142.757 515.594 143.85 514.344C144.007 514.109 144.163 513.953 144.319 513.719C144.397 513.641 144.475 513.484 144.475 513.406H139.788C139.319 513.406 139.163 513.094 139.319 512.703C139.632 511.922 140.257 510.672 140.569 510.047C140.647 509.891 140.804 509.578 141.116 509.578H149.007C149.397 508.562 149.944 507.469 150.725 506.453C152.522 504.188 154.554 502.938 157.522 502.391C160.022 502 162.366 502.234 164.475 503.641C166.429 504.969 167.6 506.766 167.913 509.109C168.304 512.391 167.366 515.047 165.022 517.312C163.46 518.953 161.507 519.969 159.241 520.438C158.85 520.516 158.382 520.594 157.991 520.594C157.757 520.672 157.522 520.672 157.288 520.672C155.1 520.672 153.069 519.969 151.35 518.562C150.179 517.469 149.319 516.219 148.929 514.734C148.616 515.359 148.304 515.906 147.835 516.375C146.194 518.719 143.85 520.125 140.96 520.516C138.616 520.828 136.35 520.359 134.397 518.953C132.6 517.547 131.585 515.75 131.35 513.562C131.038 510.906 131.819 508.406 133.382 506.375C135.1 504.109 137.444 502.703 140.257 502.156C142.522 501.688 144.71 502 146.663 503.406C147.991 504.266 148.85 505.359 149.475 506.844C149.632 507 149.554 507.156 149.241 507.234ZM121.741 507.625C121.663 507.625 121.663 507.625 121.663 507.547L122.21 506.844C122.288 506.844 122.366 506.766 122.444 506.766H131.194C131.272 506.766 131.272 506.844 131.272 506.922L130.804 507.547C130.804 507.625 130.647 507.703 130.569 507.703L121.741 507.625ZM118.069 509.891C117.991 509.891 117.991 509.812 117.991 509.812L118.538 509.109C118.538 509.031 118.694 509.031 118.772 509.031H129.866C130.022 509.031 130.022 509.109 130.022 509.109L129.788 509.734C129.788 509.812 129.71 509.891 129.632 509.891H118.069ZM123.929 512C123.85 512.078 123.85 512.156 124.007 512.156H129.319C129.397 512.156 129.475 512.078 129.475 512V511.375C129.475 511.297 129.475 511.219 129.397 511.219H124.475C124.397 511.219 124.319 511.297 124.241 511.375L123.929 512ZM163.069 510.594C163.069 510.359 163.069 510.203 163.069 510.047C162.6 507.625 160.413 506.297 158.069 506.844C155.804 507.312 154.319 508.719 153.772 511.062C153.382 512.938 154.319 514.891 156.038 515.672C157.366 516.219 158.694 516.141 160.022 515.516C161.897 514.422 162.991 512.938 163.069 510.828C163.069 510.75 163.069 510.672 163.069 510.594Z" fill="white"/>
<path d="M115.069 566.688C114.522 566.688 113.975 566.531 113.507 566.297L108.663 563.406C107.96 563.016 108.35 562.859 108.585 562.781C109.522 562.469 109.757 562.391 110.772 561.844C110.85 561.766 111.007 561.766 111.085 561.844L114.835 564.031C114.913 564.109 115.147 564.109 115.225 564.031L129.679 555.75C129.835 555.672 129.913 555.516 129.913 555.359V538.641C129.913 538.484 129.835 538.328 129.679 538.25L115.225 529.969C115.147 529.891 114.913 529.891 114.835 529.969L100.382 538.25C100.225 538.328 100.147 538.484 100.147 538.641V555.359C100.147 555.516 100.225 555.672 100.382 555.672L104.366 558.016C106.475 559.031 107.804 557.781 107.804 556.531V540.125C107.804 539.891 107.96 539.656 108.194 539.656H110.069C110.304 539.656 110.46 539.891 110.46 540.125V556.531C110.46 559.422 108.897 561.062 106.241 561.062C105.382 561.062 104.679 561.062 102.882 560.125L99.1317 557.938C98.1942 557.391 97.5692 556.375 97.5692 555.281V538.641C97.5692 537.625 98.1942 536.609 99.1317 536.062L113.507 527.703C114.444 527.156 115.616 527.156 116.554 527.703L131.007 536.062C131.944 536.609 132.491 537.625 132.491 538.641V555.359C132.491 556.375 131.944 557.391 131.007 557.938L116.554 566.297C116.085 566.531 115.538 566.688 115.069 566.688ZM126.71 550.281C126.71 547.156 124.6 546.297 120.147 545.75C115.694 545.125 115.225 544.812 115.225 543.797C115.225 542.938 115.616 541.766 118.897 541.766C121.866 541.766 122.96 542.391 123.429 544.422C123.429 544.578 123.663 544.734 123.819 544.734H125.694C125.85 544.734 125.929 544.734 126.007 544.578C126.085 544.5 126.085 544.422 126.085 544.266C125.85 540.828 123.507 539.266 118.897 539.266C114.757 539.266 112.335 540.984 112.335 543.875C112.335 547.078 114.757 547.938 118.741 548.328C123.429 548.797 123.819 549.5 123.819 550.438C123.819 552 122.491 552.703 119.522 552.703C115.694 552.703 114.835 551.766 114.522 549.812C114.522 549.656 114.366 549.5 114.132 549.5H112.257C112.022 549.5 111.866 549.656 111.866 549.891C111.866 552.312 113.194 555.203 119.522 555.203C124.054 555.203 126.71 553.406 126.71 550.281Z" fill="white"/>
<path d="M113.866 487.703C114.725 490.984 114.725 493.562 113.866 496.141C113.007 498.719 112.147 500.359 109.647 500.359H97.1473V501.453H105.507V504.656C105.507 507 103.397 508.25 101.366 508.875C98.1629 509.812 95.6629 509.656 93.0067 508.875C90.8192 508.25 88.7879 506.922 88.7879 504.656V496.688C88.7879 494.422 90.741 492.469 93.0067 492.469H101.366C104.1 492.469 106.522 490.047 106.522 487.156V483.406H109.647C112.147 483.406 113.241 485.281 113.866 487.703ZM101.835 506.766C102.46 506.766 103.007 506.453 103.319 505.984C103.632 505.438 103.632 504.812 103.319 504.344C103.007 503.797 102.46 503.484 101.835 503.562C101.288 503.484 100.663 503.797 100.35 504.344C100.038 504.812 100.038 505.438 100.35 505.984C100.663 506.453 101.288 506.766 101.835 506.766ZM92.616 491.375C89.8035 491.375 87.3817 493.797 87.3817 496.609V500.359H84.491C82.0692 500.359 80.6629 498.641 80.116 496.141C79.2567 492.859 79.3348 490.828 80.116 487.703C80.741 484.891 82.8504 483.406 85.2723 483.406H96.7567V482.391H88.3973V479.188C88.3973 476.766 89.1004 475.438 92.616 474.812C95.116 474.422 98.1629 474.344 100.975 474.812C103.241 475.203 105.116 476.922 105.116 479.188V487.156C105.116 489.5 103.241 491.375 100.975 491.375H92.616ZM92.0692 477.078C91.2098 477.078 90.5067 477.781 90.5067 478.641C90.5067 479.5 91.2098 480.281 92.0692 480.281C92.9285 480.281 93.7098 479.5 93.7098 478.641C93.7098 477.781 92.9285 477.078 92.0692 477.078Z" fill="white"/>
<rect x="220" y="85" width="118" height="70" rx="10" fill="#FAFEFA" fill-opacity="0.75"/>
<path d="M228.468 95.5575L233.268 110.074H233.457L238.248 95.5575H241.922L235.42 114H231.296L224.803 95.5575H228.468ZM245.99 114.279C245.113 114.279 244.324 114.123 243.622 113.811C242.925 113.493 242.373 113.024 241.965 112.406C241.562 111.788 241.361 111.025 241.361 110.119C241.361 109.338 241.505 108.693 241.794 108.183C242.082 107.672 242.475 107.264 242.973 106.958C243.472 106.652 244.033 106.421 244.657 106.265C245.288 106.102 245.939 105.985 246.611 105.913C247.422 105.829 248.079 105.754 248.583 105.688C249.088 105.616 249.454 105.508 249.682 105.364C249.916 105.214 250.033 104.983 250.033 104.671V104.617C250.033 103.938 249.832 103.413 249.43 103.041C249.028 102.669 248.448 102.482 247.692 102.482C246.893 102.482 246.26 102.657 245.792 103.005C245.33 103.353 245.017 103.764 244.855 104.238L241.812 103.806C242.052 102.966 242.448 102.263 243 101.699C243.553 101.129 244.228 100.702 245.026 100.42C245.825 100.132 246.707 99.988 247.674 99.988C248.34 99.988 249.004 100.066 249.664 100.222C250.324 100.378 250.928 100.636 251.474 100.997C252.02 101.351 252.459 101.834 252.789 102.446C253.125 103.059 253.293 103.824 253.293 104.743V114H250.159V112.1H250.051C249.853 112.484 249.574 112.844 249.214 113.181C248.86 113.511 248.412 113.778 247.872 113.982C247.338 114.18 246.71 114.279 245.99 114.279ZM246.836 111.884C247.491 111.884 248.058 111.755 248.538 111.497C249.019 111.232 249.388 110.884 249.646 110.452C249.91 110.02 250.042 109.548 250.042 109.038V107.408C249.94 107.492 249.766 107.57 249.52 107.642C249.28 107.714 249.01 107.777 248.71 107.831C248.409 107.886 248.112 107.934 247.818 107.976C247.524 108.018 247.269 108.054 247.053 108.084C246.566 108.15 246.131 108.258 245.747 108.408C245.363 108.558 245.059 108.768 244.837 109.038C244.615 109.302 244.504 109.645 244.504 110.065C244.504 110.665 244.723 111.118 245.161 111.425C245.6 111.731 246.158 111.884 246.836 111.884ZM259.07 95.5575V114H255.81V95.5575H259.07ZM261.662 114V100.168H264.921V114H261.662ZM263.3 98.205C262.784 98.205 262.34 98.0339 261.968 97.6917C261.595 97.3435 261.409 96.9262 261.409 96.44C261.409 95.9477 261.595 95.5304 261.968 95.1882C262.34 94.8401 262.784 94.666 263.3 94.666C263.823 94.666 264.267 94.8401 264.633 95.1882C265.005 95.5304 265.192 95.9477 265.192 96.44C265.192 96.9262 265.005 97.3435 264.633 97.6917C264.267 98.0339 263.823 98.205 263.3 98.205ZM272.646 114.243C271.559 114.243 270.587 113.964 269.728 113.406C268.87 112.847 268.191 112.037 267.693 110.974C267.195 109.912 266.945 108.621 266.945 107.102C266.945 105.565 267.198 104.268 267.702 103.212C268.212 102.149 268.9 101.348 269.764 100.807C270.629 100.261 271.592 99.988 272.655 99.988C273.465 99.988 274.132 100.126 274.654 100.402C275.176 100.672 275.59 101 275.897 101.384C276.203 101.762 276.44 102.119 276.608 102.455H276.743V95.5575H280.012V114H276.806V111.821H276.608C276.44 112.157 276.197 112.514 275.879 112.892C275.56 113.265 275.14 113.583 274.618 113.847C274.096 114.111 273.438 114.243 272.646 114.243ZM273.555 111.569C274.246 111.569 274.834 111.383 275.32 111.01C275.807 110.632 276.176 110.107 276.428 109.434C276.68 108.762 276.806 107.979 276.806 107.084C276.806 106.19 276.68 105.412 276.428 104.752C276.182 104.091 275.816 103.578 275.329 103.212C274.849 102.846 274.258 102.663 273.555 102.663C272.829 102.663 272.223 102.852 271.736 103.23C271.25 103.608 270.884 104.13 270.638 104.797C270.391 105.463 270.268 106.226 270.268 107.084C270.268 107.949 270.391 108.72 270.638 109.398C270.89 110.071 271.259 110.602 271.745 110.992C272.238 111.377 272.841 111.569 273.555 111.569ZM286.705 114.279C285.829 114.279 285.039 114.123 284.337 113.811C283.64 113.493 283.088 113.024 282.68 112.406C282.278 111.788 282.077 111.025 282.077 110.119C282.077 109.338 282.221 108.693 282.509 108.183C282.797 107.672 283.19 107.264 283.688 106.958C284.187 106.652 284.748 106.421 285.372 106.265C286.003 106.102 286.654 105.985 287.327 105.913C288.137 105.829 288.794 105.754 289.299 105.688C289.803 105.616 290.169 105.508 290.397 105.364C290.631 105.214 290.749 104.983 290.749 104.671V104.617C290.749 103.938 290.547 103.413 290.145 103.041C289.743 102.669 289.164 102.482 288.407 102.482C287.609 102.482 286.975 102.657 286.507 103.005C286.045 103.353 285.733 103.764 285.571 104.238L282.527 103.806C282.767 102.966 283.163 102.263 283.715 101.699C284.268 101.129 284.943 100.702 285.742 100.42C286.54 100.132 287.423 99.988 288.389 99.988C289.056 99.988 289.719 100.066 290.379 100.222C291.04 100.378 291.643 100.636 292.189 100.997C292.736 101.351 293.174 101.834 293.504 102.446C293.84 103.059 294.008 103.824 294.008 104.743V114H290.875V112.1H290.767C290.568 112.484 290.289 112.844 289.929 113.181C289.575 113.511 289.128 113.778 288.587 113.982C288.053 114.18 287.426 114.279 286.705 114.279ZM287.552 111.884C288.206 111.884 288.773 111.755 289.254 111.497C289.734 111.232 290.103 110.884 290.361 110.452C290.625 110.02 290.758 109.548 290.758 109.038V107.408C290.655 107.492 290.481 107.57 290.235 107.642C289.995 107.714 289.725 107.777 289.425 107.831C289.125 107.886 288.827 107.934 288.533 107.976C288.239 108.018 287.984 108.054 287.768 108.084C287.282 108.15 286.846 108.258 286.462 108.408C286.078 108.558 285.775 108.768 285.553 109.038C285.33 109.302 285.219 109.645 285.219 110.065C285.219 110.665 285.438 111.118 285.877 111.425C286.315 111.731 286.873 111.884 287.552 111.884ZM303.432 100.168V102.69H295.481V100.168H303.432ZM297.444 96.8542H300.704V109.84C300.704 110.278 300.77 110.614 300.902 110.848C301.04 111.076 301.22 111.232 301.442 111.316C301.664 111.401 301.911 111.443 302.181 111.443C302.385 111.443 302.571 111.428 302.739 111.398C302.913 111.367 303.045 111.34 303.135 111.316L303.685 113.865C303.51 113.925 303.261 113.991 302.937 114.063C302.619 114.135 302.229 114.177 301.766 114.189C300.95 114.213 300.215 114.09 299.56 113.82C298.906 113.544 298.387 113.117 298.002 112.541C297.624 111.965 297.438 111.244 297.444 110.38V96.8542ZM311.373 114.27C309.986 114.27 308.788 113.982 307.78 113.406C306.777 112.823 306.006 112.001 305.466 110.938C304.925 109.87 304.655 108.612 304.655 107.165C304.655 105.742 304.925 104.494 305.466 103.419C306.012 102.338 306.774 101.498 307.753 100.898C308.731 100.291 309.881 99.988 311.202 99.988C312.054 99.988 312.859 100.126 313.615 100.402C314.378 100.672 315.05 101.093 315.632 101.663C316.221 102.233 316.683 102.96 317.019 103.842C317.355 104.719 317.523 105.763 317.523 106.976V107.976H306.186V105.778H314.399C314.393 105.154 314.258 104.599 313.993 104.112C313.729 103.62 313.36 103.233 312.886 102.951C312.418 102.669 311.871 102.527 311.247 102.527C310.58 102.527 309.995 102.69 309.491 103.014C308.987 103.332 308.593 103.752 308.311 104.274C308.035 104.791 307.894 105.358 307.888 105.976V107.895C307.888 108.699 308.035 109.389 308.329 109.966C308.623 110.536 309.035 110.974 309.563 111.28C310.091 111.581 310.71 111.731 311.418 111.731C311.892 111.731 312.321 111.665 312.706 111.533C313.09 111.395 313.423 111.193 313.705 110.929C313.987 110.665 314.201 110.338 314.345 109.948L317.388 110.29C317.196 111.094 316.83 111.797 316.29 112.397C315.755 112.991 315.071 113.454 314.237 113.784C313.402 114.108 312.448 114.27 311.373 114.27ZM324.653 114.243C323.567 114.243 322.594 113.964 321.736 113.406C320.877 112.847 320.199 112.037 319.701 110.974C319.202 109.912 318.953 108.621 318.953 107.102C318.953 105.565 319.205 104.268 319.71 103.212C320.22 102.149 320.907 101.348 321.772 100.807C322.636 100.261 323.6 99.988 324.662 99.988C325.473 99.988 326.139 100.126 326.662 100.402C327.184 100.672 327.598 101 327.904 101.384C328.21 101.762 328.448 102.119 328.616 102.455H328.751V95.5575H332.02V114H328.814V111.821H328.616C328.448 112.157 328.204 112.514 327.886 112.892C327.568 113.265 327.148 113.583 326.626 113.847C326.103 114.111 325.446 114.243 324.653 114.243ZM325.563 111.569C326.253 111.569 326.842 111.383 327.328 111.01C327.814 110.632 328.183 110.107 328.436 109.434C328.688 108.762 328.814 107.979 328.814 107.084C328.814 106.19 328.688 105.412 328.436 104.752C328.189 104.091 327.823 103.578 327.337 103.212C326.857 102.846 326.265 102.663 325.563 102.663C324.837 102.663 324.23 102.852 323.744 103.23C323.258 103.608 322.891 104.13 322.645 104.797C322.399 105.463 322.276 106.226 322.276 107.084C322.276 107.949 322.399 108.72 322.645 109.398C322.897 110.071 323.267 110.602 323.753 110.992C324.245 111.377 324.849 111.569 325.563 111.569ZM235.53 145V131.168H238.691V133.473H238.835C239.087 132.675 239.52 132.06 240.132 131.627C240.75 131.189 241.456 130.97 242.248 130.97C242.428 130.97 242.629 130.979 242.852 130.997C243.08 131.009 243.269 131.03 243.419 131.06V134.059C243.281 134.011 243.062 133.969 242.762 133.933C242.467 133.891 242.182 133.87 241.906 133.87C241.312 133.87 240.777 133.999 240.303 134.257C239.835 134.509 239.466 134.86 239.196 135.31C238.925 135.761 238.79 136.28 238.79 136.868V145H235.53ZM250.378 145.27C248.991 145.27 247.793 144.982 246.785 144.406C245.782 143.823 245.011 143.001 244.47 141.938C243.93 140.87 243.66 139.612 243.66 138.165C243.66 136.742 243.93 135.494 244.47 134.419C245.017 133.338 245.779 132.498 246.758 131.898C247.736 131.291 248.886 130.988 250.207 130.988C251.059 130.988 251.864 131.126 252.62 131.402C253.383 131.672 254.055 132.093 254.637 132.663C255.226 133.233 255.688 133.96 256.024 134.842C256.36 135.719 256.528 136.763 256.528 137.976V138.976H245.191V136.778H253.404C253.398 136.154 253.262 135.599 252.998 135.112C252.734 134.62 252.365 134.233 251.891 133.951C251.422 133.669 250.876 133.527 250.252 133.527C249.585 133.527 249 133.69 248.496 134.014C247.991 134.332 247.598 134.752 247.316 135.274C247.04 135.791 246.899 136.358 246.893 136.976V138.895C246.893 139.699 247.04 140.389 247.334 140.966C247.628 141.536 248.039 141.974 248.568 142.28C249.096 142.581 249.714 142.731 250.423 142.731C250.897 142.731 251.326 142.665 251.711 142.533C252.095 142.395 252.428 142.193 252.71 141.929C252.992 141.665 253.205 141.338 253.35 140.948L256.393 141.29C256.201 142.094 255.835 142.797 255.295 143.397C254.76 143.991 254.076 144.454 253.241 144.784C252.407 145.108 251.452 145.27 250.378 145.27ZM264.541 150.475C263.37 150.475 262.365 150.316 261.524 149.998C260.684 149.686 260.008 149.265 259.498 148.737C258.988 148.209 258.633 147.623 258.435 146.981L261.371 146.27C261.503 146.54 261.695 146.807 261.947 147.071C262.2 147.341 262.539 147.563 262.965 147.738C263.397 147.918 263.941 148.008 264.595 148.008C265.519 148.008 266.285 147.783 266.891 147.332C267.498 146.888 267.801 146.156 267.801 145.135V142.515H267.639C267.471 142.851 267.224 143.196 266.9 143.55C266.582 143.904 266.159 144.202 265.63 144.442C265.108 144.682 264.451 144.802 263.658 144.802C262.596 144.802 261.632 144.553 260.768 144.054C259.909 143.55 259.225 142.8 258.715 141.803C258.21 140.801 257.958 139.546 257.958 138.039C257.958 136.52 258.21 135.238 258.715 134.194C259.225 133.143 259.912 132.348 260.777 131.807C261.641 131.261 262.605 130.988 263.667 130.988C264.478 130.988 265.144 131.126 265.666 131.402C266.195 131.672 266.615 132 266.927 132.384C267.239 132.762 267.477 133.119 267.639 133.455H267.819V131.168H271.034V145.225C271.034 146.408 270.751 147.386 270.187 148.161C269.623 148.935 268.851 149.515 267.873 149.899C266.894 150.283 265.784 150.475 264.541 150.475ZM264.568 142.244C265.258 142.244 265.847 142.076 266.333 141.74C266.819 141.404 267.188 140.921 267.441 140.29C267.693 139.66 267.819 138.904 267.819 138.021C267.819 137.151 267.693 136.388 267.441 135.734C267.194 135.079 266.828 134.572 266.342 134.212C265.862 133.846 265.27 133.663 264.568 133.663C263.841 133.663 263.235 133.852 262.749 134.23C262.263 134.608 261.896 135.127 261.65 135.788C261.404 136.442 261.281 137.187 261.281 138.021C261.281 138.867 261.404 139.609 261.65 140.245C261.902 140.876 262.272 141.368 262.758 141.722C263.25 142.07 263.853 142.244 264.568 142.244ZM273.614 145V131.168H276.874V145H273.614ZM275.253 129.205C274.736 129.205 274.292 129.034 273.92 128.692C273.548 128.343 273.362 127.926 273.362 127.44C273.362 126.948 273.548 126.53 273.92 126.188C274.292 125.84 274.736 125.666 275.253 125.666C275.775 125.666 276.219 125.84 276.585 126.188C276.958 126.53 277.144 126.948 277.144 127.44C277.144 127.926 276.958 128.343 276.585 128.692C276.219 129.034 275.775 129.205 275.253 129.205ZM290.397 134.824L287.426 135.148C287.341 134.848 287.194 134.566 286.984 134.302C286.78 134.038 286.504 133.825 286.156 133.663C285.808 133.5 285.381 133.419 284.877 133.419C284.199 133.419 283.628 133.566 283.166 133.861C282.71 134.155 282.485 134.536 282.491 135.004C282.485 135.407 282.632 135.734 282.932 135.986C283.238 136.238 283.742 136.445 284.445 136.607L286.804 137.111C288.113 137.394 289.085 137.841 289.722 138.453C290.364 139.066 290.688 139.867 290.694 140.858C290.688 141.728 290.433 142.497 289.929 143.163C289.431 143.823 288.737 144.34 287.849 144.712C286.96 145.084 285.94 145.27 284.787 145.27C283.094 145.27 281.731 144.916 280.699 144.208C279.666 143.493 279.051 142.5 278.853 141.227L282.031 140.921C282.176 141.545 282.482 142.016 282.95 142.334C283.418 142.653 284.028 142.812 284.778 142.812C285.552 142.812 286.174 142.653 286.642 142.334C287.116 142.016 287.353 141.623 287.353 141.155C287.353 140.759 287.2 140.431 286.894 140.173C286.594 139.915 286.126 139.717 285.489 139.579L283.13 139.084C281.803 138.807 280.822 138.342 280.185 137.688C279.549 137.027 279.234 136.193 279.24 135.184C279.234 134.332 279.465 133.593 279.933 132.969C280.408 132.339 281.065 131.852 281.905 131.51C282.752 131.162 283.727 130.988 284.832 130.988C286.453 130.988 287.729 131.333 288.659 132.024C289.596 132.714 290.175 133.648 290.397 134.824ZM299.529 131.168V133.69H291.577V131.168H299.529ZM293.54 127.854H296.8V140.84C296.8 141.278 296.866 141.614 296.998 141.848C297.136 142.076 297.316 142.232 297.538 142.316C297.761 142.401 298.007 142.443 298.277 142.443C298.481 142.443 298.667 142.428 298.835 142.398C299.009 142.367 299.141 142.34 299.231 142.316L299.781 144.865C299.607 144.925 299.358 144.991 299.033 145.063C298.715 145.135 298.325 145.177 297.863 145.189C297.046 145.213 296.311 145.09 295.656 144.82C295.002 144.544 294.483 144.117 294.099 143.541C293.72 142.965 293.534 142.244 293.54 141.38V127.854ZM301.494 145V131.168H304.655V133.473H304.799C305.051 132.675 305.483 132.06 306.096 131.627C306.714 131.189 307.42 130.97 308.212 130.97C308.392 130.97 308.593 130.979 308.815 130.997C309.044 131.009 309.233 131.03 309.383 131.06V134.059C309.245 134.011 309.025 133.969 308.725 133.933C308.431 133.891 308.146 133.87 307.87 133.87C307.275 133.87 306.741 133.999 306.267 134.257C305.799 134.509 305.429 134.86 305.159 135.31C304.889 135.761 304.754 136.28 304.754 136.868V145H301.494ZM313.235 150.187C312.791 150.187 312.379 150.151 312.001 150.079C311.629 150.013 311.332 149.935 311.11 149.845L311.866 147.305C312.34 147.443 312.764 147.509 313.136 147.503C313.508 147.497 313.835 147.38 314.117 147.152C314.405 146.93 314.649 146.558 314.847 146.036L315.126 145.288L310.11 131.168H313.568L316.756 141.614H316.9L320.097 131.168H323.564L318.026 146.675C317.767 147.407 317.425 148.035 316.999 148.557C316.573 149.085 316.05 149.488 315.432 149.764C314.82 150.046 314.087 150.187 313.235 150.187Z" fill="#111827"/>
<rect x="322" y="485" width="99" height="70" rx="10" fill="#FAFEFA" fill-opacity="0.75"/>
<path d="M328.206 514V495.557H335.122C336.539 495.557 337.728 495.804 338.688 496.296C339.655 496.788 340.384 497.479 340.876 498.367C341.375 499.25 341.624 500.279 341.624 501.456C341.624 502.639 341.372 503.665 340.867 504.536C340.369 505.4 339.634 506.069 338.661 506.544C337.689 507.012 336.494 507.246 335.077 507.246H330.151V504.473H334.627C335.455 504.473 336.134 504.358 336.662 504.13C337.19 503.896 337.581 503.557 337.833 503.113C338.091 502.663 338.22 502.11 338.22 501.456C338.22 500.801 338.091 500.243 337.833 499.781C337.575 499.313 337.181 498.958 336.653 498.718C336.125 498.472 335.443 498.349 334.609 498.349H331.547V514H328.206ZM337.734 505.643L342.299 514H338.571L334.087 505.643H337.734ZM349.72 514.27C348.333 514.27 347.135 513.982 346.127 513.406C345.124 512.823 344.353 512.001 343.812 510.938C343.272 509.87 343.002 508.612 343.002 507.165C343.002 505.742 343.272 504.494 343.812 503.419C344.359 502.338 345.121 501.498 346.1 500.898C347.078 500.291 348.228 499.988 349.549 499.988C350.401 499.988 351.206 500.126 351.962 500.402C352.724 500.672 353.397 501.093 353.979 501.663C354.567 502.233 355.03 502.96 355.366 503.842C355.702 504.719 355.87 505.763 355.87 506.976V507.976H344.533V505.778H352.745C352.739 505.154 352.604 504.599 352.34 504.112C352.076 503.62 351.707 503.233 351.233 502.951C350.764 502.669 350.218 502.527 349.594 502.527C348.927 502.527 348.342 502.69 347.838 503.014C347.333 503.332 346.94 503.752 346.658 504.274C346.382 504.791 346.241 505.358 346.235 505.976V507.895C346.235 508.699 346.382 509.389 346.676 509.966C346.97 510.536 347.381 510.974 347.91 511.28C348.438 511.581 349.056 511.731 349.765 511.731C350.239 511.731 350.668 511.665 351.052 511.533C351.437 511.395 351.77 511.193 352.052 510.929C352.334 510.665 352.547 510.338 352.691 509.948L355.735 510.29C355.543 511.094 355.177 511.797 354.636 512.397C354.102 512.991 353.418 513.454 352.583 513.784C351.749 514.108 350.794 514.27 349.72 514.27ZM357.867 514V500.168H360.983V502.518H361.145C361.433 501.726 361.911 501.108 362.577 500.663C363.243 500.213 364.039 499.988 364.963 499.988C365.9 499.988 366.689 500.216 367.332 500.672C367.98 501.123 368.436 501.738 368.7 502.518H368.845C369.151 501.75 369.667 501.138 370.393 500.681C371.126 500.219 371.993 499.988 372.996 499.988C374.269 499.988 375.307 500.39 376.112 501.195C376.916 501.999 377.318 503.173 377.318 504.716V514H374.049V505.22C374.049 504.361 373.821 503.734 373.365 503.338C372.909 502.936 372.351 502.735 371.69 502.735C370.904 502.735 370.288 502.981 369.844 503.473C369.406 503.959 369.187 504.593 369.187 505.373V514H365.99V505.085C365.99 504.37 365.774 503.8 365.342 503.374C364.915 502.948 364.357 502.735 363.667 502.735C363.198 502.735 362.772 502.855 362.388 503.095C362.004 503.329 361.697 503.662 361.469 504.094C361.241 504.521 361.127 505.019 361.127 505.589V514H357.867ZM385.898 514.27C384.547 514.27 383.377 513.973 382.386 513.379C381.396 512.784 380.627 511.953 380.081 510.884C379.541 509.816 379.27 508.567 379.27 507.138C379.27 505.709 379.541 504.458 380.081 503.383C380.627 502.308 381.396 501.474 382.386 500.88C383.377 500.285 384.547 499.988 385.898 499.988C387.249 499.988 388.42 500.285 389.41 500.88C390.401 501.474 391.166 502.308 391.707 503.383C392.253 504.458 392.526 505.709 392.526 507.138C392.526 508.567 392.253 509.816 391.707 510.884C391.166 511.953 390.401 512.784 389.41 513.379C388.42 513.973 387.249 514.27 385.898 514.27ZM385.916 511.659C386.649 511.659 387.261 511.458 387.753 511.055C388.246 510.647 388.612 510.101 388.852 509.416C389.098 508.732 389.221 507.97 389.221 507.129C389.221 506.283 389.098 505.517 388.852 504.833C388.612 504.142 388.246 503.593 387.753 503.185C387.261 502.777 386.649 502.572 385.916 502.572C385.166 502.572 384.541 502.777 384.043 503.185C383.551 503.593 383.182 504.142 382.936 504.833C382.695 505.517 382.575 506.283 382.575 507.129C382.575 507.97 382.695 508.732 382.936 509.416C383.182 510.101 383.551 510.647 384.043 511.055C384.541 511.458 385.166 511.659 385.916 511.659ZM401.439 500.168V502.69H393.487V500.168H401.439ZM395.451 496.854H398.71V509.84C398.71 510.278 398.776 510.614 398.909 510.848C399.047 511.076 399.227 511.232 399.449 511.316C399.671 511.401 399.917 511.443 400.187 511.443C400.391 511.443 400.578 511.428 400.746 511.398C400.92 511.367 401.052 511.34 401.142 511.316L401.691 513.865C401.517 513.925 401.268 513.991 400.944 514.063C400.626 514.135 400.235 514.177 399.773 514.189C398.957 514.213 398.221 514.09 397.567 513.82C396.912 513.544 396.393 513.117 396.009 512.541C395.631 511.965 395.445 511.244 395.451 510.38V496.854ZM409.379 514.27C407.993 514.27 406.795 513.982 405.786 513.406C404.784 512.823 404.012 512.001 403.472 510.938C402.932 509.87 402.662 508.612 402.662 507.165C402.662 505.742 402.932 504.494 403.472 503.419C404.018 502.338 404.781 501.498 405.759 500.898C406.738 500.291 407.888 499.988 409.208 499.988C410.061 499.988 410.865 500.126 411.622 500.402C412.384 500.672 413.057 501.093 413.639 501.663C414.227 502.233 414.69 502.96 415.026 503.842C415.362 504.719 415.53 505.763 415.53 506.976V507.976H404.193V505.778H412.405C412.399 505.154 412.264 504.599 412 504.112C411.736 503.62 411.367 503.233 410.892 502.951C410.424 502.669 409.878 502.527 409.253 502.527C408.587 502.527 408.002 502.69 407.497 503.014C406.993 503.332 406.6 503.752 406.318 504.274C406.042 504.791 405.9 505.358 405.894 505.976V507.895C405.894 508.699 406.042 509.389 406.336 509.966C406.63 510.536 407.041 510.974 407.569 511.28C408.098 511.581 408.716 511.731 409.424 511.731C409.899 511.731 410.328 511.665 410.712 511.533C411.096 511.395 411.43 511.193 411.712 510.929C411.994 510.665 412.207 510.338 412.351 509.948L415.395 510.29C415.203 511.094 414.837 511.797 414.296 512.397C413.762 512.991 413.078 513.454 412.243 513.784C411.409 514.108 410.454 514.27 409.379 514.27ZM340.105 534.824L337.134 535.148C337.05 534.848 336.902 534.566 336.692 534.302C336.488 534.038 336.212 533.825 335.864 533.663C335.516 533.5 335.089 533.419 334.585 533.419C333.907 533.419 333.336 533.566 332.874 533.861C332.418 534.155 332.193 534.536 332.199 535.004C332.193 535.407 332.34 535.734 332.64 535.986C332.946 536.238 333.45 536.445 334.153 536.607L336.512 537.111C337.821 537.394 338.794 537.841 339.43 538.453C340.072 539.066 340.396 539.867 340.402 540.858C340.396 541.728 340.141 542.497 339.637 543.163C339.139 543.823 338.445 544.34 337.557 544.712C336.668 545.084 335.648 545.27 334.495 545.27C332.802 545.27 331.439 544.916 330.407 544.208C329.374 543.493 328.759 542.5 328.561 541.227L331.739 540.921C331.884 541.545 332.19 542.016 332.658 542.334C333.126 542.653 333.736 542.812 334.486 542.812C335.261 542.812 335.882 542.653 336.35 542.334C336.824 542.016 337.062 541.623 337.062 541.155C337.062 540.759 336.908 540.431 336.602 540.173C336.302 539.915 335.834 539.717 335.197 539.579L332.838 539.084C331.511 538.807 330.53 538.342 329.893 537.688C329.257 537.027 328.942 536.193 328.948 535.184C328.942 534.332 329.173 533.593 329.641 532.969C330.116 532.339 330.773 531.852 331.613 531.51C332.46 531.162 333.435 530.988 334.54 530.988C336.161 530.988 337.437 531.333 338.367 532.024C339.304 532.714 339.883 533.648 340.105 534.824ZM348.453 545.27C347.066 545.27 345.869 544.982 344.86 544.406C343.858 543.823 343.086 543.001 342.546 541.938C342.006 540.87 341.735 539.612 341.735 538.165C341.735 536.742 342.006 535.494 342.546 534.419C343.092 533.338 343.855 532.498 344.833 531.898C345.812 531.291 346.961 530.988 348.282 530.988C349.135 530.988 349.939 531.126 350.696 531.402C351.458 531.672 352.13 532.093 352.713 532.663C353.301 533.233 353.763 533.96 354.099 534.842C354.436 535.719 354.604 536.763 354.604 537.976V538.976H343.266V536.778H351.479C351.473 536.154 351.338 535.599 351.074 535.112C350.81 534.62 350.44 534.233 349.966 533.951C349.498 533.669 348.952 533.527 348.327 533.527C347.661 533.527 347.075 533.69 346.571 534.014C346.067 534.332 345.674 534.752 345.391 535.274C345.115 535.791 344.974 536.358 344.968 536.976V538.895C344.968 539.699 345.115 540.389 345.409 540.966C345.704 541.536 346.115 541.974 346.643 542.28C347.171 542.581 347.79 542.731 348.498 542.731C348.973 542.731 349.402 542.665 349.786 542.533C350.17 542.395 350.503 542.193 350.786 541.929C351.068 541.665 351.281 541.338 351.425 540.948L354.469 541.29C354.277 542.094 353.91 542.797 353.37 543.397C352.836 543.991 352.151 544.454 351.317 544.784C350.482 545.108 349.528 545.27 348.453 545.27ZM356.601 545V531.168H359.762V533.473H359.906C360.158 532.675 360.59 532.06 361.202 531.627C361.821 531.189 362.526 530.97 363.319 530.97C363.499 530.97 363.7 530.979 363.922 530.997C364.15 531.009 364.339 531.03 364.489 531.06V534.059C364.351 534.011 364.132 533.969 363.832 533.933C363.538 533.891 363.253 533.87 362.976 533.87C362.382 533.87 361.848 533.999 361.374 534.257C360.905 534.509 360.536 534.86 360.266 535.31C359.996 535.761 359.861 536.28 359.861 536.868V545H356.601ZM378.67 531.168L373.745 545H370.142L365.217 531.168H368.693L371.871 541.443H372.016L375.203 531.168H378.67ZM385.818 545.27C384.432 545.27 383.234 544.982 382.225 544.406C381.223 543.823 380.451 543.001 379.911 541.938C379.371 540.87 379.101 539.612 379.101 538.165C379.101 536.742 379.371 535.494 379.911 534.419C380.457 533.338 381.22 532.498 382.198 531.898C383.177 531.291 384.327 530.988 385.647 530.988C386.5 530.988 387.304 531.126 388.061 531.402C388.823 531.672 389.495 532.093 390.078 532.663C390.666 533.233 391.128 533.96 391.465 534.842C391.801 535.719 391.969 536.763 391.969 537.976V538.976H380.631V536.778H388.844C388.838 536.154 388.703 535.599 388.439 535.112C388.175 534.62 387.805 534.233 387.331 533.951C386.863 533.669 386.317 533.527 385.692 533.527C385.026 533.527 384.441 533.69 383.936 534.014C383.432 534.332 383.039 534.752 382.757 535.274C382.48 535.791 382.339 536.358 382.333 536.976V538.895C382.333 539.699 382.48 540.389 382.775 540.966C383.069 541.536 383.48 541.974 384.008 542.28C384.537 542.581 385.155 542.731 385.863 542.731C386.338 542.731 386.767 542.665 387.151 542.533C387.535 542.395 387.869 542.193 388.151 541.929C388.433 541.665 388.646 541.338 388.79 540.948L391.834 541.29C391.642 542.094 391.275 542.797 390.735 543.397C390.201 543.991 389.516 544.454 388.682 544.784C387.848 545.108 386.893 545.27 385.818 545.27ZM393.966 545V531.168H397.127V533.473H397.271C397.523 532.675 397.955 532.06 398.568 531.627C399.186 531.189 399.891 530.97 400.684 530.97C400.864 530.97 401.065 530.979 401.287 530.997C401.515 531.009 401.704 531.03 401.854 531.06V534.059C401.716 534.011 401.497 533.969 401.197 533.933C400.903 533.891 400.618 533.87 400.342 533.87C399.747 533.87 399.213 533.999 398.739 534.257C398.27 534.509 397.901 534.86 397.631 535.31C397.361 535.761 397.226 536.28 397.226 536.868V545H393.966ZM414.192 534.824L411.22 535.148C411.136 534.848 410.989 534.566 410.779 534.302C410.575 534.038 410.298 533.825 409.95 533.663C409.602 533.5 409.176 533.419 408.672 533.419C407.993 533.419 407.423 533.566 406.961 533.861C406.504 534.155 406.279 534.536 406.285 535.004C406.279 535.407 406.426 535.734 406.726 535.986C407.033 536.238 407.537 536.445 408.239 536.607L410.599 537.111C411.907 537.394 412.88 537.841 413.516 538.453C414.159 539.066 414.483 539.867 414.489 540.858C414.483 541.728 414.228 542.497 413.723 543.163C413.225 543.823 412.532 544.34 411.643 544.712C410.755 545.084 409.734 545.27 408.581 545.27C406.889 545.27 405.526 544.916 404.493 544.208C403.461 543.493 402.845 542.5 402.647 541.227L405.826 540.921C405.97 541.545 406.276 542.016 406.744 542.334C407.213 542.653 407.822 542.812 408.572 542.812C409.347 542.812 409.968 542.653 410.437 542.334C410.911 542.016 411.148 541.623 411.148 541.155C411.148 540.759 410.995 540.431 410.689 540.173C410.389 539.915 409.92 539.717 409.284 539.579L406.925 539.084C405.598 538.807 404.616 538.342 403.98 537.688C403.343 537.027 403.028 536.193 403.034 535.184C403.028 534.332 403.259 533.593 403.728 532.969C404.202 532.339 404.859 531.852 405.7 531.51C406.546 531.162 407.522 530.988 408.627 530.988C410.247 530.988 411.523 531.333 412.454 532.024C413.39 532.714 413.97 533.648 414.192 534.824Z" fill="#111827"/>
<rect x="60" y="350" width="132" height="70" rx="10" fill="#FAFEFA" fill-opacity="0.75"/>
<path d="M82.716 369.779C82.716 371.766 82.3437 373.468 81.5993 374.885C80.8609 376.295 79.8523 377.376 78.5736 378.127C77.3009 378.877 75.857 379.252 74.2421 379.252C72.6272 379.252 71.1804 378.877 69.9016 378.127C68.6289 377.37 67.6203 376.286 66.8759 374.876C66.1375 373.459 65.7683 371.76 65.7683 369.779C65.7683 367.792 66.1375 366.093 66.8759 364.682C67.6203 363.265 68.6289 362.181 69.9016 361.431C71.1804 360.681 72.6272 360.305 74.2421 360.305C75.857 360.305 77.3009 360.681 78.5736 361.431C79.8523 362.181 80.8609 363.265 81.5993 364.682C82.3437 366.093 82.716 367.792 82.716 369.779ZM79.357 369.779C79.357 368.38 79.1379 367.2 78.6997 366.24C78.2674 365.273 77.6671 364.544 76.8986 364.051C76.1302 363.553 75.2447 363.304 74.2421 363.304C73.2395 363.304 72.354 363.553 71.5856 364.051C70.8172 364.544 70.2138 365.273 69.7756 366.24C69.3433 367.2 69.1272 368.38 69.1272 369.779C69.1272 371.178 69.3433 372.36 69.7756 373.327C70.2138 374.287 70.8172 375.017 71.5856 375.515C72.354 376.007 73.2395 376.253 74.2421 376.253C75.2447 376.253 76.1302 376.007 76.8986 375.515C77.6671 375.017 78.2674 374.287 78.6997 373.327C79.1379 372.36 79.357 371.178 79.357 369.779ZM88.2295 370.895V379H84.9697V365.168H88.0855V367.518H88.2475C88.5657 366.744 89.073 366.129 89.7694 365.672C90.4718 365.216 91.3393 364.988 92.3719 364.988C93.3264 364.988 94.1579 365.192 94.8663 365.6C95.5807 366.009 96.1331 366.6 96.5233 367.374C96.9195 368.149 97.1146 369.088 97.1086 370.193V379H93.8487V370.697C93.8487 369.773 93.6086 369.049 93.1283 368.527C92.6541 368.005 91.9967 367.744 91.1562 367.744C90.5859 367.744 90.0786 367.87 89.6343 368.122C89.1961 368.368 88.8509 368.725 88.5987 369.193C88.3526 369.662 88.2295 370.229 88.2295 370.895ZM108.046 369.977V372.66H99.7428V369.977H108.046ZM117.62 365.168V367.69H109.669V365.168H117.62ZM111.632 361.854H114.892V374.84C114.892 375.278 114.958 375.614 115.09 375.848C115.228 376.076 115.408 376.232 115.63 376.316C115.852 376.401 116.099 376.443 116.369 376.443C116.573 376.443 116.759 376.428 116.927 376.398C117.101 376.367 117.233 376.34 117.323 376.316L117.873 378.865C117.698 378.925 117.449 378.991 117.125 379.063C116.807 379.135 116.417 379.177 115.954 379.189C115.138 379.213 114.403 379.09 113.748 378.82C113.094 378.544 112.575 378.117 112.19 377.541C111.812 376.965 111.626 376.244 111.632 375.38V361.854ZM123.143 370.895V379H119.883V360.557H123.071V367.518H123.233C123.557 366.738 124.059 366.123 124.737 365.672C125.421 365.216 126.292 364.988 127.348 364.988C128.309 364.988 129.146 365.189 129.861 365.591C130.575 365.994 131.128 366.582 131.518 367.356C131.914 368.131 132.112 369.076 132.112 370.193V379H128.852V370.697C128.852 369.767 128.612 369.043 128.132 368.527C127.658 368.005 126.991 367.744 126.133 367.744C125.556 367.744 125.04 367.87 124.584 368.122C124.134 368.368 123.779 368.725 123.521 369.193C123.269 369.662 123.143 370.229 123.143 370.895ZM140.798 379.27C139.411 379.27 138.213 378.982 137.205 378.406C136.202 377.823 135.431 377.001 134.89 375.938C134.35 374.87 134.08 373.612 134.08 372.165C134.08 370.742 134.35 369.494 134.89 368.419C135.437 367.338 136.199 366.498 137.178 365.898C138.156 365.291 139.306 364.988 140.627 364.988C141.479 364.988 142.284 365.126 143.04 365.402C143.803 365.672 144.475 366.093 145.057 366.663C145.646 367.233 146.108 367.96 146.444 368.842C146.78 369.719 146.948 370.763 146.948 371.976V372.976H135.611V370.778H143.824C143.818 370.154 143.682 369.599 143.418 369.112C143.154 368.62 142.785 368.233 142.311 367.951C141.842 367.669 141.296 367.527 140.672 367.527C140.005 367.527 139.42 367.69 138.916 368.014C138.411 368.332 138.018 368.752 137.736 369.274C137.46 369.791 137.319 370.358 137.313 370.976V372.895C137.313 373.699 137.46 374.389 137.754 374.966C138.048 375.536 138.459 375.974 138.988 376.28C139.516 376.581 140.134 376.731 140.843 376.731C141.317 376.731 141.746 376.665 142.131 376.533C142.515 376.395 142.848 376.193 143.13 375.929C143.412 375.665 143.625 375.338 143.769 374.948L146.813 375.29C146.621 376.094 146.255 376.797 145.715 377.397C145.18 377.991 144.496 378.454 143.661 378.784C142.827 379.108 141.872 379.27 140.798 379.27ZM157.329 369.977V372.66H149.026V369.977H157.329ZM167.003 365.168V367.69H158.826V365.168H167.003ZM160.871 379V363.862C160.871 362.932 161.063 362.157 161.447 361.539C161.837 360.921 162.359 360.458 163.014 360.152C163.668 359.846 164.395 359.693 165.193 359.693C165.757 359.693 166.259 359.738 166.697 359.828C167.135 359.918 167.459 359.999 167.67 360.071L167.021 362.593C166.883 362.551 166.709 362.509 166.499 362.467C166.289 362.419 166.055 362.395 165.796 362.395C165.19 362.395 164.761 362.542 164.509 362.836C164.263 363.124 164.139 363.538 164.139 364.078V379H160.871ZM172.055 360.557V379H168.795V360.557H172.055ZM176.673 384.187C176.229 384.187 175.817 384.151 175.439 384.079C175.067 384.013 174.77 383.935 174.548 383.845L175.304 381.305C175.778 381.443 176.201 381.509 176.574 381.503C176.946 381.497 177.273 381.38 177.555 381.152C177.843 380.93 178.087 380.558 178.285 380.036L178.564 379.288L173.548 365.168H177.006L180.194 375.614H180.338L183.535 365.168H187.002L181.464 380.675C181.205 381.407 180.863 382.035 180.437 382.557C180.011 383.085 179.488 383.488 178.87 383.764C178.258 384.046 177.525 384.187 176.673 384.187ZM92.4633 410V391.557H95.7231V398.455H95.8582C96.0263 398.119 96.2634 397.762 96.5696 397.384C96.8758 397 97.29 396.672 97.8123 396.402C98.3346 396.126 99.001 395.988 99.8115 395.988C100.88 395.988 101.844 396.261 102.702 396.807C103.567 397.348 104.251 398.149 104.755 399.212C105.266 400.268 105.521 401.565 105.521 403.102C105.521 404.621 105.272 405.912 104.773 406.974C104.275 408.037 103.597 408.847 102.738 409.406C101.88 409.964 100.907 410.243 99.8205 410.243C99.028 410.243 98.3706 410.111 97.8483 409.847C97.326 409.583 96.9058 409.265 96.5876 408.892C96.2754 408.514 96.0323 408.157 95.8582 407.821H95.6691V410H92.4633ZM95.6601 403.084C95.6601 403.979 95.7862 404.762 96.0383 405.434C96.2965 406.107 96.6657 406.632 97.1459 407.01C97.6322 407.383 98.2206 407.569 98.9109 407.569C99.6314 407.569 100.235 407.377 100.721 406.992C101.207 406.602 101.573 406.071 101.82 405.398C102.072 404.72 102.198 403.949 102.198 403.084C102.198 402.226 102.075 401.463 101.829 400.797C101.582 400.13 101.216 399.608 100.73 399.23C100.244 398.852 99.6374 398.663 98.9109 398.663C98.2145 398.663 97.6232 398.846 97.1369 399.212C96.6507 399.578 96.2814 400.091 96.0293 400.752C95.7832 401.412 95.6601 402.19 95.6601 403.084ZM116.347 404.183V396.168H119.607V410H116.446V407.542H116.302C115.99 408.316 115.477 408.949 114.762 409.442C114.054 409.934 113.181 410.18 112.142 410.18C111.235 410.18 110.434 409.979 109.738 409.577C109.047 409.169 108.507 408.577 108.117 407.803C107.726 407.022 107.531 406.08 107.531 404.975V396.168H110.791V404.471C110.791 405.347 111.031 406.044 111.512 406.56C111.992 407.076 112.622 407.334 113.403 407.334C113.883 407.334 114.348 407.217 114.798 406.983C115.249 406.749 115.618 406.401 115.906 405.939C116.2 405.47 116.347 404.885 116.347 404.183ZM122.199 410V396.168H125.458V410H122.199ZM123.838 394.205C123.321 394.205 122.877 394.034 122.505 393.692C122.133 393.343 121.946 392.926 121.946 392.44C121.946 391.948 122.133 391.53 122.505 391.188C122.877 390.84 123.321 390.666 123.838 390.666C124.36 390.666 124.804 390.84 125.17 391.188C125.543 391.53 125.729 391.948 125.729 392.44C125.729 392.926 125.543 393.343 125.17 393.692C124.804 394.034 124.36 394.205 123.838 394.205ZM131.31 391.557V410H128.05V391.557H131.31ZM139.034 410.243C137.947 410.243 136.975 409.964 136.116 409.406C135.258 408.847 134.58 408.037 134.081 406.974C133.583 405.912 133.334 404.621 133.334 403.102C133.334 401.565 133.586 400.268 134.09 399.212C134.601 398.149 135.288 397.348 136.152 396.807C137.017 396.261 137.98 395.988 139.043 395.988C139.854 395.988 140.52 396.126 141.042 396.402C141.565 396.672 141.979 397 142.285 397.384C142.591 397.762 142.828 398.119 142.996 398.455H143.131V391.557H146.4V410H143.194V407.821H142.996C142.828 408.157 142.585 408.514 142.267 408.892C141.949 409.265 141.529 409.583 141.006 409.847C140.484 410.111 139.827 410.243 139.034 410.243ZM139.944 407.569C140.634 407.569 141.222 407.383 141.709 407.01C142.195 406.632 142.564 406.107 142.816 405.434C143.068 404.762 143.194 403.979 143.194 403.084C143.194 402.19 143.068 401.412 142.816 400.752C142.57 400.091 142.204 399.578 141.718 399.212C141.237 398.846 140.646 398.663 139.944 398.663C139.217 398.663 138.611 398.852 138.125 399.23C137.638 399.608 137.272 400.13 137.026 400.797C136.78 401.463 136.657 402.226 136.657 403.084C136.657 403.949 136.78 404.72 137.026 405.398C137.278 406.071 137.647 406.602 138.134 406.992C138.626 407.377 139.229 407.569 139.944 407.569ZM160.046 399.824L157.074 400.148C156.99 399.848 156.843 399.566 156.633 399.302C156.428 399.038 156.152 398.825 155.804 398.663C155.456 398.5 155.03 398.419 154.525 398.419C153.847 398.419 153.277 398.566 152.814 398.861C152.358 399.155 152.133 399.536 152.139 400.004C152.133 400.407 152.28 400.734 152.58 400.986C152.886 401.238 153.391 401.445 154.093 401.607L156.452 402.111C157.761 402.394 158.734 402.841 159.37 403.453C160.013 404.066 160.337 404.867 160.343 405.858C160.337 406.728 160.082 407.497 159.577 408.163C159.079 408.823 158.386 409.34 157.497 409.712C156.609 410.084 155.588 410.27 154.435 410.27C152.742 410.27 151.38 409.916 150.347 409.208C149.314 408.493 148.699 407.5 148.501 406.227L151.68 405.921C151.824 406.545 152.13 407.016 152.598 407.334C153.067 407.653 153.676 407.812 154.426 407.812C155.201 407.812 155.822 407.653 156.29 407.334C156.765 407.016 157.002 406.623 157.002 406.155C157.002 405.759 156.849 405.431 156.543 405.173C156.242 404.915 155.774 404.717 155.138 404.579L152.778 404.084C151.452 403.807 150.47 403.342 149.834 402.688C149.197 402.027 148.882 401.193 148.888 400.184C148.882 399.332 149.113 398.593 149.582 397.969C150.056 397.339 150.713 396.852 151.554 396.51C152.4 396.162 153.376 395.988 154.48 395.988C156.101 395.988 157.377 396.333 158.308 397.024C159.244 397.714 159.823 398.648 160.046 399.824Z" fill="#111827"/>
<rect x="443" y="220" width="137" height="39" rx="10" fill="#FAFEFA" fill-opacity="0.75"/>
<path d="M465.034 236.78H461.666C461.57 236.228 461.393 235.738 461.135 235.312C460.876 234.88 460.555 234.514 460.171 234.214C459.787 233.913 459.349 233.688 458.856 233.538C458.37 233.382 457.845 233.304 457.28 233.304C456.278 233.304 455.389 233.556 454.615 234.06C453.84 234.559 453.234 235.291 452.796 236.258C452.358 237.218 452.138 238.392 452.138 239.779C452.138 241.19 452.358 242.378 452.796 243.345C453.24 244.305 453.846 245.032 454.615 245.524C455.389 246.01 456.275 246.253 457.271 246.253C457.824 246.253 458.34 246.181 458.82 246.037C459.306 245.887 459.742 245.668 460.126 245.38C460.516 245.092 460.843 244.738 461.108 244.317C461.378 243.897 461.564 243.417 461.666 242.877L465.034 242.895C464.908 243.771 464.635 244.593 464.214 245.362C463.8 246.13 463.257 246.809 462.584 247.397C461.912 247.979 461.126 248.436 460.225 248.766C459.325 249.09 458.325 249.252 457.226 249.252C455.605 249.252 454.159 248.877 452.886 248.127C451.613 247.376 450.611 246.292 449.878 244.876C449.146 243.459 448.779 241.76 448.779 239.779C448.779 237.792 449.149 236.093 449.887 234.682C450.626 233.265 451.631 232.181 452.904 231.431C454.177 230.681 455.617 230.305 457.226 230.305C458.253 230.305 459.207 230.449 460.09 230.738C460.972 231.026 461.759 231.449 462.449 232.007C463.14 232.56 463.707 233.238 464.151 234.042C464.602 234.841 464.896 235.753 465.034 236.78ZM473.222 249.27C471.871 249.27 470.7 248.973 469.71 248.379C468.719 247.784 467.951 246.953 467.405 245.884C466.864 244.816 466.594 243.567 466.594 242.138C466.594 240.709 466.864 239.458 467.405 238.383C467.951 237.308 468.719 236.474 469.71 235.88C470.7 235.285 471.871 234.988 473.222 234.988C474.573 234.988 475.743 235.285 476.734 235.88C477.724 236.474 478.49 237.308 479.03 238.383C479.577 239.458 479.85 240.709 479.85 242.138C479.85 243.567 479.577 244.816 479.03 245.884C478.49 246.953 477.724 247.784 476.734 248.379C475.743 248.973 474.573 249.27 473.222 249.27ZM473.24 246.659C473.972 246.659 474.585 246.458 475.077 246.055C475.569 245.647 475.935 245.101 476.176 244.416C476.422 243.732 476.545 242.97 476.545 242.129C476.545 241.283 476.422 240.517 476.176 239.833C475.935 239.142 475.569 238.593 475.077 238.185C474.585 237.777 473.972 237.572 473.24 237.572C472.489 237.572 471.865 237.777 471.367 238.185C470.875 238.593 470.505 239.142 470.259 239.833C470.019 240.517 469.899 241.283 469.899 242.129C469.899 242.97 470.019 243.732 470.259 244.416C470.505 245.101 470.875 245.647 471.367 246.055C471.865 246.458 472.489 246.659 473.24 246.659ZM485.116 240.895V249H481.856V235.168H484.972V237.518H485.134C485.452 236.744 485.959 236.129 486.655 235.672C487.358 235.216 488.225 234.988 489.258 234.988C490.213 234.988 491.044 235.192 491.752 235.6C492.467 236.009 493.019 236.6 493.409 237.374C493.806 238.149 494.001 239.088 493.995 240.193V249H490.735V240.697C490.735 239.773 490.495 239.049 490.014 238.527C489.54 238.005 488.883 237.744 488.042 237.744C487.472 237.744 486.965 237.87 486.52 238.122C486.082 238.368 485.737 238.725 485.485 239.193C485.239 239.662 485.116 240.229 485.116 240.895ZM503.455 235.168V237.69H495.503V235.168H503.455ZM497.466 231.854H500.726V244.84C500.726 245.278 500.792 245.614 500.924 245.848C501.062 246.076 501.242 246.232 501.465 246.316C501.687 246.401 501.933 246.443 502.203 246.443C502.407 246.443 502.593 246.428 502.761 246.398C502.935 246.367 503.068 246.34 503.158 246.316L503.707 248.865C503.533 248.925 503.284 248.991 502.959 249.063C502.641 249.135 502.251 249.177 501.789 249.189C500.972 249.213 500.237 249.09 499.583 248.82C498.928 248.544 498.409 248.117 498.025 247.541C497.646 246.965 497.46 246.244 497.466 245.38V231.854ZM509.401 249.279C508.524 249.279 507.735 249.123 507.032 248.811C506.336 248.493 505.784 248.024 505.375 247.406C504.973 246.788 504.772 246.025 504.772 245.119C504.772 244.338 504.916 243.693 505.204 243.183C505.492 242.672 505.886 242.264 506.384 241.958C506.882 241.652 507.443 241.421 508.068 241.265C508.698 241.102 509.35 240.985 510.022 240.913C510.832 240.829 511.49 240.754 511.994 240.688C512.498 240.616 512.865 240.508 513.093 240.364C513.327 240.214 513.444 239.983 513.444 239.671V239.617C513.444 238.938 513.243 238.413 512.841 238.041C512.438 237.669 511.859 237.482 511.103 237.482C510.304 237.482 509.671 237.657 509.202 238.005C508.74 238.353 508.428 238.764 508.266 239.238L505.222 238.806C505.462 237.966 505.859 237.263 506.411 236.699C506.963 236.129 507.639 235.702 508.437 235.42C509.235 235.132 510.118 234.988 511.085 234.988C511.751 234.988 512.414 235.066 513.075 235.222C513.735 235.378 514.338 235.636 514.885 235.997C515.431 236.351 515.869 236.834 516.199 237.446C516.536 238.059 516.704 238.824 516.704 239.743V249H513.57V247.1H513.462C513.264 247.484 512.985 247.844 512.624 248.181C512.27 248.511 511.823 248.778 511.283 248.982C510.748 249.18 510.121 249.279 509.401 249.279ZM510.247 246.884C510.901 246.884 511.469 246.755 511.949 246.497C512.429 246.232 512.799 245.884 513.057 245.452C513.321 245.02 513.453 244.548 513.453 244.038V242.408C513.351 242.492 513.177 242.57 512.931 242.642C512.69 242.714 512.42 242.777 512.12 242.831C511.82 242.886 511.523 242.934 511.229 242.976C510.934 243.018 510.679 243.054 510.463 243.084C509.977 243.15 509.542 243.258 509.157 243.408C508.773 243.558 508.47 243.768 508.248 244.038C508.026 244.302 507.915 244.645 507.915 245.065C507.915 245.665 508.134 246.118 508.572 246.425C509.01 246.731 509.569 246.884 510.247 246.884ZM519.221 249V235.168H522.481V249H519.221ZM520.86 233.205C520.344 233.205 519.899 233.034 519.527 232.692C519.155 232.343 518.969 231.926 518.969 231.44C518.969 230.948 519.155 230.53 519.527 230.188C519.899 229.84 520.344 229.666 520.86 229.666C521.382 229.666 521.826 229.84 522.193 230.188C522.565 230.53 522.751 230.948 522.751 231.44C522.751 231.926 522.565 232.343 522.193 232.692C521.826 233.034 521.382 233.205 520.86 233.205ZM528.332 240.895V249H525.072V235.168H528.188V237.518H528.35C528.668 236.744 529.175 236.129 529.872 235.672C530.574 235.216 531.442 234.988 532.474 234.988C533.429 234.988 534.26 235.192 534.969 235.6C535.683 236.009 536.236 236.6 536.626 237.374C537.022 238.149 537.217 239.088 537.211 240.193V249H533.951V240.697C533.951 239.773 533.711 239.049 533.231 238.527C532.757 238.005 532.099 237.744 531.259 237.744C530.688 237.744 530.181 237.87 529.737 238.122C529.299 238.368 528.953 238.725 528.701 239.193C528.455 239.662 528.332 240.229 528.332 240.895ZM545.888 249.27C544.501 249.27 543.303 248.982 542.295 248.406C541.292 247.823 540.521 247.001 539.98 245.938C539.44 244.87 539.17 243.612 539.17 242.165C539.17 240.742 539.44 239.494 539.98 238.419C540.527 237.338 541.289 236.498 542.268 235.898C543.246 235.291 544.396 234.988 545.717 234.988C546.569 234.988 547.374 235.126 548.13 235.402C548.892 235.672 549.565 236.093 550.147 236.663C550.735 237.233 551.198 237.96 551.534 238.842C551.87 239.719 552.038 240.763 552.038 241.976V242.976H540.701V240.778H548.913C548.907 240.154 548.772 239.599 548.508 239.112C548.244 238.62 547.875 238.233 547.401 237.951C546.932 237.669 546.386 237.527 545.762 237.527C545.095 237.527 544.51 237.69 544.006 238.014C543.501 238.332 543.108 238.752 542.826 239.274C542.55 239.791 542.409 240.358 542.403 240.976V242.895C542.403 243.699 542.55 244.389 542.844 244.966C543.138 245.536 543.549 245.974 544.078 246.28C544.606 246.581 545.224 246.731 545.933 246.731C546.407 246.731 546.836 246.665 547.22 246.533C547.605 246.395 547.938 246.193 548.22 245.929C548.502 245.665 548.715 245.338 548.859 244.948L551.903 245.29C551.711 246.094 551.345 246.797 550.805 247.397C550.27 247.991 549.586 248.454 548.751 248.784C547.917 249.108 546.962 249.27 545.888 249.27ZM554.035 249V235.168H557.196V237.473H557.34C557.592 236.675 558.025 236.06 558.637 235.627C559.255 235.189 559.961 234.97 560.753 234.97C560.933 234.97 561.134 234.979 561.356 234.997C561.585 235.009 561.774 235.03 561.924 235.06V238.059C561.786 238.011 561.567 237.969 561.266 237.933C560.972 237.891 560.687 237.87 560.411 237.87C559.817 237.87 559.282 237.999 558.808 238.257C558.34 238.509 557.971 238.86 557.7 239.31C557.43 239.761 557.295 240.28 557.295 240.868V249H554.035ZM574.261 238.824L571.289 239.148C571.205 238.848 571.058 238.566 570.848 238.302C570.644 238.038 570.368 237.825 570.02 237.663C569.671 237.5 569.245 237.419 568.741 237.419C568.063 237.419 567.492 237.566 567.03 237.861C566.574 238.155 566.349 238.536 566.355 239.004C566.349 239.407 566.496 239.734 566.796 239.986C567.102 240.238 567.606 240.445 568.309 240.607L570.668 241.111C571.977 241.394 572.949 241.841 573.586 242.453C574.228 243.066 574.552 243.867 574.558 244.858C574.552 245.728 574.297 246.497 573.793 247.163C573.294 247.823 572.601 248.34 571.713 248.712C570.824 249.084 569.803 249.27 568.651 249.27C566.958 249.27 565.595 248.916 564.563 248.208C563.53 247.493 562.915 246.5 562.716 245.227L565.895 244.921C566.039 245.545 566.346 246.016 566.814 246.334C567.282 246.653 567.891 246.812 568.642 246.812C569.416 246.812 570.038 246.653 570.506 246.334C570.98 246.016 571.217 245.623 571.217 245.155C571.217 244.759 571.064 244.431 570.758 244.173C570.458 243.915 569.99 243.717 569.353 243.579L566.994 243.084C565.667 242.807 564.686 242.342 564.049 241.688C563.413 241.027 563.098 240.193 563.104 239.184C563.098 238.332 563.329 237.593 563.797 236.969C564.271 236.339 564.929 235.852 565.769 235.51C566.616 235.162 567.591 234.988 568.696 234.988C570.317 234.988 571.593 235.333 572.523 236.024C573.46 236.714 574.039 237.648 574.261 238.824Z" fill="#111827"/>
</g>
<defs>
<linearGradient id="paint0_linear_89_1047" x1="320" y1="169.5" x2="191" y2="169.5" gradientUnits="userSpaceOnUse">
<stop offset="0.245192" stop-color="#2E6E3E"/>
<stop offset="1" stop-color="#212121"/>
</linearGradient>
<linearGradient id="paint1_linear_89_1047" x1="470.5" y1="320" x2="470.5" y2="191" gradientUnits="userSpaceOnUse">
<stop offset="0.245192" stop-color="#2E6E3E"/>
<stop offset="1" stop-color="#212121"/>
</linearGradient>
<linearGradient id="paint2_linear_89_1047" x1="320" y1="470.5" x2="449" y2="470.5" gradientUnits="userSpaceOnUse">
<stop offset="0.245192" stop-color="#2E6E3E"/>
<stop offset="1" stop-color="#212121"/>
</linearGradient>
<linearGradient id="paint3_linear_89_1047" x1="166.5" y1="320" x2="166.5" y2="449" gradientUnits="userSpaceOnUse">
<stop offset="0.245192" stop-color="#2E6E3E"/>
<stop offset="1" stop-color="#212121"/>
</linearGradient>
<linearGradient id="paint4_linear_89_1047" x1="520" y1="460" x2="520" y2="580" gradientUnits="userSpaceOnUse">
<stop stop-color="#2E6E3E"/>
<stop offset="1" stop-color="#212121"/>
</linearGradient>
<linearGradient id="paint5_linear_89_1047" x1="520" y1="460" x2="520" y2="580" gradientUnits="userSpaceOnUse">
<stop stop-color="#2E6E3E"/>
<stop offset="1" stop-color="#212121"/>
</linearGradient>
<linearGradient id="paint6_linear_89_1047" x1="120" y1="60" x2="120" y2="180" gradientUnits="userSpaceOnUse">
<stop stop-color="#2E6E3E"/>
<stop offset="1" stop-color="#212121"/>
</linearGradient>
<linearGradient id="paint7_linear_89_1047" x1="120" y1="60" x2="120" y2="180" gradientUnits="userSpaceOnUse">
<stop stop-color="#2E6E3E"/>
<stop offset="1" stop-color="#212121"/>
</linearGradient>
<linearGradient id="paint8_linear_89_1047" x1="520" y1="60" x2="520" y2="180" gradientUnits="userSpaceOnUse">
<stop stop-color="#2E6E3E"/>
<stop offset="1" stop-color="#212121"/>
</linearGradient>
<linearGradient id="paint9_linear_89_1047" x1="520" y1="60" x2="520" y2="180" gradientUnits="userSpaceOnUse">
<stop stop-color="#2E6E3E"/>
<stop offset="1" stop-color="#212121"/>
</linearGradient>
<linearGradient id="paint10_linear_89_1047" x1="120" y1="460" x2="120" y2="580" gradientUnits="userSpaceOnUse">
<stop stop-color="#2E6E3E"/>
<stop offset="1" stop-color="#212121"/>
</linearGradient>
<linearGradient id="paint11_linear_89_1047" x1="120" y1="460" x2="120" y2="580" gradientUnits="userSpaceOnUse">
<stop stop-color="#2E6E3E"/>
<stop offset="1" stop-color="#212121"/>
</linearGradient>
<clipPath id="clip0_89_1047">
<path d="M0 18C0 8.05887 8.05887 0 18 0H622C631.941 0 640 8.05887 640 18V622C640 631.941 631.941 640 622 640H18C8.05887 640 0 631.941 0 622V18Z" fill="white"/>
</clipPath>
<clipPath id="clip1_89_1047">
<rect x="220" y="220" width="190" height="190" rx="18" fill="white"/>
</clipPath>
</defs>
</svg>
