<svg width="884" height="888" viewBox="0 0 884 888" fill="none" xmlns="http://www.w3.org/2000/svg">
<rect x="2.5" y="2.5" width="879" height="883" rx="15.5" fill="white"/>
<rect x="2.5" y="2.5" width="879" height="883" rx="15.5" stroke="#2D684B" stroke-width="5"/>
<rect x="80" y="383" width="120" height="120" rx="7.63157" fill="white"/>
<rect x="80" y="383" width="120" height="120" rx="7.63157" stroke="#A06892" stroke-width="6.63731"/>
<g clip-path="url(#clip0_2173_1635)">
<path d="M119.851 403H109.873C107.454 403 105.502 405.039 105.502 407.543V411.859H114.11C114.605 411.859 114.995 412.275 114.995 412.78C114.995 413.285 114.595 413.7 114.11 413.7H105.502V413.74H100.894C98.1899 413.74 96 416.017 96 418.828V428.736C96 430.468 97.352 431.874 99.0183 431.874H104.008V427.083C104.008 424.351 106.14 422.134 108.768 422.134H119.489C122.098 422.134 124.221 419.936 124.221 417.214V407.543C124.221 405.029 122.26 403 119.851 403ZM109.758 409.573C108.94 409.573 108.283 408.88 108.283 408.038C108.283 407.197 108.949 406.504 109.758 406.504C110.568 406.504 111.234 407.197 111.234 408.038C111.234 408.88 110.568 409.573 109.758 409.573Z" fill="#505050"/>
<path d="M110.139 443H120.118C122.536 443 124.488 440.961 124.488 438.457V434.141H115.881C115.386 434.141 114.995 433.725 114.995 433.22C114.995 432.715 115.395 432.3 115.881 432.3H124.488V432.26H129.096C131.801 432.26 133.99 429.983 133.99 427.172V417.264C133.99 415.532 132.638 414.126 130.972 414.126H125.983V418.917C125.983 421.649 123.85 423.866 121.222 423.866H110.53C107.902 423.866 105.769 426.083 105.769 428.815V438.457C105.769 440.971 107.73 443 110.139 443ZM120.242 436.437C121.06 436.437 121.717 437.13 121.717 437.972C121.717 438.813 121.051 439.506 120.242 439.506C119.432 439.506 118.766 438.813 118.766 437.972C118.766 437.13 119.432 436.437 120.242 436.437Z" fill="#505050"/>
</g>
<path d="M162.183 438.377L167.522 442L184.32 432.25V412.75L167.522 403L150.723 412.75V432.25L155.505 434.825C156.017 435.105 156.565 435.304 157.14 435.413C158.695 435.711 161.446 435.792 161.509 432.584C161.59 428.5 161.509 414.295 161.509 414.295" stroke="#505050" stroke-width="4" stroke-linejoin="round"/>
<path d="M177.831 419.834C177.831 419.834 178.083 416.437 174.704 415.75C172.169 415.244 167.261 415.072 166.417 418.135C165.653 420.91 167.603 422.392 172.511 422.392C177.076 422.392 178.604 423.666 177.966 426.729C177.481 429.087 173.355 429.539 171.153 429.367C168.951 429.196 165.653 429.024 165.653 425.075" stroke="#505050" stroke-width="4" stroke-linejoin="round"/>
<path d="M162.952 465.605C160.627 460.686 155.139 459.845 151.079 460.593C144.773 461.751 142.359 469.274 142.359 469.274H132.526L131.225 473.906H136.881C136.881 473.906 135.679 476.12 133.915 476.612C132.792 476.92 130.309 476.376 129.462 475.546C128.693 474.788 128.259 472.953 128.259 471.877C128.259 470.924 128.545 469.202 128.91 468.505C129.462 467.439 130.486 466.292 133.265 465.707C136.043 465.134 137.906 467.921 137.906 467.921L142.911 465.8C142.911 465.8 140.96 461.649 137.344 460.593C133.294 459.404 130.013 459.917 126.496 462.91C123.106 465.789 121.845 471.887 122.693 475.065C123.806 479.215 125.471 480.66 128.811 481.624C132.151 482.587 136.674 481.265 137.718 480.66C140.034 479.308 142.261 475.936 142.261 475.936C142.261 475.936 143.285 478.057 144.024 479.215C144.763 480.373 149.256 484.545 157.011 481.429C164.706 478.344 164.933 469.827 162.942 465.605H162.952ZM157.76 471.969C156.833 475.536 153.868 477.084 151.542 476.602C148.084 475.884 147.187 472.451 148.202 470.135C149.227 467.819 150.478 466.138 153.02 466.087C157.474 465.994 158.528 468.977 157.75 471.969H157.76Z" fill="#505050"/>
<path d="M122.437 465.344H111.75V466.531H122.437V465.344Z" fill="#505050"/>
<path d="M120.063 471.281H112.938V472.469H120.063V471.281Z" fill="#505050"/>
<path d="M120.656 468.312H107V469.5H120.656V468.312Z" fill="#505050"/>
<path d="M108.341 549.519C108.341 552.611 107.775 555.27 106.644 557.495C105.512 559.71 103.961 561.417 101.991 562.614C100.03 563.802 97.8001 564.396 95.3016 564.396C92.7938 564.396 90.5546 563.802 88.5842 562.614C86.6232 561.417 85.077 559.706 83.9456 557.481C82.8143 555.256 82.2486 552.602 82.2486 549.519C82.2486 546.426 82.8143 543.772 83.9456 541.557C85.077 539.332 86.6232 537.625 88.5842 536.437C90.5546 535.24 92.7938 534.641 95.3016 534.641C97.8001 534.641 100.03 535.24 101.991 536.437C103.961 537.625 105.512 539.332 106.644 541.557C107.775 543.772 108.341 546.426 108.341 549.519ZM104.013 549.519C104.013 547.162 103.631 545.177 102.868 543.565C102.113 541.943 101.076 540.718 99.7564 539.888C98.4459 539.049 96.961 538.629 95.3016 538.629C93.6329 538.629 92.1433 539.049 90.8328 539.888C89.5223 540.718 88.4852 541.943 87.7215 543.565C86.9673 545.177 86.5902 547.162 86.5902 549.519C86.5902 551.876 86.9673 553.865 87.7215 555.487C88.4852 557.099 89.5223 558.324 90.8328 559.163C92.1433 559.993 93.6329 560.408 95.3016 560.408C96.961 560.408 98.4459 559.993 99.7564 559.163C101.076 558.324 102.113 557.099 102.868 555.487C103.631 553.865 104.013 551.876 104.013 549.519ZM117.678 551.103V564H113.449V542.278H117.508V545.813H117.777C118.276 544.663 119.059 543.739 120.124 543.042C121.199 542.344 122.552 541.995 124.183 541.995C125.663 541.995 126.96 542.306 128.072 542.928C129.185 543.541 130.047 544.456 130.66 545.672C131.273 546.888 131.579 548.392 131.579 550.183V564H127.351V550.692C127.351 549.118 126.941 547.888 126.121 547.001C125.3 546.106 124.174 545.658 122.741 545.658C121.76 545.658 120.888 545.87 120.124 546.294C119.37 546.718 118.771 547.341 118.328 548.161C117.895 548.972 117.678 549.952 117.678 551.103ZM150.049 549.929V553.591H137.208V549.929H150.049ZM165.824 542.278V545.672H153.959V542.278H165.824ZM157.141 537.074H161.369V557.622C161.369 558.442 161.492 559.06 161.737 559.475C161.982 559.88 162.298 560.158 162.685 560.309C163.081 560.45 163.51 560.521 163.972 560.521C164.311 560.521 164.608 560.498 164.863 560.45C165.117 560.403 165.315 560.366 165.457 560.337L166.22 563.83C165.975 563.925 165.626 564.019 165.174 564.113C164.721 564.217 164.155 564.273 163.477 564.283C162.364 564.302 161.327 564.104 160.365 563.689C159.404 563.274 158.626 562.633 158.032 561.766C157.438 560.898 157.141 559.809 157.141 558.499V537.074ZM175.197 551.103V564H170.968V535.037H175.14V545.813H175.409C175.918 544.644 176.696 543.716 177.742 543.027C178.789 542.339 180.156 541.995 181.844 541.995C183.333 541.995 184.634 542.301 185.747 542.914C186.869 543.527 187.736 544.442 188.349 545.658C188.971 546.865 189.282 548.373 189.282 550.183V564H185.054V550.692C185.054 549.099 184.644 547.864 183.823 546.987C183.003 546.101 181.862 545.658 180.401 545.658C179.402 545.658 178.506 545.87 177.714 546.294C176.932 546.718 176.314 547.341 175.861 548.161C175.418 548.972 175.197 549.952 175.197 551.103ZM204.287 564.438C202.147 564.438 200.304 563.981 198.757 563.067C197.221 562.143 196.033 560.846 195.194 559.178C194.364 557.499 193.949 555.534 193.949 553.28C193.949 551.055 194.364 549.094 195.194 547.397C196.033 545.7 197.202 544.376 198.701 543.423C200.209 542.471 201.972 541.995 203.99 541.995C205.216 541.995 206.403 542.198 207.554 542.603C208.704 543.009 209.736 543.645 210.651 544.512C211.565 545.38 212.287 546.506 212.815 547.892C213.342 549.269 213.606 550.942 213.606 552.913V554.412H196.339V551.244H209.463C209.463 550.131 209.237 549.146 208.784 548.288C208.331 547.421 207.695 546.737 206.875 546.238C206.064 545.738 205.112 545.488 204.018 545.488C202.83 545.488 201.793 545.78 200.907 546.365C200.03 546.94 199.351 547.694 198.87 548.628C198.399 549.552 198.163 550.556 198.163 551.64V554.115C198.163 555.567 198.418 556.802 198.927 557.82C199.446 558.838 200.167 559.616 201.091 560.153C202.015 560.681 203.094 560.945 204.329 560.945C205.131 560.945 205.861 560.832 206.521 560.606C207.181 560.37 207.752 560.021 208.232 559.559C208.713 559.097 209.081 558.527 209.336 557.848L213.338 558.569C213.017 559.748 212.442 560.78 211.612 561.667C210.792 562.543 209.76 563.227 208.515 563.717C207.28 564.198 205.871 564.438 204.287 564.438ZM231.097 549.929V553.591H218.256V549.929H231.097ZM247.07 542.278V545.672H234.795V542.278H247.07ZM238.16 564V539.761C238.16 538.403 238.457 537.276 239.051 536.381C239.645 535.476 240.433 534.802 241.413 534.358C242.394 533.906 243.459 533.68 244.609 533.68C245.458 533.68 246.184 533.75 246.787 533.892C247.39 534.024 247.838 534.146 248.131 534.259L247.141 537.682C246.943 537.625 246.688 537.559 246.377 537.484C246.066 537.399 245.689 537.356 245.246 537.356C244.218 537.356 243.483 537.611 243.039 538.12C242.606 538.629 242.389 539.365 242.389 540.326V564H238.16ZM255.661 535.037V564H251.433V535.037H255.661ZM264.023 572.146C263.391 572.146 262.816 572.094 262.297 571.99C261.779 571.896 261.392 571.792 261.138 571.679L262.156 568.214C262.929 568.422 263.617 568.511 264.221 568.483C264.824 568.455 265.357 568.228 265.819 567.804C266.29 567.38 266.705 566.687 267.063 565.725L267.586 564.283L259.639 542.278H264.164L269.665 559.135H269.892L275.393 542.278H279.932L270.981 566.899C270.566 568.03 270.038 568.987 269.397 569.77C268.756 570.562 267.992 571.156 267.106 571.552C266.219 571.948 265.192 572.146 264.023 572.146ZM83.1819 612V583.037H87.4104V593.799H87.665C87.9101 593.347 88.2636 592.823 88.7256 592.229C89.1876 591.636 89.8287 591.117 90.6489 590.674C91.4692 590.221 92.5534 589.995 93.9016 589.995C95.6552 589.995 97.2202 590.438 98.5967 591.324C99.9732 592.211 101.053 593.488 101.835 595.157C102.627 596.826 103.023 598.834 103.023 601.181C103.023 603.529 102.632 605.542 101.849 607.22C101.067 608.889 99.9921 610.176 98.625 611.081C97.2579 611.976 95.6976 612.424 93.944 612.424C92.6241 612.424 91.5446 612.203 90.7055 611.76C89.8758 611.316 89.2253 610.798 88.7539 610.204C88.2825 609.61 87.9195 609.082 87.665 608.62H87.3114V612H83.1819ZM87.3256 601.139C87.3256 602.666 87.5471 604.005 87.9902 605.155C88.4333 606.305 89.0744 607.206 89.9135 607.856C90.7526 608.498 91.7803 608.818 92.9965 608.818C94.2598 608.818 95.3158 608.483 96.1643 607.814C97.0128 607.135 97.6539 606.216 98.0876 605.056C98.5307 603.897 98.7523 602.591 98.7523 601.139C98.7523 599.706 98.5354 598.419 98.1017 597.278C97.6775 596.137 97.0364 595.237 96.1784 594.577C95.3299 593.917 94.2693 593.587 92.9965 593.587C91.7708 593.587 90.7338 593.903 89.8853 594.535C89.0462 595.166 88.4098 596.048 87.9761 597.179C87.5424 598.311 87.3256 599.63 87.3256 601.139ZM121.531 602.992V590.278H125.774V612H121.616V608.238H121.39C120.89 609.398 120.089 610.364 118.986 611.137C117.892 611.901 116.53 612.283 114.899 612.283C113.504 612.283 112.268 611.976 111.194 611.364C110.128 610.741 109.289 609.822 108.676 608.606C108.073 607.39 107.771 605.886 107.771 604.095V590.278H112V603.586C112 605.066 112.41 606.244 113.23 607.121C114.05 607.998 115.116 608.436 116.426 608.436C117.218 608.436 118.005 608.238 118.788 607.842C119.58 607.446 120.235 606.848 120.754 606.046C121.282 605.245 121.541 604.227 121.531 602.992ZM131.456 612V590.278H135.684V612H131.456ZM133.591 586.926C132.856 586.926 132.224 586.681 131.696 586.191C131.178 585.691 130.918 585.097 130.918 584.409C130.918 583.711 131.178 583.117 131.696 582.627C132.224 582.127 132.856 581.878 133.591 581.878C134.326 581.878 134.953 582.127 135.472 582.627C136 583.117 136.264 583.711 136.264 584.409C136.264 585.097 136 585.691 135.472 586.191C134.953 586.681 134.326 586.926 133.591 586.926ZM145.601 583.037V612H141.373V583.037H145.601ZM159.421 612.424C157.668 612.424 156.103 611.976 154.726 611.081C153.359 610.176 152.284 608.889 151.502 607.22C150.729 605.542 150.342 603.529 150.342 601.181C150.342 598.834 150.734 596.826 151.516 595.157C152.308 593.488 153.392 592.211 154.769 591.324C156.145 590.438 157.706 589.995 159.45 589.995C160.798 589.995 161.882 590.221 162.702 590.674C163.532 591.117 164.173 591.636 164.626 592.229C165.088 592.823 165.446 593.347 165.7 593.799H165.955V583.037H170.183V612H166.054V608.62H165.7C165.446 609.082 165.078 609.61 164.597 610.204C164.126 610.798 163.475 611.316 162.646 611.76C161.816 612.203 160.741 612.424 159.421 612.424ZM160.355 608.818C161.571 608.818 162.599 608.498 163.438 607.856C164.286 607.206 164.927 606.305 165.361 605.155C165.804 604.005 166.026 602.666 166.026 601.139C166.026 599.63 165.809 598.311 165.375 597.179C164.942 596.048 164.305 595.166 163.466 594.535C162.627 593.903 161.59 593.587 160.355 593.587C159.082 593.587 158.021 593.917 157.173 594.577C156.324 595.237 155.683 596.137 155.25 597.278C154.825 598.419 154.613 599.706 154.613 601.139C154.613 602.591 154.83 603.897 155.264 605.056C155.697 606.216 156.338 607.135 157.187 607.814C158.045 608.483 159.101 608.818 160.355 608.818ZM192.496 595.581L188.664 596.26C188.503 595.77 188.249 595.303 187.9 594.86C187.56 594.417 187.098 594.054 186.514 593.771C185.929 593.488 185.199 593.347 184.322 593.347C183.125 593.347 182.125 593.615 181.324 594.153C180.522 594.681 180.122 595.364 180.122 596.203C180.122 596.929 180.39 597.514 180.928 597.957C181.465 598.4 182.333 598.763 183.53 599.046L186.981 599.838C188.979 600.3 190.469 601.012 191.449 601.973C192.43 602.935 192.92 604.184 192.92 605.721C192.92 607.022 192.543 608.182 191.789 609.2C191.044 610.209 190.002 611.001 188.664 611.576C187.334 612.151 185.793 612.438 184.039 612.438C181.607 612.438 179.622 611.92 178.085 610.883C176.549 609.836 175.606 608.351 175.257 606.428L179.344 605.806C179.598 606.871 180.122 607.677 180.914 608.224C181.706 608.761 182.738 609.03 184.011 609.03C185.397 609.03 186.505 608.743 187.334 608.168C188.164 607.583 188.579 606.871 188.579 606.032C188.579 605.353 188.324 604.783 187.815 604.321C187.315 603.859 186.547 603.51 185.51 603.274L181.833 602.468C179.806 602.006 178.307 601.271 177.336 600.262C176.374 599.253 175.893 597.976 175.893 596.43C175.893 595.147 176.252 594.026 176.968 593.064C177.685 592.102 178.675 591.353 179.938 590.815C181.201 590.268 182.648 589.995 184.279 589.995C186.627 589.995 188.475 590.504 189.823 591.522C191.171 592.531 192.062 593.884 192.496 595.581Z" fill="#A06892"/>
<rect x="293.54" y="416.563" width="31.3206" height="55.2716" fill="white"/>
<path d="M309.207 444.197L201.981 444.192" stroke="#828282" stroke-width="6.44836"/>
<rect x="188.16" y="432.224" width="23.951" height="23.951" rx="11.9755" fill="#828282"/>
<circle cx="200.136" cy="444.199" r="5.52716" fill="white"/>
<g clip-path="url(#clip1_2173_1635)">
<path d="M321.313 444.199L304.732 458.017L304.731 430.382L321.313 444.199Z" fill="#828282"/>
</g>
<rect x="387" y="80" width="120" height="120" rx="7.63157" fill="white"/>
<rect x="387" y="80" width="120" height="120" rx="7.63157" stroke="#723B33" stroke-width="6.63731"/>
<g clip-path="url(#clip2_2173_1635)">
<path d="M472.468 133.139L468.988 131.035L468.841 124.176H417.009L417.176 157.254C417.176 160.101 420.145 162.409 423.039 162.409H439.279L441.443 165.741H423.039C417.811 165.741 413.574 161.503 413.574 156.276V123.673C413.574 121.931 414.986 120.518 416.729 120.518H469.313C471.055 120.518 472.468 121.931 472.468 123.673V133.139Z" fill="#505050"/>
<path d="M415.677 122.622L422.067 111.036C422.419 110.398 423.09 110.002 423.818 110.002H461.936C462.655 110.002 463.319 110.388 463.675 111.013L470.276 122.622" stroke="#505050" stroke-width="4" stroke-linecap="round"/>
<path d="M443.02 111.053V122.028" stroke="#505050" stroke-width="4" stroke-linecap="round"/>
<circle cx="462.477" cy="154.698" r="16.301" stroke="#505050" stroke-width="4"/>
<path d="M455.64 155.224L460.017 159.601C460.47 160.053 461.225 159.97 461.568 159.43L468.26 148.914" stroke="#505050" stroke-width="4" stroke-linecap="round"/>
</g>
<path d="M191.973 124.037L200.034 147.626H200.359L208.42 124.037H213.143L202.721 153H197.672L187.249 124.037H191.973ZM221.169 153.481C219.792 153.481 218.548 153.226 217.435 152.717C216.323 152.199 215.441 151.449 214.791 150.469C214.15 149.488 213.829 148.286 213.829 146.862C213.829 145.637 214.065 144.628 214.536 143.836C215.008 143.044 215.644 142.417 216.445 141.955C217.247 141.493 218.143 141.144 219.132 140.909C220.122 140.673 221.131 140.494 222.159 140.371C223.46 140.22 224.516 140.098 225.327 140.004C226.137 139.9 226.727 139.735 227.094 139.509C227.462 139.282 227.646 138.915 227.646 138.405V138.306C227.646 137.071 227.297 136.114 226.599 135.436C225.911 134.757 224.884 134.417 223.516 134.417C222.093 134.417 220.971 134.733 220.151 135.365C219.34 135.987 218.779 136.68 218.468 137.444L214.494 136.539C214.965 135.219 215.654 134.153 216.559 133.343C217.473 132.522 218.524 131.928 219.712 131.561C220.9 131.184 222.149 130.995 223.46 130.995C224.327 130.995 225.246 131.099 226.218 131.306C227.198 131.504 228.113 131.872 228.961 132.409C229.819 132.947 230.521 133.715 231.068 134.714C231.615 135.704 231.889 136.991 231.889 138.575V153H227.759V150.03H227.589C227.316 150.577 226.906 151.114 226.359 151.642C225.812 152.17 225.11 152.609 224.252 152.958C223.394 153.306 222.366 153.481 221.169 153.481ZM222.088 150.087C223.257 150.087 224.257 149.856 225.086 149.394C225.925 148.932 226.562 148.328 226.995 147.584C227.439 146.829 227.66 146.023 227.66 145.165V142.365C227.509 142.516 227.217 142.657 226.783 142.789C226.359 142.912 225.873 143.02 225.327 143.115C224.78 143.2 224.247 143.28 223.729 143.355C223.21 143.421 222.776 143.478 222.428 143.525C221.607 143.629 220.858 143.803 220.179 144.048C219.51 144.293 218.972 144.647 218.567 145.109C218.171 145.561 217.973 146.165 217.973 146.919C217.973 147.965 218.359 148.757 219.132 149.295C219.906 149.823 220.891 150.087 222.088 150.087ZM241.749 124.037V153H237.521V124.037H241.749ZM247.438 153V131.278H251.666V153H247.438ZM249.573 127.926C248.838 127.926 248.206 127.681 247.678 127.191C247.16 126.691 246.9 126.097 246.9 125.409C246.9 124.711 247.16 124.117 247.678 123.627C248.206 123.127 248.838 122.878 249.573 122.878C250.308 122.878 250.935 123.127 251.454 123.627C251.982 124.117 252.246 124.711 252.246 125.409C252.246 126.097 251.982 126.691 251.454 127.191C250.935 127.681 250.308 127.926 249.573 127.926ZM265.486 153.424C263.733 153.424 262.168 152.976 260.791 152.081C259.424 151.176 258.349 149.889 257.567 148.22C256.794 146.542 256.407 144.529 256.407 142.181C256.407 139.834 256.798 137.826 257.581 136.157C258.373 134.488 259.457 133.211 260.834 132.324C262.21 131.438 263.77 130.995 265.515 130.995C266.863 130.995 267.947 131.221 268.767 131.674C269.597 132.117 270.238 132.636 270.691 133.229C271.153 133.823 271.511 134.347 271.765 134.799H272.02V124.037H276.248V153H272.119V149.62H271.765C271.511 150.082 271.143 150.61 270.662 151.204C270.191 151.798 269.54 152.316 268.711 152.76C267.881 153.203 266.806 153.424 265.486 153.424ZM266.42 149.818C267.636 149.818 268.664 149.498 269.503 148.856C270.351 148.206 270.992 147.305 271.426 146.155C271.869 145.005 272.091 143.666 272.091 142.139C272.091 140.63 271.874 139.311 271.44 138.179C271.006 137.048 270.37 136.166 269.531 135.535C268.692 134.903 267.655 134.587 266.42 134.587C265.147 134.587 264.086 134.917 263.238 135.577C262.389 136.237 261.748 137.137 261.314 138.278C260.89 139.419 260.678 140.706 260.678 142.139C260.678 143.591 260.895 144.897 261.329 146.056C261.762 147.216 262.403 148.135 263.252 148.814C264.11 149.483 265.166 149.818 266.42 149.818ZM288.605 153.481C287.228 153.481 285.984 153.226 284.871 152.717C283.759 152.199 282.877 151.449 282.227 150.469C281.586 149.488 281.265 148.286 281.265 146.862C281.265 145.637 281.501 144.628 281.972 143.836C282.444 143.044 283.08 142.417 283.882 141.955C284.683 141.493 285.579 141.144 286.569 140.909C287.558 140.673 288.567 140.494 289.595 140.371C290.896 140.22 291.952 140.098 292.763 140.004C293.574 139.9 294.163 139.735 294.53 139.509C294.898 139.282 295.082 138.915 295.082 138.405V138.306C295.082 137.071 294.733 136.114 294.035 135.436C293.347 134.757 292.32 134.417 290.953 134.417C289.529 134.417 288.407 134.733 287.587 135.365C286.776 135.987 286.215 136.68 285.904 137.444L281.93 136.539C282.401 135.219 283.09 134.153 283.995 133.343C284.909 132.522 285.96 131.928 287.148 131.561C288.336 131.184 289.585 130.995 290.896 130.995C291.763 130.995 292.683 131.099 293.654 131.306C294.634 131.504 295.549 131.872 296.397 132.409C297.255 132.947 297.958 133.715 298.504 134.714C299.051 135.704 299.325 136.991 299.325 138.575V153H295.195V150.03H295.025C294.752 150.577 294.342 151.114 293.795 151.642C293.248 152.17 292.546 152.609 291.688 152.958C290.83 153.306 289.802 153.481 288.605 153.481ZM289.524 150.087C290.693 150.087 291.693 149.856 292.522 149.394C293.361 148.932 293.998 148.328 294.431 147.584C294.875 146.829 295.096 146.023 295.096 145.165V142.365C294.945 142.516 294.653 142.657 294.219 142.789C293.795 142.912 293.31 143.02 292.763 143.115C292.216 143.2 291.683 143.28 291.165 143.355C290.646 143.421 290.212 143.478 289.864 143.525C289.043 143.629 288.294 143.803 287.615 144.048C286.946 144.293 286.408 144.647 286.003 145.109C285.607 145.561 285.409 146.165 285.409 146.919C285.409 147.965 285.795 148.757 286.569 149.295C287.342 149.823 288.327 150.087 289.524 150.087ZM315.096 131.278V134.672H303.231V131.278H315.096ZM306.413 126.074H310.642V146.622C310.642 147.442 310.764 148.06 311.009 148.475C311.255 148.88 311.57 149.158 311.957 149.309C312.353 149.45 312.782 149.521 313.244 149.521C313.583 149.521 313.88 149.498 314.135 149.45C314.389 149.403 314.587 149.366 314.729 149.337L315.492 152.83C315.247 152.925 314.898 153.019 314.446 153.113C313.993 153.217 313.428 153.273 312.749 153.283C311.636 153.302 310.599 153.104 309.638 152.689C308.676 152.274 307.898 151.633 307.304 150.766C306.71 149.898 306.413 148.809 306.413 147.499V126.074ZM328.903 153.438C326.762 153.438 324.919 152.981 323.373 152.067C321.836 151.143 320.648 149.846 319.809 148.178C318.98 146.499 318.565 144.534 318.565 142.28C318.565 140.055 318.98 138.094 319.809 136.397C320.648 134.7 321.817 133.376 323.316 132.423C324.825 131.471 326.588 130.995 328.606 130.995C329.831 130.995 331.019 131.198 332.169 131.603C333.32 132.009 334.352 132.645 335.266 133.512C336.181 134.38 336.902 135.506 337.43 136.892C337.958 138.269 338.222 139.942 338.222 141.913V143.412H320.955V140.244H334.079C334.079 139.131 333.852 138.146 333.4 137.288C332.947 136.421 332.311 135.737 331.491 135.238C330.68 134.738 329.728 134.488 328.634 134.488C327.446 134.488 326.409 134.78 325.523 135.365C324.646 135.94 323.967 136.694 323.486 137.628C323.015 138.552 322.779 139.556 322.779 140.64V143.115C322.779 144.567 323.034 145.802 323.543 146.82C324.061 147.838 324.783 148.616 325.706 149.153C326.63 149.681 327.71 149.945 328.945 149.945C329.746 149.945 330.477 149.832 331.137 149.606C331.797 149.37 332.367 149.021 332.848 148.559C333.329 148.097 333.697 147.527 333.951 146.848L337.953 147.569C337.633 148.748 337.058 149.78 336.228 150.667C335.408 151.543 334.376 152.227 333.131 152.717C331.896 153.198 330.486 153.438 328.903 153.438ZM351.045 153.424C349.292 153.424 347.727 152.976 346.35 152.081C344.983 151.176 343.908 149.889 343.126 148.22C342.353 146.542 341.966 144.529 341.966 142.181C341.966 139.834 342.357 137.826 343.14 136.157C343.932 134.488 345.016 133.211 346.393 132.324C347.769 131.438 349.329 130.995 351.074 130.995C352.422 130.995 353.506 131.221 354.326 131.674C355.156 132.117 355.797 132.636 356.25 133.229C356.712 133.823 357.07 134.347 357.324 134.799H357.579V124.037H361.807V153H357.678V149.62H357.324C357.07 150.082 356.702 150.61 356.221 151.204C355.75 151.798 355.099 152.316 354.27 152.76C353.44 153.203 352.365 153.424 351.045 153.424ZM351.979 149.818C353.195 149.818 354.223 149.498 355.062 148.856C355.91 148.206 356.551 147.305 356.985 146.155C357.428 145.005 357.65 143.666 357.65 142.139C357.65 140.63 357.433 139.311 356.999 138.179C356.565 137.048 355.929 136.166 355.09 135.535C354.251 134.903 353.214 134.587 351.979 134.587C350.706 134.587 349.645 134.917 348.797 135.577C347.948 136.237 347.307 137.137 346.873 138.278C346.449 139.419 346.237 140.706 346.237 142.139C346.237 143.591 346.454 144.897 346.888 146.056C347.321 147.216 347.962 148.135 348.811 148.814C349.669 149.483 350.725 149.818 351.979 149.818ZM220.798 201V179.278H224.885V182.729H225.111C225.507 181.559 226.205 180.64 227.204 179.971C228.213 179.292 229.354 178.953 230.626 178.953C230.89 178.953 231.201 178.962 231.56 178.981C231.927 179 232.215 179.023 232.422 179.052V183.096C232.253 183.049 231.951 182.997 231.517 182.941C231.084 182.875 230.65 182.842 230.216 182.842C229.217 182.842 228.326 183.054 227.543 183.478C226.77 183.893 226.157 184.473 225.705 185.218C225.252 185.953 225.026 186.792 225.026 187.735V201H220.798ZM244.666 201.438C242.526 201.438 240.682 200.981 239.136 200.067C237.6 199.143 236.412 197.846 235.573 196.178C234.743 194.499 234.328 192.534 234.328 190.28C234.328 188.055 234.743 186.094 235.573 184.397C236.412 182.7 237.581 181.376 239.08 180.423C240.588 179.471 242.351 178.995 244.369 178.995C245.594 178.995 246.782 179.198 247.933 179.603C249.083 180.009 250.115 180.645 251.03 181.512C251.944 182.38 252.665 183.506 253.193 184.892C253.721 186.269 253.985 187.942 253.985 189.913V191.412H236.718V188.244H249.842C249.842 187.131 249.616 186.146 249.163 185.288C248.71 184.421 248.074 183.737 247.254 183.238C246.443 182.738 245.491 182.488 244.397 182.488C243.209 182.488 242.172 182.78 241.286 183.365C240.409 183.94 239.73 184.694 239.249 185.628C238.778 186.552 238.542 187.556 238.542 188.64V191.115C238.542 192.567 238.797 193.802 239.306 194.82C239.825 195.838 240.546 196.616 241.47 197.153C242.394 197.681 243.473 197.945 244.708 197.945C245.51 197.945 246.24 197.832 246.9 197.606C247.56 197.37 248.131 197.021 248.611 196.559C249.092 196.097 249.46 195.527 249.714 194.848L253.717 195.569C253.396 196.748 252.821 197.78 251.991 198.667C251.171 199.543 250.139 200.227 248.894 200.717C247.659 201.198 246.25 201.438 244.666 201.438ZM267.784 209.598C266.059 209.598 264.574 209.372 263.33 208.92C262.095 208.467 261.086 207.868 260.303 207.123C259.521 206.379 258.936 205.563 258.55 204.677L262.184 203.178C262.439 203.593 262.778 204.031 263.202 204.493C263.636 204.964 264.221 205.365 264.956 205.695C265.701 206.025 266.658 206.19 267.827 206.19C269.43 206.19 270.754 205.799 271.801 205.016C272.847 204.243 273.371 203.008 273.371 201.311V197.04H273.102C272.847 197.502 272.48 198.016 271.999 198.582C271.527 199.147 270.877 199.638 270.047 200.052C269.217 200.467 268.138 200.675 266.809 200.675C265.093 200.675 263.547 200.274 262.17 199.473C260.803 198.662 259.719 197.469 258.917 195.895C258.125 194.311 257.729 192.364 257.729 190.054C257.729 187.744 258.121 185.764 258.903 184.114C259.695 182.465 260.779 181.201 262.156 180.324C263.532 179.438 265.093 178.995 266.837 178.995C268.185 178.995 269.274 179.221 270.104 179.674C270.933 180.117 271.579 180.636 272.041 181.229C272.513 181.823 272.876 182.347 273.13 182.799H273.441V179.278H277.585V201.481C277.585 203.348 277.151 204.88 276.284 206.077C275.416 207.274 274.243 208.161 272.762 208.736C271.292 209.311 269.632 209.598 267.784 209.598ZM267.742 197.168C268.958 197.168 269.986 196.885 270.825 196.319C271.673 195.744 272.315 194.924 272.748 193.858C273.191 192.784 273.413 191.497 273.413 189.998C273.413 188.536 273.196 187.249 272.762 186.137C272.329 185.024 271.692 184.157 270.853 183.535C270.014 182.903 268.977 182.587 267.742 182.587C266.469 182.587 265.409 182.917 264.56 183.577C263.712 184.228 263.07 185.114 262.637 186.236C262.212 187.358 262 188.612 262 189.998C262 191.421 262.217 192.67 262.651 193.745C263.085 194.82 263.726 195.659 264.574 196.262C265.432 196.866 266.488 197.168 267.742 197.168ZM283.256 201V179.278H287.484V201H283.256ZM285.391 175.926C284.656 175.926 284.024 175.681 283.496 175.191C282.978 174.691 282.718 174.097 282.718 173.409C282.718 172.711 282.978 172.117 283.496 171.627C284.024 171.127 284.656 170.878 285.391 170.878C286.127 170.878 286.754 171.127 287.272 171.627C287.8 172.117 288.064 172.711 288.064 173.409C288.064 174.097 287.8 174.691 287.272 175.191C286.754 175.681 286.127 175.926 285.391 175.926ZM309.45 184.581L305.618 185.26C305.458 184.77 305.203 184.303 304.854 183.86C304.515 183.417 304.053 183.054 303.468 182.771C302.884 182.488 302.153 182.347 301.276 182.347C300.079 182.347 299.079 182.615 298.278 183.153C297.477 183.681 297.076 184.364 297.076 185.203C297.076 185.929 297.345 186.514 297.882 186.957C298.42 187.4 299.287 187.763 300.484 188.046L303.935 188.838C305.934 189.3 307.423 190.012 308.404 190.973C309.384 191.935 309.875 193.184 309.875 194.721C309.875 196.022 309.497 197.182 308.743 198.2C307.998 199.209 306.957 200.001 305.618 200.576C304.288 201.151 302.747 201.438 300.993 201.438C298.561 201.438 296.576 200.92 295.04 199.883C293.503 198.836 292.56 197.351 292.211 195.428L296.298 194.806C296.553 195.871 297.076 196.677 297.868 197.224C298.66 197.761 299.692 198.03 300.965 198.03C302.351 198.03 303.459 197.743 304.288 197.168C305.118 196.583 305.533 195.871 305.533 195.032C305.533 194.353 305.278 193.783 304.769 193.321C304.27 192.859 303.501 192.51 302.464 192.274L298.787 191.468C296.76 191.006 295.261 190.271 294.29 189.262C293.328 188.253 292.848 186.976 292.848 185.43C292.848 184.147 293.206 183.026 293.922 182.064C294.639 181.102 295.629 180.353 296.892 179.815C298.156 179.268 299.603 178.995 301.234 178.995C303.581 178.995 305.429 179.504 306.777 180.522C308.126 181.531 309.017 182.884 309.45 184.581ZM324.664 179.278V182.672H312.798V179.278H324.664ZM315.98 174.074H320.209V194.622C320.209 195.442 320.331 196.06 320.576 196.475C320.822 196.88 321.137 197.158 321.524 197.309C321.92 197.45 322.349 197.521 322.811 197.521C323.15 197.521 323.447 197.498 323.702 197.45C323.956 197.403 324.154 197.366 324.296 197.337L325.059 200.83C324.814 200.925 324.466 201.019 324.013 201.113C323.56 201.217 322.995 201.273 322.316 201.283C321.203 201.302 320.166 201.104 319.205 200.689C318.243 200.274 317.465 199.633 316.871 198.766C316.277 197.898 315.98 196.809 315.98 195.499V174.074ZM329.341 201V179.278H333.428V182.729H333.654C334.05 181.559 334.748 180.64 335.747 179.971C336.756 179.292 337.897 178.953 339.17 178.953C339.434 178.953 339.745 178.962 340.103 178.981C340.471 179 340.758 179.023 340.966 179.052V183.096C340.796 183.049 340.494 182.997 340.061 182.941C339.627 182.875 339.193 182.842 338.76 182.842C337.76 182.842 336.869 183.054 336.087 183.478C335.314 183.893 334.701 184.473 334.248 185.218C333.796 185.953 333.569 186.792 333.569 187.735V201H329.341ZM347.959 209.146C347.327 209.146 346.752 209.094 346.234 208.99C345.715 208.896 345.328 208.792 345.074 208.679L346.092 205.214C346.865 205.422 347.553 205.511 348.157 205.483C348.76 205.455 349.293 205.228 349.755 204.804C350.226 204.38 350.641 203.687 350.999 202.725L351.523 201.283L343.575 179.278H348.1L353.602 196.135H353.828L359.329 179.278H363.869L354.917 203.899C354.502 205.03 353.974 205.987 353.333 206.77C352.692 207.562 351.928 208.156 351.042 208.552C350.156 208.948 349.128 209.146 347.959 209.146Z" fill="#723B33"/>
<rect x="475.13" y="292.914" width="31.3206" height="55.2716" transform="rotate(90 475.13 292.914)" fill="white"/>
<path d="M447.497 308.58L447.501 201.354" stroke="#828282" stroke-width="6.44836"/>
<rect x="459.47" y="187.534" width="23.951" height="23.951" rx="11.9755" transform="rotate(90 459.47 187.534)" fill="#828282"/>
<circle cx="447.495" cy="199.509" r="5.52716" transform="rotate(90 447.495 199.509)" fill="white"/>
<g clip-path="url(#clip3_2173_1635)">
<path d="M447.495 320.687L433.676 304.106L461.312 304.105L447.495 320.687Z" fill="#828282"/>
</g>
<rect x="683" y="383" width="120" height="120" rx="7.63157" fill="white"/>
<rect x="683" y="383" width="120" height="120" rx="7.63157" stroke="#D89750" stroke-width="6.63731"/>
<g clip-path="url(#clip4_2173_1635)">
<rect x="706" y="413.407" width="75" height="60.1852" rx="7.06627" fill="white"/>
<path d="M779.622 438.293C777.799 437.055 772.967 436.528 769.458 437.468C769.275 433.959 767.475 431.001 764.171 428.41L762.963 427.584L762.142 428.823C760.547 431.253 759.863 434.509 760.114 437.467C760.296 439.279 760.934 441.343 762.142 442.81C757.583 445.47 753.367 444.874 734.747 444.873L706.008 444.872C705.917 449.091 706.6 457.232 711.751 463.859C712.321 464.592 712.936 465.303 713.62 465.991C717.79 470.21 724.126 473.283 733.561 473.307C747.965 473.307 760.318 465.488 767.839 446.525C770.301 446.571 776.842 446.961 780.032 440.77C780.101 440.655 780.853 439.119 780.853 439.119L779.645 438.293L779.622 438.293ZM724.788 434.416L716.697 434.416L716.697 442.556L724.788 442.557L724.788 434.416ZM735.226 434.417L727.136 434.417L727.135 442.557L735.226 442.557L735.226 434.417ZM745.664 434.417L737.574 434.417L737.573 442.557L745.664 442.557L745.664 434.417ZM756.102 434.417L748.012 434.417L748.012 442.557L756.102 442.558L756.102 434.417ZM714.327 434.416L706.259 434.416L706.259 442.556L714.35 442.556L714.35 434.416L714.327 434.416ZM724.788 424.144L716.698 424.143L716.698 432.284L724.788 432.284L724.788 424.144ZM735.227 424.144L727.136 424.144L727.136 432.284L735.226 432.284L735.227 424.144ZM745.665 424.144L737.574 424.144L737.574 432.284L745.664 432.285L745.665 424.144ZM745.665 413.872L737.574 413.871L737.574 422.012L745.665 422.012L745.665 413.872Z" fill="#505050"/>
</g>
<path d="M622.237 331.456H617.825C617.655 330.513 617.34 329.683 616.878 328.967C616.416 328.25 615.85 327.642 615.181 327.142C614.511 326.643 613.762 326.266 612.932 326.011C612.112 325.757 611.24 325.629 610.316 325.629C608.647 325.629 607.153 326.049 605.833 326.888C604.522 327.727 603.485 328.957 602.722 330.579C601.967 332.201 601.59 334.18 601.59 336.519C601.59 338.876 601.967 340.865 602.722 342.487C603.485 344.108 604.527 345.334 605.847 346.163C607.167 346.993 608.652 347.408 610.302 347.408C611.216 347.408 612.084 347.285 612.904 347.04C613.733 346.786 614.483 346.413 615.152 345.923C615.822 345.433 616.387 344.834 616.849 344.127C617.321 343.41 617.646 342.59 617.825 341.666L622.237 341.68C622.002 343.104 621.545 344.415 620.866 345.612C620.196 346.8 619.334 347.827 618.278 348.695C617.231 349.553 616.034 350.217 614.686 350.689C613.337 351.16 611.867 351.396 610.273 351.396C607.766 351.396 605.531 350.802 603.57 349.614C601.609 348.417 600.063 346.706 598.931 344.481C597.81 342.256 597.249 339.602 597.249 336.519C597.249 333.426 597.814 330.772 598.946 328.557C600.077 326.332 601.623 324.625 603.584 323.437C605.545 322.24 607.775 321.641 610.273 321.641C611.81 321.641 613.243 321.863 614.573 322.306C615.911 322.74 617.113 323.381 618.179 324.229C619.244 325.068 620.126 326.096 620.823 327.312C621.521 328.519 621.992 329.9 622.237 331.456ZM636.277 351.438C634.24 351.438 632.463 350.972 630.945 350.038C629.427 349.105 628.249 347.799 627.41 346.121C626.571 344.443 626.151 342.482 626.151 340.238C626.151 337.985 626.571 336.014 627.41 334.327C628.249 332.639 629.427 331.328 630.945 330.395C632.463 329.462 634.24 328.995 636.277 328.995C638.313 328.995 640.091 329.462 641.608 330.395C643.126 331.328 644.305 332.639 645.144 334.327C645.983 336.014 646.403 337.985 646.403 340.238C646.403 342.482 645.983 344.443 645.144 346.121C644.305 347.799 643.126 349.105 641.608 350.038C640.091 350.972 638.313 351.438 636.277 351.438ZM636.291 347.889C637.611 347.889 638.705 347.54 639.572 346.842C640.439 346.145 641.08 345.216 641.495 344.056C641.92 342.897 642.132 341.619 642.132 340.224C642.132 338.838 641.92 337.565 641.495 336.405C641.08 335.236 640.439 334.298 639.572 333.591C638.705 332.884 637.611 332.531 636.291 332.531C634.962 332.531 633.859 332.884 632.982 333.591C632.114 334.298 631.469 335.236 631.044 336.405C630.63 337.565 630.422 338.838 630.422 340.224C630.422 341.619 630.63 342.897 631.044 344.056C631.469 345.216 632.114 346.145 632.982 346.842C633.859 347.54 634.962 347.889 636.291 347.889ZM655.351 338.103V351H651.122V329.278H655.181V332.813H655.45C655.95 331.663 656.732 330.739 657.798 330.042C658.872 329.344 660.225 328.995 661.856 328.995C663.336 328.995 664.633 329.306 665.745 329.928C666.858 330.541 667.72 331.456 668.333 332.672C668.946 333.888 669.253 335.392 669.253 337.183V351H665.024V337.692C665.024 336.118 664.614 334.888 663.794 334.001C662.973 333.106 661.847 332.658 660.414 332.658C659.433 332.658 658.561 332.87 657.798 333.294C657.043 333.718 656.445 334.341 656.001 335.161C655.568 335.972 655.351 336.952 655.351 338.103ZM685.063 329.278V332.672H673.198V329.278H685.063ZM676.38 324.074H680.609V344.622C680.609 345.442 680.731 346.06 680.976 346.475C681.221 346.88 681.537 347.158 681.924 347.309C682.32 347.45 682.749 347.521 683.211 347.521C683.55 347.521 683.847 347.498 684.102 347.45C684.356 347.403 684.554 347.366 684.696 347.337L685.459 350.83C685.214 350.925 684.865 351.019 684.413 351.113C683.96 351.217 683.395 351.273 682.716 351.283C681.603 351.302 680.566 351.104 679.604 350.689C678.643 350.274 677.865 349.633 677.271 348.766C676.677 347.898 676.38 346.809 676.38 345.499V324.074ZM696.062 351.481C694.686 351.481 693.441 351.226 692.329 350.717C691.216 350.199 690.335 349.449 689.684 348.469C689.043 347.488 688.723 346.286 688.723 344.862C688.723 343.637 688.958 342.628 689.43 341.836C689.901 341.044 690.537 340.417 691.339 339.955C692.14 339.493 693.036 339.144 694.026 338.909C695.016 338.673 696.024 338.494 697.052 338.371C698.353 338.22 699.409 338.098 700.22 338.004C701.031 337.9 701.62 337.735 701.988 337.509C702.355 337.282 702.539 336.915 702.539 336.405V336.306C702.539 335.071 702.19 334.114 701.493 333.436C700.804 332.757 699.777 332.417 698.41 332.417C696.986 332.417 695.864 332.733 695.044 333.365C694.233 333.987 693.672 334.68 693.361 335.444L689.387 334.539C689.859 333.219 690.547 332.153 691.452 331.343C692.366 330.522 693.418 329.928 694.606 329.561C695.794 329.184 697.043 328.995 698.353 328.995C699.221 328.995 700.14 329.099 701.111 329.306C702.091 329.504 703.006 329.872 703.854 330.409C704.712 330.947 705.415 331.715 705.962 332.714C706.508 333.704 706.782 334.991 706.782 336.575V351H702.652V348.03H702.483C702.209 348.577 701.799 349.114 701.252 349.642C700.705 350.17 700.003 350.609 699.145 350.958C698.287 351.306 697.26 351.481 696.062 351.481ZM696.981 348.087C698.151 348.087 699.15 347.856 699.98 347.394C700.819 346.932 701.455 346.328 701.889 345.584C702.332 344.829 702.553 344.023 702.553 343.165V340.365C702.403 340.516 702.11 340.657 701.677 340.789C701.252 340.912 700.767 341.02 700.22 341.115C699.673 341.2 699.14 341.28 698.622 341.355C698.103 341.421 697.67 341.478 697.321 341.525C696.501 341.629 695.751 341.803 695.072 342.048C694.403 342.293 693.865 342.647 693.46 343.109C693.064 343.561 692.866 344.165 692.866 344.919C692.866 345.965 693.253 346.757 694.026 347.295C694.799 347.823 695.784 348.087 696.981 348.087ZM712.414 351V329.278H716.642V351H712.414ZM714.549 325.926C713.814 325.926 713.182 325.681 712.654 325.191C712.136 324.691 711.876 324.097 711.876 323.409C711.876 322.711 712.136 322.117 712.654 321.627C713.182 321.127 713.814 320.878 714.549 320.878C715.285 320.878 715.912 321.127 716.43 321.627C716.958 322.117 717.222 322.711 717.222 323.409C717.222 324.097 716.958 324.691 716.43 325.191C715.912 325.681 715.285 325.926 714.549 325.926ZM726.559 338.103V351H722.331V329.278H726.39V332.813H726.658C727.158 331.663 727.941 330.739 729.006 330.042C730.081 329.344 731.434 328.995 733.065 328.995C734.545 328.995 735.841 329.306 736.954 329.928C738.066 330.541 738.929 331.456 739.542 332.672C740.155 333.888 740.461 335.392 740.461 337.183V351H736.233V337.692C736.233 336.118 735.822 334.888 735.002 334.001C734.182 333.106 733.055 332.658 731.622 332.658C730.642 332.658 729.77 332.87 729.006 333.294C728.252 333.718 727.653 334.341 727.21 335.161C726.776 335.972 726.559 336.952 726.559 338.103ZM755.494 351.438C753.354 351.438 751.511 350.981 749.964 350.067C748.428 349.143 747.24 347.846 746.401 346.178C745.571 344.499 745.156 342.534 745.156 340.28C745.156 338.055 745.571 336.094 746.401 334.397C747.24 332.7 748.409 331.376 749.908 330.423C751.416 329.471 753.179 328.995 755.197 328.995C756.423 328.995 757.61 329.198 758.761 329.603C759.911 330.009 760.943 330.645 761.858 331.512C762.772 332.38 763.494 333.506 764.022 334.892C764.549 336.269 764.813 337.942 764.813 339.913V341.412H747.546V338.244H760.67C760.67 337.131 760.444 336.146 759.991 335.288C759.539 334.421 758.902 333.737 758.082 333.238C757.271 332.738 756.319 332.488 755.225 332.488C754.037 332.488 753 332.78 752.114 333.365C751.237 333.94 750.558 334.694 750.078 335.628C749.606 336.552 749.37 337.556 749.37 338.64V341.115C749.37 342.567 749.625 343.802 750.134 344.82C750.653 345.838 751.374 346.616 752.298 347.153C753.222 347.681 754.301 347.945 755.536 347.945C756.338 347.945 757.068 347.832 757.728 347.606C758.388 347.37 758.959 347.021 759.44 346.559C759.92 346.097 760.288 345.527 760.543 344.848L764.545 345.569C764.224 346.748 763.649 347.78 762.819 348.667C761.999 349.543 760.967 350.227 759.722 350.717C758.487 351.198 757.078 351.438 755.494 351.438ZM769.505 351V329.278H773.592V332.729H773.818C774.214 331.559 774.912 330.64 775.911 329.971C776.92 329.292 778.061 328.953 779.334 328.953C779.598 328.953 779.909 328.962 780.267 328.981C780.635 329 780.922 329.023 781.13 329.052V333.096C780.96 333.049 780.658 332.997 780.225 332.941C779.791 332.875 779.357 332.842 778.924 332.842C777.924 332.842 777.033 333.054 776.251 333.478C775.478 333.893 774.865 334.473 774.412 335.218C773.96 335.953 773.734 336.792 773.734 337.735V351H769.505ZM801.066 334.581L797.234 335.26C797.074 334.77 796.819 334.303 796.47 333.86C796.131 333.417 795.669 333.054 795.084 332.771C794.5 332.488 793.769 332.347 792.892 332.347C791.695 332.347 790.696 332.615 789.894 333.153C789.093 333.681 788.692 334.364 788.692 335.203C788.692 335.929 788.961 336.514 789.498 336.957C790.036 337.4 790.903 337.763 792.1 338.046L795.551 338.838C797.55 339.3 799.039 340.012 800.02 340.973C801 341.935 801.491 343.184 801.491 344.721C801.491 346.022 801.114 347.182 800.359 348.2C799.615 349.209 798.573 350.001 797.234 350.576C795.905 351.151 794.363 351.438 792.61 351.438C790.177 351.438 788.193 350.92 786.656 349.883C785.119 348.836 784.176 347.351 783.827 345.428L787.914 344.806C788.169 345.871 788.692 346.677 789.484 347.224C790.276 347.761 791.309 348.03 792.581 348.03C793.967 348.03 795.075 347.743 795.905 347.168C796.734 346.583 797.149 345.871 797.149 345.032C797.149 344.353 796.895 343.783 796.385 343.321C795.886 342.859 795.117 342.51 794.08 342.274L790.403 341.468C788.376 341.006 786.877 340.271 785.906 339.262C784.945 338.253 784.464 336.976 784.464 335.43C784.464 334.147 784.822 333.026 785.539 332.064C786.255 331.102 787.245 330.353 788.508 329.815C789.772 329.268 791.219 328.995 792.85 328.995C795.198 328.995 797.045 329.504 798.394 330.522C799.742 331.531 800.633 332.884 801.066 334.581Z" fill="#D89750"/>
<rect x="589.78" y="471.504" width="31.3206" height="55.2716" transform="rotate(-180 589.78 471.504)" fill="white"/>
<path d="M574.114 443.871L681.34 443.875" stroke="#828282" stroke-width="6.44836"/>
<rect x="695.16" y="455.844" width="23.951" height="23.951" rx="11.9755" transform="rotate(-180 695.16 455.844)" fill="#828282"/>
<circle cx="683.185" cy="443.868" r="5.52716" transform="rotate(-180 683.185 443.868)" fill="white"/>
<g clip-path="url(#clip5_2173_1635)">
<path d="M562.007 443.868L578.588 430.05L578.589 457.686L562.007 443.868Z" fill="#828282"/>
</g>
<rect x="387" y="688" width="120" height="120" rx="7.63157" fill="white"/>
<rect x="387" y="688" width="120" height="120" rx="7.63157" stroke="#7E6E9A" stroke-width="6.63731"/>
<path d="M440.975 717.78C446.88 717.78 452.08 720.272 455.792 724.348C457.174 723.958 458.601 723.804 460.049 723.804C469.436 723.804 477.108 731.476 477.108 740.863C477.108 742.135 476.968 743.412 476.693 744.652C481.817 747.835 485.138 753.48 485.138 759.937C485.138 769.952 477.089 778 467.075 777.999L428.927 777.998C417.918 777.998 408.857 769.08 408.857 757.927C408.857 749.713 413.851 742.603 420.991 739.546C420.94 738.996 420.904 738.425 420.905 737.849C420.905 726.831 429.957 717.779 440.975 717.78Z" stroke="#505050" stroke-width="4"/>
<path d="M447.539 763.603L447.539 742.316" stroke="#505050" stroke-width="4" stroke-linecap="round"/>
<path d="M437.962 748.519L446.76 740.14C447.146 739.772 447.753 739.772 448.139 740.14L456.937 748.519" stroke="#505050" stroke-width="4" stroke-linecap="round"/>
<path d="M532.182 727V698.037H542.506C544.749 698.037 546.611 698.424 548.092 699.197C549.581 699.97 550.694 701.04 551.429 702.407C552.165 703.765 552.532 705.334 552.532 707.116C552.532 708.889 552.16 710.449 551.415 711.797C550.68 713.136 549.567 714.178 548.078 714.923C546.597 715.668 544.735 716.04 542.491 716.04H534.671V712.278H542.095C543.51 712.278 544.66 712.075 545.546 711.67C546.442 711.265 547.097 710.675 547.512 709.902C547.927 709.129 548.134 708.201 548.134 707.116C548.134 706.023 547.922 705.075 547.498 704.274C547.083 703.472 546.428 702.86 545.532 702.435C544.646 702.002 543.481 701.785 542.039 701.785H536.552V727H532.182ZM546.48 713.933L553.635 727H548.657L541.643 713.933H546.48ZM566.6 727.438C564.46 727.438 562.617 726.981 561.07 726.067C559.534 725.143 558.346 723.846 557.507 722.178C556.677 720.499 556.262 718.534 556.262 716.28C556.262 714.055 556.677 712.094 557.507 710.397C558.346 708.7 559.515 707.376 561.014 706.423C562.522 705.471 564.285 704.995 566.303 704.995C567.529 704.995 568.717 705.198 569.867 705.603C571.017 706.009 572.049 706.645 572.964 707.512C573.878 708.38 574.6 709.506 575.128 710.892C575.656 712.269 575.92 713.942 575.92 715.913V717.412H558.652V714.244H571.776C571.776 713.131 571.55 712.146 571.097 711.288C570.645 710.421 570.008 709.737 569.188 709.238C568.377 708.738 567.425 708.488 566.331 708.488C565.143 708.488 564.106 708.78 563.22 709.365C562.343 709.94 561.664 710.694 561.184 711.628C560.712 712.552 560.477 713.556 560.477 714.64V717.115C560.477 718.567 560.731 719.802 561.24 720.82C561.759 721.838 562.48 722.616 563.404 723.153C564.328 723.681 565.407 723.945 566.642 723.945C567.444 723.945 568.174 723.832 568.834 723.606C569.494 723.37 570.065 723.021 570.546 722.559C571.026 722.097 571.394 721.527 571.649 720.848L575.651 721.569C575.33 722.748 574.755 723.78 573.926 724.667C573.105 725.543 572.073 726.227 570.828 726.717C569.593 727.198 568.184 727.438 566.6 727.438ZM580.611 727V705.278H584.67V708.813H584.939C585.391 707.616 586.131 706.683 587.159 706.013C588.187 705.334 589.417 704.995 590.85 704.995C592.302 704.995 593.518 705.334 594.499 706.013C595.489 706.692 596.219 707.625 596.691 708.813H596.917C597.435 707.654 598.26 706.73 599.392 706.042C600.523 705.344 601.871 704.995 603.436 704.995C605.407 704.995 607.014 705.613 608.259 706.848C609.513 708.083 610.14 709.945 610.14 712.434V727H605.911V712.83C605.911 711.359 605.511 710.294 604.709 709.634C603.908 708.974 602.951 708.644 601.838 708.644C600.462 708.644 599.392 709.068 598.628 709.916C597.864 710.756 597.483 711.835 597.483 713.155V727H593.268V712.561C593.268 711.383 592.901 710.435 592.165 709.718C591.43 709.002 590.473 708.644 589.294 708.644C588.493 708.644 587.753 708.856 587.074 709.28C586.405 709.695 585.863 710.275 585.448 711.02C585.042 711.764 584.84 712.627 584.84 713.608V727H580.611ZM624.957 727.438C622.92 727.438 621.143 726.972 619.625 726.038C618.108 725.105 616.929 723.799 616.09 722.121C615.251 720.443 614.831 718.482 614.831 716.238C614.831 713.985 615.251 712.014 616.09 710.327C616.929 708.639 618.108 707.328 619.625 706.395C621.143 705.462 622.92 704.995 624.957 704.995C626.993 704.995 628.771 705.462 630.288 706.395C631.806 707.328 632.985 708.639 633.824 710.327C634.663 712.014 635.083 713.985 635.083 716.238C635.083 718.482 634.663 720.443 633.824 722.121C632.985 723.799 631.806 725.105 630.288 726.038C628.771 726.972 626.993 727.438 624.957 727.438ZM624.971 723.889C626.291 723.889 627.385 723.54 628.252 722.842C629.119 722.145 629.761 721.216 630.175 720.056C630.6 718.897 630.812 717.619 630.812 716.224C630.812 714.838 630.6 713.565 630.175 712.405C629.761 711.236 629.119 710.298 628.252 709.591C627.385 708.884 626.291 708.531 624.971 708.531C623.642 708.531 622.539 708.884 621.662 709.591C620.794 710.298 620.149 711.236 619.724 712.405C619.31 713.565 619.102 714.838 619.102 716.224C619.102 717.619 619.31 718.897 619.724 720.056C620.149 721.216 620.794 722.145 621.662 722.842C622.539 723.54 623.642 723.889 624.971 723.889ZM649.942 705.278V708.672H638.077V705.278H649.942ZM641.259 700.074H645.488V720.622C645.488 721.442 645.61 722.06 645.855 722.475C646.1 722.88 646.416 723.158 646.803 723.309C647.199 723.45 647.628 723.521 648.09 723.521C648.429 723.521 648.726 723.498 648.981 723.45C649.235 723.403 649.433 723.366 649.575 723.337L650.338 726.83C650.093 726.925 649.744 727.019 649.292 727.113C648.839 727.217 648.274 727.273 647.595 727.283C646.482 727.302 645.445 727.104 644.483 726.689C643.522 726.274 642.744 725.633 642.15 724.766C641.556 723.898 641.259 722.809 641.259 721.499V700.074ZM663.748 727.438C661.608 727.438 659.765 726.981 658.219 726.067C656.682 725.143 655.494 723.846 654.655 722.178C653.825 720.499 653.411 718.534 653.411 716.28C653.411 714.055 653.825 712.094 654.655 710.397C655.494 708.7 656.663 707.376 658.162 706.423C659.671 705.471 661.434 704.995 663.451 704.995C664.677 704.995 665.865 705.198 667.015 705.603C668.165 706.009 669.198 706.645 670.112 707.512C671.027 708.38 671.748 709.506 672.276 710.892C672.804 712.269 673.068 713.942 673.068 715.913V717.412H655.801V714.244H668.924C668.924 713.131 668.698 712.146 668.246 711.288C667.793 710.421 667.157 709.737 666.336 709.238C665.526 708.738 664.573 708.488 663.48 708.488C662.292 708.488 661.255 708.78 660.368 709.365C659.492 709.94 658.813 710.694 658.332 711.628C657.861 712.552 657.625 713.556 657.625 714.64V717.115C657.625 718.567 657.879 719.802 658.389 720.82C658.907 721.838 659.628 722.616 660.552 723.153C661.476 723.681 662.556 723.945 663.791 723.945C664.592 723.945 665.323 723.832 665.983 723.606C666.643 723.37 667.213 723.021 667.694 722.559C668.175 722.097 668.543 721.527 668.797 720.848L672.799 721.569C672.479 722.748 671.904 723.78 671.074 724.667C670.254 725.543 669.221 726.227 667.977 726.717C666.742 727.198 665.332 727.438 663.748 727.438ZM548.12 758.581L544.287 759.26C544.127 758.77 543.873 758.303 543.524 757.86C543.184 757.417 542.722 757.054 542.138 756.771C541.553 756.488 540.823 756.347 539.946 756.347C538.749 756.347 537.749 756.615 536.948 757.153C536.146 757.681 535.746 758.364 535.746 759.203C535.746 759.929 536.014 760.514 536.552 760.957C537.089 761.4 537.957 761.763 539.154 762.046L542.605 762.838C544.603 763.3 546.093 764.012 547.073 764.973C548.054 765.935 548.544 767.184 548.544 768.721C548.544 770.022 548.167 771.182 547.413 772.2C546.668 773.209 545.626 774.001 544.287 774.576C542.958 775.151 541.417 775.438 539.663 775.438C537.231 775.438 535.246 774.92 533.709 773.883C532.173 772.836 531.23 771.351 530.881 769.428L534.968 768.806C535.222 769.871 535.746 770.677 536.538 771.224C537.33 771.761 538.362 772.03 539.635 772.03C541.021 772.03 542.128 771.743 542.958 771.168C543.788 770.583 544.203 769.871 544.203 769.032C544.203 768.353 543.948 767.783 543.439 767.321C542.939 766.859 542.171 766.51 541.134 766.274L537.457 765.468C535.43 765.006 533.931 764.271 532.96 763.262C531.998 762.253 531.517 760.976 531.517 759.43C531.517 758.147 531.876 757.026 532.592 756.064C533.309 755.102 534.299 754.353 535.562 753.815C536.825 753.268 538.272 752.995 539.903 752.995C542.251 752.995 544.099 753.504 545.447 754.522C546.795 755.531 547.686 756.884 548.12 758.581ZM562.555 775.438C560.415 775.438 558.572 774.981 557.026 774.067C555.489 773.143 554.301 771.846 553.462 770.178C552.632 768.499 552.218 766.534 552.218 764.28C552.218 762.055 552.632 760.094 553.462 758.397C554.301 756.7 555.47 755.376 556.969 754.423C558.478 753.471 560.241 752.995 562.258 752.995C563.484 752.995 564.672 753.198 565.822 753.603C566.972 754.009 568.005 754.645 568.919 755.512C569.834 756.38 570.555 757.506 571.083 758.892C571.611 760.269 571.875 761.942 571.875 763.913V765.412H554.608V762.244H567.731C567.731 761.131 567.505 760.146 567.053 759.288C566.6 758.421 565.964 757.737 565.143 757.238C564.333 756.738 563.38 756.488 562.287 756.488C561.099 756.488 560.062 756.78 559.175 757.365C558.299 757.94 557.62 758.694 557.139 759.628C556.668 760.552 556.432 761.556 556.432 762.64V765.115C556.432 766.567 556.686 767.802 557.196 768.82C557.714 769.838 558.435 770.616 559.359 771.153C560.283 771.681 561.363 771.945 562.598 771.945C563.399 771.945 564.13 771.832 564.79 771.606C565.45 771.37 566.02 771.021 566.501 770.559C566.982 770.097 567.35 769.527 567.604 768.848L571.606 769.569C571.286 770.748 570.711 771.78 569.881 772.667C569.061 773.543 568.028 774.227 566.784 774.717C565.549 775.198 564.139 775.438 562.555 775.438ZM576.567 775V753.278H580.654V756.729H580.88C581.276 755.559 581.974 754.64 582.973 753.971C583.982 753.292 585.122 752.953 586.395 752.953C586.659 752.953 586.97 752.962 587.329 752.981C587.696 753 587.984 753.023 588.191 753.052V757.096C588.022 757.049 587.72 756.997 587.286 756.941C586.853 756.875 586.419 756.842 585.985 756.842C584.986 756.842 584.095 757.054 583.312 757.478C582.539 757.893 581.926 758.473 581.474 759.218C581.021 759.953 580.795 760.792 580.795 761.735V775H576.567ZM611.094 753.278L603.217 775H598.692L590.8 753.278H595.34L600.841 769.994H601.068L606.555 753.278H611.094ZM623.691 775.438C621.551 775.438 619.708 774.981 618.162 774.067C616.625 773.143 615.437 771.846 614.598 770.178C613.768 768.499 613.353 766.534 613.353 764.28C613.353 762.055 613.768 760.094 614.598 758.397C615.437 756.7 616.606 755.376 618.105 754.423C619.614 753.471 621.377 752.995 623.394 752.995C624.62 752.995 625.808 753.198 626.958 753.603C628.108 754.009 629.141 754.645 630.055 755.512C630.97 756.38 631.691 757.506 632.219 758.892C632.747 760.269 633.011 761.942 633.011 763.913V765.412H615.743V762.244H628.867C628.867 761.131 628.641 760.146 628.188 759.288C627.736 758.421 627.099 757.737 626.279 757.238C625.468 756.738 624.516 756.488 623.423 756.488C622.235 756.488 621.198 756.78 620.311 757.365C619.434 757.94 618.756 758.694 618.275 759.628C617.803 760.552 617.568 761.556 617.568 762.64V765.115C617.568 766.567 617.822 767.802 618.331 768.82C618.85 769.838 619.571 770.616 620.495 771.153C621.419 771.681 622.499 771.945 623.734 771.945C624.535 771.945 625.266 771.832 625.926 771.606C626.586 771.37 627.156 771.021 627.637 770.559C628.118 770.097 628.485 769.527 628.74 768.848L632.742 769.569C632.422 770.748 631.846 771.78 631.017 772.667C630.197 773.543 629.164 774.227 627.92 774.717C626.685 775.198 625.275 775.438 623.691 775.438ZM637.702 775V753.278H641.789V756.729H642.016C642.412 755.559 643.109 754.64 644.109 753.971C645.118 753.292 646.258 752.953 647.531 752.953C647.795 752.953 648.106 752.962 648.464 752.981C648.832 753 649.12 753.023 649.327 753.052V757.096C649.157 757.049 648.856 756.997 648.422 756.941C647.988 756.875 647.555 756.842 647.121 756.842C646.122 756.842 645.231 757.054 644.448 757.478C643.675 757.893 643.062 758.473 642.61 759.218C642.157 759.953 641.931 760.792 641.931 761.735V775H637.702ZM669.264 758.581L665.431 759.26C665.271 758.77 665.016 758.303 664.668 757.86C664.328 757.417 663.866 757.054 663.282 756.771C662.697 756.488 661.967 756.347 661.09 756.347C659.892 756.347 658.893 756.615 658.092 757.153C657.29 757.681 656.89 758.364 656.89 759.203C656.89 759.929 657.158 760.514 657.696 760.957C658.233 761.4 659.1 761.763 660.298 762.046L663.748 762.838C665.747 763.3 667.237 764.012 668.217 764.973C669.198 765.935 669.688 767.184 669.688 768.721C669.688 770.022 669.311 771.182 668.557 772.2C667.812 773.209 666.77 774.001 665.431 774.576C664.102 775.151 662.56 775.438 660.807 775.438C658.374 775.438 656.39 774.92 654.853 773.883C653.316 772.836 652.374 771.351 652.025 769.428L656.112 768.806C656.366 769.871 656.89 770.677 657.682 771.224C658.473 771.761 659.506 772.03 660.779 772.03C662.165 772.03 663.272 771.743 664.102 771.168C664.932 770.583 665.346 769.871 665.346 769.032C665.346 768.353 665.092 767.783 664.583 767.321C664.083 766.859 663.315 766.51 662.278 766.274L658.601 765.468C656.574 765.006 655.075 764.271 654.104 763.262C653.142 762.253 652.661 760.976 652.661 759.43C652.661 758.147 653.019 757.026 653.736 756.064C654.452 755.102 655.442 754.353 656.706 753.815C657.969 753.268 659.416 752.995 661.047 752.995C663.395 752.995 665.243 753.504 666.591 754.522C667.939 755.531 668.83 756.884 669.264 758.581Z" fill="#7E6E9A"/>
<rect x="419.19" y="594.153" width="31.3206" height="55.2716" transform="rotate(-90 419.19 594.153)" fill="white"/>
<path d="M446.823 578.487L446.819 685.713" stroke="#828282" stroke-width="6.44836"/>
<rect x="434.85" y="699.534" width="23.951" height="23.951" rx="11.9755" transform="rotate(-90 434.85 699.534)" fill="#828282"/>
<circle cx="446.826" cy="687.558" r="5.52716" transform="rotate(-90 446.826 687.558)" fill="white"/>
<g clip-path="url(#clip6_2173_1635)">
<path d="M446.826 566.38L460.644 582.962L433.008 582.962L446.826 566.38Z" fill="#828282"/>
</g>
<g clip-path="url(#clip7_2173_1635)">
<path d="M417.775 345.464C419.254 344.17 421.29 343.689 423.205 344.202L517.122 369.369C519.164 369.917 520.761 371.513 521.308 373.555L546.473 467.471C547.019 469.513 546.435 471.693 544.94 473.187L522.075 496.053C522.064 496.063 522.054 496.075 522.043 496.085L499.086 519.043C499.076 519.054 499.064 519.063 499.054 519.074L476.187 541.94C474.693 543.435 472.513 544.019 470.471 543.473L376.555 518.308C374.513 517.761 372.917 516.164 372.369 514.122L347.202 420.205C346.655 418.163 347.238 415.982 348.734 414.487L417.487 345.734L417.775 345.464ZM405.363 484.94C405.437 485.106 405.569 485.238 405.735 485.312L477.171 517.039C477.446 517.162 477.771 517.102 477.984 516.888L481.137 513.735C481.462 513.411 481.411 512.871 481.031 512.613L420.584 471.677C419.961 471.255 419.424 470.718 419.002 470.095L378.061 409.643C377.804 409.263 377.263 409.212 376.939 409.536L373.786 412.69C373.572 412.903 373.512 413.227 373.634 413.503L405.363 484.94ZM502.633 491.206C502.918 491.492 503.381 491.492 503.666 491.206L507.159 487.713C507.407 487.465 507.444 487.076 507.247 486.786L465.592 425.28C465.54 425.203 465.474 425.137 465.397 425.085L403.887 383.427C403.597 383.23 403.208 383.267 402.96 383.515L399.468 387.007C399.182 387.293 399.182 387.756 399.468 388.041L502.633 491.206ZM473.094 416.002C473.717 416.424 474.254 416.961 474.676 417.584L515.613 478.031C515.871 478.411 516.411 478.462 516.735 478.138L519.887 474.985C520.101 474.772 520.161 474.447 520.039 474.172L488.311 402.736C488.237 402.571 488.104 402.438 487.939 402.365L416.503 370.635C416.226 370.512 415.903 370.573 415.689 370.786L412.536 373.939C412.212 374.264 412.263 374.804 412.643 375.061L473.094 416.002ZM428.085 462.397C428.137 462.474 428.203 462.54 428.28 462.592L489.786 504.247C490.077 504.444 490.465 504.406 490.714 504.159L494.204 500.667C494.491 500.382 494.491 499.919 494.204 499.634L391.04 396.469C390.754 396.184 390.291 396.184 390.006 396.469L386.516 399.959C386.268 400.207 386.231 400.596 386.427 400.887L428.085 462.397ZM386.569 503.589C386.636 503.842 386.833 504.039 387.086 504.106L458.231 523.171C459.101 523.403 459.54 522.162 458.716 521.796L398.592 495.093C397.252 494.498 396.18 493.426 395.585 492.086L368.879 431.96C368.513 431.136 367.271 431.576 367.505 432.446L386.569 503.589ZM495.085 392.586C496.425 393.181 497.497 394.253 498.093 395.592L524.794 455.717C525.16 456.541 526.402 456.102 526.168 455.231L507.105 384.087C507.038 383.835 506.84 383.638 506.588 383.57L435.446 364.506C434.575 364.273 434.136 365.515 434.96 365.881L495.085 392.586Z" fill="#2D684B"/>
</g>
<defs>
<clipPath id="clip0_2173_1635">
<rect width="38" height="40" fill="white" transform="translate(96 403)"/>
</clipPath>
<clipPath id="clip1_2173_1635">
<rect width="16.5815" height="27.6358" fill="white" transform="matrix(1 -3.19351e-05 -3.19351e-05 -1 304.732 458.017)"/>
</clipPath>
<clipPath id="clip2_2173_1635">
<rect width="68" height="65" fill="white" transform="translate(413 108)"/>
</clipPath>
<clipPath id="clip3_2173_1635">
<rect width="16.5815" height="27.6358" fill="white" transform="matrix(3.18914e-05 1 1 -3.18914e-05 433.676 304.106)"/>
</clipPath>
<clipPath id="clip4_2173_1635">
<rect x="706" y="413.407" width="75" height="60.1852" rx="7.06627" fill="white"/>
</clipPath>
<clipPath id="clip5_2173_1635">
<rect width="16.5815" height="27.6358" fill="white" transform="matrix(-1 3.18476e-05 3.18476e-05 1 578.588 430.05)"/>
</clipPath>
<clipPath id="clip6_2173_1635">
<rect width="16.5815" height="27.6358" fill="white" transform="matrix(-3.19788e-05 -1 -1 3.19788e-05 460.644 582.962)"/>
</clipPath>
<clipPath id="clip7_2173_1635">
<rect x="347" y="344" width="200" height="200" rx="16.5815" fill="white"/>
</clipPath>
</defs>
</svg>
