<svg width="689" height="187" viewBox="0 0 689 187" fill="none" xmlns="http://www.w3.org/2000/svg">
<path d="M659.191 105.348C640.46 105.348 626.939 91.6865 626.939 72.9555V64.5054C626.939 45.7743 640.319 32.1133 658.346 32.1133C676.373 32.1133 688.907 45.6335 688.907 64.3646V69.2938C688.907 71.2655 687.358 72.9555 685.386 72.9555H644.544C642.995 72.9555 641.727 74.223 641.727 75.7722C641.727 86.194 649.051 92.6724 658.768 92.6724C666.937 92.6724 672.57 88.0248 672.57 83.5181C672.57 81.5464 674.26 79.9972 676.232 79.9972H683.555C685.527 79.9972 687.076 81.5464 687.076 83.5181C687.076 95.7708 674.823 105.348 659.191 105.348ZM670.739 61.6887C672.288 61.6887 673.556 60.4212 673.556 58.872C673.556 50.1402 666.937 44.7885 657.923 44.7885C648.91 44.7885 642.291 50.1402 642.291 58.872C642.291 60.4212 643.558 61.6887 645.107 61.6887H670.739Z" fill="#FAFEFA"/>
<path d="M588.259 82.1099C589.245 85.0675 592.766 85.0675 593.893 82.1099L610.371 35.7752C610.934 34.226 612.061 33.5218 613.61 33.5218H622.201C624.032 33.5218 625.581 35.2118 624.736 37.4652L601.075 101.686C600.512 103.235 599.385 103.939 597.836 103.939H584.316C582.767 103.939 581.64 103.235 581.077 101.686L557.276 37.3244C556.712 35.6344 557.839 33.5218 559.952 33.5218H568.543C570.092 33.5218 571.218 34.226 571.782 35.7752L588.259 82.1099Z" fill="#FAFEFA"/>
<path d="M538.921 103.939C537.372 103.939 536.104 102.672 536.104 101.123V36.3384C536.104 34.7893 537.372 33.5217 538.921 33.5217H547.371C548.92 33.5217 550.188 34.7893 550.188 36.3384V101.123C550.188 102.672 548.92 103.939 547.371 103.939H538.921ZM537.513 23.6633C535.963 23.6633 534.696 22.3958 534.696 20.8466V9.57978C534.696 8.03059 535.963 6.76308 537.513 6.76308H548.779C550.329 6.76308 551.596 8.03059 551.596 9.57978V20.8466C551.596 22.3958 550.329 23.6633 548.779 23.6633H537.513Z" fill="#FAFEFA"/>
<path d="M459.636 101.123C459.636 102.672 458.369 103.939 456.82 103.939H446.961C445.412 103.939 444.145 102.672 444.145 101.123V8.17152C444.145 6.62233 445.412 5.35481 446.961 5.35481H456.82C458.369 5.35481 459.636 6.62233 459.636 8.17152V43.3803C459.636 44.9295 460.904 46.197 462.453 46.197H501.887C503.436 46.197 504.704 44.9295 504.704 43.3803V8.17152C504.704 6.62233 505.971 5.35481 507.52 5.35481H517.379C518.928 5.35481 520.195 6.62233 520.195 8.17152V101.123C520.195 102.672 518.928 103.939 517.379 103.939H507.52C505.971 103.939 504.704 102.672 504.704 101.123V63.0972C504.704 61.548 503.436 60.2805 501.887 60.2805H462.453C460.904 60.2805 459.636 61.548 459.636 63.0972V101.123Z" fill="#FAFEFA"/>
<path d="M428.184 101.123C428.184 102.672 426.917 103.939 425.367 103.939H416.917C415.368 103.939 414.101 102.672 414.101 101.123V8.17152C414.101 6.62233 415.368 5.35481 416.917 5.35481H425.367C426.917 5.35481 428.184 6.62233 428.184 8.17152V101.123Z" fill="#FAFEFA"/>
<path d="M371.858 105.348C353.127 105.348 339.466 91.6865 339.466 72.9555V64.5054C339.466 45.7743 353.127 32.1133 371.858 32.1133C390.589 32.1133 404.25 45.7743 404.25 64.5054V72.9555C404.25 91.6865 390.589 105.348 371.858 105.348ZM371.858 92.6724C382.42 92.6724 390.166 84.9265 390.166 74.3638V63.097C390.166 52.5344 382.42 44.7885 371.858 44.7885C361.295 44.7885 353.549 52.5344 353.549 63.097V74.3638C353.549 84.9265 361.295 92.6724 371.858 92.6724Z" fill="#FAFEFA"/>
<path d="M300.884 105.348C282.153 105.348 268.492 91.6865 268.492 72.9555V64.5054C268.492 45.7743 282.153 32.1133 300.884 32.1133C319.615 32.1133 333.276 45.7743 333.276 64.5054V72.9555C333.276 91.6865 319.615 105.348 300.884 105.348ZM300.884 92.6724C311.447 92.6724 319.193 84.9265 319.193 74.3638V63.097C319.193 52.5344 311.447 44.7885 300.884 44.7885C290.322 44.7885 282.576 52.5344 282.576 63.097V74.3638C282.576 84.9265 290.322 92.6724 300.884 92.6724Z" fill="#FAFEFA"/>
<path d="M213.58 19.4383C212.031 19.4383 210.763 18.1708 210.763 16.6216V8.17152C210.763 6.62233 212.031 5.35481 213.58 5.35481H282.589C284.138 5.35481 285.406 6.62233 285.406 8.17152V16.6216C285.406 18.1708 284.138 19.4383 282.589 19.4383H258.647C257.098 19.4383 255.83 20.7058 255.83 22.255V101.123C255.83 102.672 254.563 103.939 253.014 103.939H243.155C241.606 103.939 240.339 102.672 240.339 101.123V22.255C240.339 20.7058 239.071 19.4383 237.522 19.4383H213.58Z" fill="#FAFEFA"/>
<path d="M273.615 186.642C272.715 186.642 272.239 185.954 272.504 185.266L276.207 176.114C276.366 175.743 276.366 175.479 276.207 175.109L266.578 151.037C266.314 150.455 266.79 149.608 267.584 149.608H270.97C271.34 149.608 271.71 149.82 271.869 150.243L278.271 166.273C278.588 167.12 279.911 167.173 280.281 166.273L286.788 150.243C286.947 149.82 287.37 149.608 287.741 149.608H291.127C291.973 149.608 292.396 150.455 292.132 151.037L277.9 186.06C277.742 186.43 277.371 186.642 277.001 186.642H273.615Z" fill="#FAFEFA"/>
<path d="M251.977 176.59C249.544 176.59 247.851 176.061 245.629 176.061H241.396C240.814 176.061 240.338 175.585 240.338 175.003V140.085C240.338 139.503 240.814 139.027 241.396 139.027H244.57C245.152 139.027 245.629 139.503 245.629 140.085V149.238C245.629 149.873 246.105 150.243 246.687 150.243C247.639 150.243 248.962 149.079 251.977 149.079C258.749 149.079 263.616 153.946 263.616 160.718V164.951C263.616 171.723 258.749 176.59 251.977 176.59ZM251.977 171.828C255.681 171.828 258.326 169.183 258.326 165.48V160.189C258.326 156.486 255.681 153.841 251.977 153.841C248.274 153.841 245.629 156.486 245.629 160.189V165.48C245.629 169.183 248.274 171.828 251.977 171.828Z" fill="#FAFEFA"/>
<path d="M339.835 144.552C339.246 144.552 338.763 144.07 338.763 143.48V140.265C338.763 139.675 339.246 139.193 339.835 139.193H366.093C366.682 139.193 367.165 139.675 367.165 140.265V143.48C367.165 144.07 366.682 144.552 366.093 144.552H356.983C356.394 144.552 355.911 145.034 355.911 145.624V175.633C355.911 176.222 355.429 176.704 354.84 176.704H351.088C350.499 176.704 350.017 176.222 350.017 175.633V145.624C350.017 145.034 349.534 144.552 348.945 144.552H339.835Z" fill="#FAFEFA"/>
<path d="M322.304 177.24C314.213 177.24 308.372 172.525 308.372 165.987V165.451C308.372 164.862 308.854 164.379 309.443 164.379H313.195C313.784 164.379 314.266 164.862 314.266 165.451V165.987C314.266 169.417 317.535 171.882 322.304 171.882C326.859 171.882 330.343 169.631 330.343 166.469V165.933C330.343 156.77 309.39 164.433 309.39 149.696C309.39 143.212 314.802 138.657 322.465 138.657C329.967 138.657 335.541 143.051 335.541 149.107V149.643C335.541 150.232 335.058 150.715 334.469 150.715H330.718C330.128 150.715 329.646 150.232 329.646 149.643V149.107C329.646 146.16 326.967 144.016 322.465 144.016C318.232 144.016 315.284 145.892 315.284 148.946V149.482C315.284 157.949 336.237 151.518 336.237 165.719C336.237 172.525 330.396 177.24 322.304 177.24Z" fill="#FAFEFA"/>
<path d="M398.85 175.233L386.062 140.143C385.851 139.554 385.429 139.289 384.852 139.289H380.326C379.745 139.289 379.327 139.557 379.116 140.143L366.335 175.233C366.071 175.979 366.598 176.675 367.334 176.675H371.385C371.966 176.675 372.331 176.407 372.542 175.822L374.195 170.954C374.195 170.953 374.194 170.952 374.194 170.952C374.193 170.952 374.192 170.951 374.192 170.951L374.589 169.796L375.226 167.918C375.24 167.882 375.254 167.85 375.268 167.814L377.143 162.363L379.382 155.765C379.383 155.763 379.385 155.762 379.387 155.762C379.389 155.762 379.391 155.76 379.391 155.758L381.592 149.275C381.908 148.261 383.224 148.261 383.59 149.275L387.005 159.328L388.682 164.019L390.318 168.974L392.643 175.822C392.854 176.411 393.223 176.675 393.8 176.675H397.851C398.586 176.675 399.114 175.929 398.85 175.233Z" fill="#FAFEFA"/>
<path d="M532.738 140.265C532.738 139.675 533.22 139.193 533.809 139.193H537.561C538.15 139.193 538.632 139.675 538.632 140.265V153.715C538.632 154.787 539.918 155.109 540.508 154.412L553.101 139.783C553.476 139.354 553.905 139.193 554.441 139.193H558.674C559.585 139.193 560.121 140.265 559.478 140.961L545.277 156.77C544.902 157.145 544.902 157.734 545.277 158.163L560.335 174.936C560.871 175.525 560.603 176.704 559.478 176.704H554.977C554.441 176.704 554.012 176.544 553.637 176.115L540.561 161.271C539.865 160.467 538.632 160.896 538.632 161.968V175.633C538.632 176.222 538.15 176.704 537.561 176.704H533.809C533.22 176.704 532.738 176.222 532.738 175.633V140.265Z" fill="#FAFEFA"/>
<path d="M511.153 177.24C501.828 177.24 495.076 170.488 495.076 161.164V154.734C495.076 145.409 501.828 138.657 511.153 138.657C520.477 138.657 527.229 145.409 527.229 154.734V161.164C527.229 170.488 520.477 177.24 511.153 177.24ZM511.153 171.882C517.047 171.882 521.334 167.595 521.334 161.7V154.198C521.334 148.303 517.047 144.016 511.153 144.016C505.258 144.016 500.971 148.303 500.971 154.198V161.7C500.971 167.595 505.258 171.882 511.153 171.882Z" fill="#FAFEFA"/>
<path d="M471.741 176.704C471.151 176.704 470.669 176.222 470.669 175.633V140.265C470.669 139.675 471.151 139.193 471.741 139.193H475.492C476.081 139.193 476.564 139.675 476.564 140.265V170.274C476.564 170.863 477.046 171.346 477.635 171.346H492.104C492.693 171.346 493.176 171.828 493.176 172.417V175.633C493.176 176.222 492.693 176.704 492.104 176.704H471.741Z" fill="#FAFEFA"/>
<path d="M438.587 140.265C438.587 139.675 439.07 139.193 439.659 139.193H443.41C444 139.193 444.482 139.675 444.482 140.265V153.715C444.482 154.787 445.768 155.109 446.357 154.412L458.951 139.783C459.326 139.354 459.754 139.193 460.29 139.193H464.524C465.435 139.193 465.971 140.265 465.327 140.961L451.127 156.77C450.752 157.145 450.752 157.734 451.127 158.163L466.185 174.936C466.721 175.525 466.453 176.704 465.327 176.704H460.826C460.29 176.704 459.862 176.544 459.486 176.115L446.411 161.271C445.714 160.467 444.482 160.896 444.482 161.968V175.633C444.482 176.222 444 176.704 443.41 176.704H439.659C439.07 176.704 438.587 176.222 438.587 175.633V140.265Z" fill="#FAFEFA"/>
<path d="M418.937 177.24C409.613 177.24 402.861 170.488 402.861 161.164V154.734C402.861 145.409 409.613 138.657 418.937 138.657C427.35 138.657 433.406 144.07 433.406 151.518V152.054C433.406 152.644 432.923 153.126 432.334 153.126H428.583C427.993 153.126 427.511 152.644 427.511 152.054V151.518C427.511 147.178 423.921 144.016 418.937 144.016C413.042 144.016 408.755 148.303 408.755 154.198V161.7C408.755 167.595 413.042 171.882 418.937 171.882C423.921 171.882 427.511 168.72 427.511 164.379V163.843C427.511 163.254 427.993 162.772 428.583 162.772H432.334C432.923 162.772 433.406 163.2 433.406 163.843V164.379C433.406 171.828 427.35 177.24 418.937 177.24Z" fill="#FAFEFA"/>
<path d="M64.6701 1.3378C66.0215 0.155103 67.8818 -0.284411 69.6316 0.184444L155.447 23.1811C157.314 23.6812 158.772 25.1396 159.272 27.0059L182.266 112.82C182.766 114.686 182.232 116.678 180.866 118.043L159.972 138.937C159.963 138.947 159.954 138.957 159.944 138.966L138.967 159.944C138.958 159.953 138.947 159.962 138.938 159.972L118.043 180.866C116.677 182.232 114.686 182.766 112.82 182.266L27.0059 159.272C25.1396 158.772 23.6812 157.314 23.1811 155.447L0.184415 69.6316C-0.315666 67.7653 0.21778 65.7728 1.58402 64.4066L64.4066 1.58405L64.6701 1.3378ZM53.2827 128.679C53.3797 128.897 53.5541 129.072 53.7723 129.169L118.756 158.031C119.121 158.193 119.547 158.113 119.829 157.831L122.314 155.347C122.742 154.919 122.674 154.207 122.173 153.867L67.2364 116.663C66.6672 116.278 66.1763 115.787 65.7908 115.218L28.5826 60.2775C28.2432 59.7763 27.5312 59.7084 27.1031 60.1364L24.6187 62.6209C24.3368 62.9028 24.2575 63.3292 24.4194 63.6936L53.2827 128.679ZM141.998 134.299C142.375 134.675 142.985 134.675 143.361 134.299L146.172 131.489C146.498 131.162 146.547 130.65 146.288 130.267L108.394 74.3161C108.325 74.2147 108.238 74.1273 108.137 74.0586L52.1823 36.1627C51.7998 35.9036 51.2871 35.9525 50.9604 36.2792L48.151 39.0886C47.7746 39.4649 47.7746 40.0752 48.151 40.4516L141.998 134.299ZM115.217 65.7915C115.786 66.1771 116.277 66.6679 116.662 67.2371L153.867 122.173C154.207 122.674 154.919 122.742 155.347 122.314L157.831 119.83C158.113 119.548 158.192 119.122 158.03 118.757L129.167 53.7737C129.07 53.5555 128.896 53.381 128.678 53.2841L63.6929 24.4201C63.3285 24.2582 62.9021 24.3375 62.6202 24.6194L60.1364 27.1032C59.7084 27.5312 59.7762 28.2432 60.2774 28.5827L115.217 65.7915ZM74.0585 108.137C74.1272 108.238 74.2146 108.325 74.3161 108.394L130.268 146.287C130.65 146.546 131.163 146.498 131.49 146.171L134.298 143.363C134.674 142.986 134.674 142.376 134.298 142L40.4502 48.1524C40.0738 47.776 39.4636 47.776 39.0872 48.1524L36.2798 50.9598C35.9531 51.2865 35.9042 51.7991 36.1633 52.1817L74.0585 108.137ZM36.1114 145.659C36.2005 145.991 36.4603 146.251 36.7928 146.34L97.985 162.737C99.1329 163.045 99.7118 161.408 98.6257 160.925L47.1414 138.06C45.9172 137.516 44.9381 136.537 44.3941 135.313L21.5257 83.8263C21.0433 82.7402 19.4064 83.319 19.714 84.467L36.1114 145.659ZM135.312 44.3948C136.536 44.9387 137.515 45.9179 138.059 47.1421L160.924 98.6261C161.406 99.7122 163.043 99.1334 162.735 97.9854L146.339 36.7942C146.25 36.4616 145.99 36.2018 145.657 36.1127L84.4666 19.7156C83.3186 19.408 82.7398 21.045 83.8259 21.5274L135.312 44.3948Z" fill="#FAFEFA"/>
</svg>
